<?xml version="1.0" encoding="utf-8"?>
<!-- Generator: Adobe Illustrator 27.4.1, SVG Export Plug-In . SVG Version: 6.00 Build 0)  -->
<svg version="1.1" id="Layer_1" xmlns="http://www.w3.org/2000/svg" xmlns:xlink="http://www.w3.org/1999/xlink" x="0px" y="0px"
	 viewBox="0 0 512 512" style="enable-background:new 0 0 512 512;" xml:space="preserve">
<style type="text/css">
	.st0{fill:#98B1D6;}
	.st1{fill:#FFFFFF;}
	.st2{clip-path:url(#SVGID_00000065759073592746464520000013176276214289484981_);}
	.st3{fill:#E6E7E8;}
	.st4{fill:#6FA553;}
	.st5{fill:#3F6F2D;}
</style>
<rect class="st0" width="512" height="512"/>
<g>
	<path class="st1" d="M78.86586,391.984436h-4.7261505c-9.0307846,0-16.3516731-7.3208923-16.3516731-16.3516846V147.1028137
		c0-9.030777,7.3208885-16.3516693,16.3516731-16.3516693h45.7876968c24.345192,0,39.6077499,5.0912323,50.873558,16.8406525
		c13.0793762,13.3163605,19.2593231,32.9004822,19.2593231,60.707077c0,28.1996613-6.1799469,47.7811432-19.2593231,61.0974884
		c-11.2658081,11.7494202-26.5283661,16.8406677-50.873558,16.8406677h-8.3582001
		c-9.0307846,0-16.3516769,7.3208923-16.3516769,16.3516846v73.0440369
		C95.2175293,384.6635437,87.896637,391.984436,78.86586,391.984436z M111.5692215,249.0314331
		c30.1604385,0,39.6077499-9.7920685,39.6077499-40.7325592c0-30.5474091-9.4473114-40.3394775-39.6077499-40.3394775h-0.0000153
		c-9.0307846,0-16.3516769,7.3208923-16.3516769,16.3516693v48.3686981c0,9.030777,7.3208923,16.3516693,16.3516769,16.3516693
		H111.5692215z"/>
</g>
<g>
	<path class="st1" d="M347.133728,391.984436h-4.7261658c-9.0307617,0-16.3516541-7.3208923-16.3516541-16.3516846V147.1028137
		c0-9.030777,7.3208923-16.3516693,16.3516541-16.3516693h45.7877197c24.3451843,0,39.6077271,5.0912323,50.8735657,16.8406525
		c13.0793762,13.3163605,19.2593079,32.9004822,19.2593079,60.707077c0,28.1996613-6.1799316,47.7811432-19.2593079,61.0974884
		C427.803009,281.1457825,412.5404663,286.23703,388.195282,286.23703h-8.3582153
		c-9.0307617,0-16.3516541,7.3208923-16.3516541,16.3516846v73.0440369
		C363.4854126,384.6635437,356.1645203,391.984436,347.133728,391.984436z M379.8370972,249.0314331
		c30.1604309,0,39.6077271-9.7920685,39.6077271-40.7325592c0-30.5474091-9.4472961-40.3394775-39.6077271-40.3394775h-0.0000305
		c-9.0307617,0-16.3516541,7.3208923-16.3516541,16.3516693v48.3686981c0,9.030777,7.3208923,16.3516693,16.3516541,16.3516693
		H379.8370972z"/>
</g>
<g>
	<defs>
		<path id="SVGID_1_" d="M466.209259,512H45.2297783c-6.6000023,0-12-5.3999939-12-12V50.8780479c0-6.5999985,5.3999977-12,12-12
			H466.209259c6.5999756,0,12,5.4000015,12,12V500C478.209259,506.6000061,472.8092346,512,466.209259,512z"/>
	</defs>
	<clipPath id="SVGID_00000020378070890495278730000017292704684341532605_">
		<use xlink:href="#SVGID_1_"  style="overflow:visible;"/>
	</clipPath>
	<g style="clip-path:url(#SVGID_00000020378070890495278730000017292704684341532605_);">
		<g>
			<path class="st3" d="M237.9138336,533.0296631c-2.1520691,0-3.8968658-1.7432861-3.8976288-3.8961182
				c-0.0228424-50.7970886,14.0383148-99.1292419,14.1806793-99.6118774
				c0.6074829-2.0645142,2.7656403-3.2474976,4.8392944-2.6385193c2.0645294,0.6090088,3.2459869,2.7755432,2.6385193,4.8400879
				c-0.1385498,0.4719543-13.8853149,47.7703247-13.8632355,97.4072571c0.0007629,2.152832-1.7432709,3.897644-3.8961029,3.8991699
				C237.9153595,533.0296631,237.9145966,533.0296631,237.9138336,533.0296631z"/>
		</g>
		<g>
			<path class="st4" d="M255.7195129,109.922348c54.6665649,0,105.3573914,49.000824,86.4725647,129.1494598
				c-18.8847961,80.1486206-86.4725647,124.5912476-86.4725647,124.5912476s-67.5877533-44.442627-86.47258-124.5912476
				S201.052948,109.922348,255.7195129,109.922348z"/>
			<path class="st5" d="M255.7198486,371.458374c-1.4913025,0-2.9833679-0.4278259-4.2828217-1.2819519
				c-2.8653717-1.8848572-70.404007-47.092804-89.7772064-129.3168182
				c-9.3253784-39.5754089-2.9795532-75.8713379,17.8674469-102.2016602
				c18.3820343-23.2160187,46.1526642-36.5311432,76.1925812-36.5311432c30.0391541,0,57.8097839,13.3143616,76.1910706,36.5303802
				c20.8477478,26.3303223,27.193573,62.6262512,17.8697205,102.2024231
				c-19.3754883,82.2240143-86.9125977,127.4319611-89.7779541,129.3168182
				C258.7024536,371.0305481,257.2111511,371.458374,255.7198486,371.458374z M255.7198486,117.7173233
				c-25.2470551,0-48.5628052,11.1600113-63.969101,30.6184769c-17.8286133,22.5171814-23.1254272,54.1062622-14.9160461,88.9481812
				c15.209137,64.5484161,64.0756683,105.5861969,78.8851471,116.7705841
				c14.8018494-11.1782837,63.6744995-52.2175903,78.8843689-116.7705841
				c8.2094116-34.8419189,2.9125671-66.4317627-14.9160461-88.9489441
				C304.2818909,128.8773346,280.9661255,117.7173233,255.7198486,117.7173233z"/>
		</g>
		<g>
			<path class="st4" d="M255.7195129,363.6630554c0,0-32.1867676,12.9149475-35.502594,36.4657288
				c-3.3158417,23.5507812,16.5791626,25.829895,23.6845245,4.5582275c0,0-2.368454,22.4112244,17.0528412,22.0313721
				c19.4213257-0.3798523,7.579071-26.5895996,7.579071-26.5895996s13.7369995,19.372406,20.8423767,8.35672
				C296.4810791,397.4698181,284.5904541,388.2486267,255.7195129,363.6630554z"/>
			<path class="st5" d="M260.4746399,434.5177917c-9.0520782,0-14.5255127-3.8656616-17.5416107-7.152771
				c-1.1182861-1.2180176-2.0607147-2.5212708-2.8524323-3.8671875c-4.7494659,3.3251648-9.9366608,4.2219238-14.2994232,3.1911926
				c-7.6696472-1.8041687-15.7496185-10.1277466-13.2831573-27.6472778
				c3.8991547-27.6990662,38.8339539-42.0167847,40.3191681-42.6135864c2.69104-1.0748901,5.7527924-0.5770569,7.9574127,1.3002014
				l4.1442566,3.5246277c13.5884399,11.5513,22.5666809,19.1821289,28.0279236,26.0440979
				c2.647644,3.3236389,10.7017517,13.4422607,2.9795532,25.4137573c-2.8257751,4.3802795-6.98526,6.8513184-11.7142029,6.954834
				c-1.5758057,0.0258789-3.0982971-0.2009583-4.5827637-0.6364136c-0.3851929,2.617218-1.2088623,5.1658936-2.6598206,7.4633484
				c-2.2502747,3.5611572-6.8284607,7.8424683-15.8630371,8.0190735
				C260.8933411,434.5162659,260.6832275,434.5177917,260.4746399,434.5177917z M243.8967743,396.8904114
				c0.548111,0,1.1030731,0.0578613,1.658783,0.179657c3.8877411,0.8434753,6.5155945,4.4807739,6.0976562,8.4362488
				c-0.1804199,1.9320679-0.0662231,8.2672424,2.7907715,11.3442383c0.8609772,0.9256897,2.4809418,2.0995483,6.358017,2.0736694
				c1.5407715-0.0304565,2.7131042-0.3273315,2.9856262-0.7566833c1.4083252-2.2183228-0.1141663-9.8019409-2.3659668-14.8460388
				c-1.6321411-3.6600952-0.2283936-7.9703369,3.2536011-9.9556885c3.4789429-1.9884033,7.8988037-1.0170288,10.2160645,2.2533264
				c2.4344788,3.4058533,6.1326599,6.9898376,8.2550354,8.1210632c0.6882019-1.2134399,0.8632812-2.6385193-2.3964233-6.7340698
				c-4.5173035-5.674408-13.4985962-13.3082581-25.9283752-23.8729858l-0.3661652-0.3121033
				c-9.3101654,4.7319641-24.6509857,15.1261597-26.519104,28.3948364
				c-0.9942017,7.0598755,0.8152924,10.0744629,1.4159241,10.2982788c0.6699066,0.1827087,4.5964661-1.6351929,7.1558075-9.2964783
				C237.5882568,398.9838867,240.6081543,396.8904114,243.8967743,396.8904114z"/>
		</g>
		<g>
			<path class="st1" d="M321.2776794,225.061264c-0.1476746,0-0.2953491-0.0053406-0.4460754-0.0175171
				c-3.0039368-0.2428436-5.2420349-2.8744965-4.9984131-5.878418c2.9765015-36.8569641-5.0775757-53.2932434-12.3582458-60.5921631
				c-7.6064453-7.6247406-15.9361267-7.0629272-16.2832642-7.0355225c-3.0115051,0.2245636-5.6271973-1.973938-5.8921204-4.9527435
				c-0.2664185-2.9787903,1.8864136-5.6142578,4.8613892-5.9111481c0.5496216-0.0601349,13.4285583-1.2020264,24.7469177,9.9016571
				c13.166687,12.9177551,18.4832764,36.2905884,15.8021545,69.4684143
				C326.4801025,222.8985291,324.0912781,225.061264,321.2776794,225.061264z"/>
		</g>
	</g>
</g>
<g>
	<g>
		<path class="st1" d="M210.6016693,246.4766235l-1.933197,10.3840332
			c-0.4222107,2.2679138-2.4012909,3.9125366-4.7081757,3.9125366H201.05159c-3.0069122,0-5.2699585-2.7386169-4.7032623-5.6916351
			l13.4177246-69.9193115c0.9077606-4.7303162,5.0461121-8.1500092,9.8627319-8.1500092h1.1951447
			c4.7785034,0,8.8952332,3.3670349,9.8431244,8.0505676l14.1612854,69.9713287
			c0.6003723,2.9664764-1.6672974,5.7390594-4.6939087,5.7390594h-3.5022736c-2.294754,0-4.2669983-1.6277466-4.702179-3.8808594
			l-2.017868-10.4473877c-0.4351654-2.2531128-2.4074097-3.8808899-4.7021637-3.8808899h-9.9001007
			C213.0029602,242.5640564,211.02388,244.2086945,210.6016693,246.4766235z M219.1539459,198.4384308l-5.4427338,30.1424713
			c-0.193161,1.0697784,0.6289368,2.0536041,1.7160034,2.0536041h9.5063934c1.0894012,0,1.9120636-0.9878082,1.7149811-2.0592194
			l-5.5442505-30.1400452C220.9048615,197.3508606,219.3498688,197.3534088,219.1539459,198.4384308z"/>
	</g>
	<g>
		<path class="st1" d="M261.1177979,260.7731934h-0.0000305c-3.3634949,0-6.0901337-2.7266541-6.0901337-6.0901337v-1.257019
			c0-3.3634949,2.7266388-6.0901489,6.0901337-6.0901489h0.0000305c3.3634949,0,6.0901489,2.7266541,6.0901489,6.0901489v1.257019
			C267.2079468,258.0465393,264.4812927,260.7731934,261.1177979,260.7731934z"/>
	</g>
	<g>
		<path class="st1" d="M284.8520813,260.7731934L284.8520813,260.7731934c-3.5715332,0-6.4668274-2.8952637-6.4668274-6.4667969
			v-70.8273468c0-3.5715179,2.8952942-6.4668121,6.4668274-6.4668121l0,0c3.5715332,0,6.4668274,2.8952942,6.4668274,6.4668121
			v70.8273468C291.3189087,257.8779297,288.4236145,260.7731934,284.8520813,260.7731934z"/>
	</g>
	<g>
		<path class="st1" d="M309.0878906,260.7731934h-0.0000305c-3.3634949,0-6.0901489-2.7266541-6.0901489-6.0901337v-1.257019
			c0-3.3634949,2.7266541-6.0901489,6.0901489-6.0901489h0.0000305c3.3634949,0,6.0901489,2.7266541,6.0901489,6.0901489v1.257019
			C315.1780396,258.0465393,312.4513855,260.7731934,309.0878906,260.7731934z"/>
	</g>
</g>
</svg>
