<?xml version="1.0" encoding="utf-8"?>
<!-- Generator: Adobe Illustrator 27.4.1, SVG Export Plug-In . SVG Version: 6.00 Build 0)  -->
<svg version="1.1" id="Layer_1" xmlns="http://www.w3.org/2000/svg" xmlns:xlink="http://www.w3.org/1999/xlink" x="0px" y="0px"
	 viewBox="0 0 792 612" style="enable-background:new 0 0 792 612;" xml:space="preserve">
<style type="text/css">
	.st0{fill:#98B1D6;}
	.st1{fill:#7291B9;}
	.st2{fill:#FFFFFF;}
	.st3{fill:#E6E7E8;}
	.st4{fill:#6FA553;}
	.st5{fill:#3F6F2D;}
</style>
<g>
	<path class="st0" d="M263.9117432,369.9561462c0,0-27.9938202,40.501709-85.7682953,40.501709
		s-83.3858414-53.6051941-83.3858414-53.6051941s-25.0157547,45.8622131-58.3700867,0s21.4420738-60.752533,21.4420738-60.752533
		s-52.4139595-3.5736694-42.8841476-52.4139557s59.5613136-38.1192474,59.5613136-38.1192474
		s-25.6113663-50.627121,15.485939-73.8560333s66.7086716,0,66.7086716,0s-23.2289124-98.8717804,107.2103729-98.8717804
		S391.6211243,174.595047,391.6211243,174.595047s3.9211121-38.1192474,49.7833252-38.1192474
		s44.0753784,47.6490479,44.0753784,47.6490479s29.7806702-75.0472488,107.2103577-33.3543243
		s17.8684082,103.8848572,17.8684082,103.8848572s61.9437866-14.5428925,61.9437866,49.7833405
		s-67.8999023,58.3700867-67.8999023,58.3700867s-18.4639893,53.6051636-72.6647949,53.6051636
		s-81.003418-54.7963867-81.003418-54.7963867s-20.250824,86.9595032-90.5332031,86.9595032
		S263.9117432,369.9561462,263.9117432,369.9561462z"/>
	<path class="st1" d="M360.4009399,454.4096069c-58.5778809,0-88.3475342-51.7593994-98.2118835-73.3402405
		c-11.7301483,12.4249878-39.3435211,35.2200928-84.0452423,35.2200928c-47.0447845,0-73.7195587-32.7369385-83.8789368-48.5905151
		c-5.3479385,6.4539795-14.3226852,14.545929-26.1189041,15.3114014
		c-12.6357231,0.8087463-24.9114952-6.8276062-36.4753456-22.7267456
		c-11.0239334-15.158783-14.4081154-29.1146851-10.0580006-41.4758911
		c3.4035454-9.6741333,10.9726734-16.4322205,18.1784382-20.9156189
		c-7.8857899-2.8966675-16.8274994-7.8322449-23.2598362-16.2066956
		c-7.9062948-10.2926636-10.3655491-23.4534912-7.3094215-39.1157227
		c3.0754929-15.7636108,10.3758011-27.5473022,21.6993103-35.0230255
		c11.8087521-7.7958069,25.3363628-9.0544739,34.4193192-8.7822418
		c-7.3538475-21.2391205-9.3984795-54.5068512,21.7824631-72.1305542
		c28.3252869-16.0085144,50.0211716-11.6515656,62.2764511-6.1601028
		c-0.8121643-14.0925903,0.8668365-37.5688477,16.8354645-57.7235794
		c18.791275-23.7177467,51.6546173-35.7429199,97.6765289-35.7429199c38.2340698,0,69.203125,11.8076153,92.0472107,35.095932
		c27.0176392,27.5427437,36.4719238,64.6468506,39.7626953,88.6220245
		c7.7810059-10.2823944,21.5318604-20.0818329,45.6824646-20.0818329c14.8648682,0,26.8091736,4.5745239,35.5003052,13.5982361
		c6.4334717,6.6783752,10.0055847,14.7464294,11.9852905,21.8906708
		c7.2399597-10.456665,19.2001953-23.3623505,36.8899841-29.8106232c20.7288208-7.5520477,44.1663208-4.421875,69.677002,9.3141785
		c24.802124,13.3556061,38.9835815,30.2913208,42.1478882,50.3367004
		c3.2919312,20.8575439-6.2443848,39.9290161-13.9968872,51.4404755
		c10.5318604-0.1594696,24.765686,1.6915131,36.2566528,10.7983856
		c12.2564087,9.711731,18.4711914,25.2646179,18.4711914,46.2269287c0,20.0351257-6.1760864,35.8522949-18.3550415,47.0083313
		c-17.3411865,15.8877869-41.774292,17.4414673-51.5452271,17.3435059
		c-5.9003906,13.1426086-27.9619141,53.4566345-76.4977417,53.4566345c-41.653595,0-67.7724915-29.5543518-79.3317871-46.5219727
		C443.4677124,400.8891907,417.335144,454.4096069,360.4009399,454.4096069z M269.4426575,368.10672
		c0.2506104,0.7472534,25.794281,74.6387939,90.9582825,74.6387939c64.7619019,0,84.6591797-81.6304016,84.8528442-82.4551086
		c0.5626831-2.3988647,2.5765686-4.1894836,5.0255737-4.4651489c2.4558411-0.2824707,4.8114319,1.0183411,5.8935547,3.2304077
		c0.2506104,0.5080261,25.9457703,51.5270386,75.7642212,51.5270386c49.2761841,0,66.4488525-47.6564636,67.1550903-49.684021
		c0.8793335-2.5196228,3.3579712-4.1348267,6.0211182-3.900177c0.2733765,0.018219,29.1419678,2.2530823,47.0390625-14.1973877
		c9.6342773-8.8551331,14.5186157-21.7608032,14.5186157-38.362793c0-17.1908569-4.7111816-29.6557007-14.0037231-37.0471497
		c-15.8604126-12.6174927-40.5418701-7.1134949-40.7879028-7.0554199c-2.5127563,0.5718384-5.1121216-0.5592651-6.3856201-2.7998352
		c-1.2734985-2.241684-0.9317627-5.0529175,0.8520508-6.9141541c0.2369385-0.2483215,24.0662842-25.6393585,19.7264404-52.8882294
		c-2.5834351-16.2317657-14.74646-30.3049927-36.1473389-41.8278351
		c-22.4465332-12.0878296-42.6832275-14.9970093-60.1497803-8.6250458
		c-27.0438232,9.8575287-38.7603149,38.7056427-38.8764954,38.996109c-1.0479431,2.6403656-3.84552,4.1416626-6.6225586,3.5550385
		c-2.7793274-0.5854797-4.73172-3.0880127-4.6246338-5.9254456c0.0045471-0.1799774,0.4966431-19.5419159-11.2016296-31.6286011
		c-6.4038696-6.6157227-15.5027771-9.9702911-27.0461121-9.9702911c-39.8242188,0-43.8337402,31.568222-43.9841003,32.9123383
		c-0.3497009,3.0937195-3.0481567,5.3524933-6.1760559,5.1793518c-3.1073914-0.2016144-5.5096741-2.7975616-5.4538574-5.9117737
		c0.0113831-0.6424408,0.6925354-64.6685028-38.2113037-104.2694626
		c-20.5625-20.9327126-48.7123718-31.5465813-83.6670532-31.5465813c-42.2151337,0-71.9767914,10.506794-88.4591522,31.2287788
		c-20.7140198,26.0414505-13.1494446,60.1463928-13.0708466,60.486969c0.5740967,2.484314-0.5308075,5.0586243-2.7292175,6.348053
		c-2.2029572,1.2905579-4.9800262,1.0080719-6.8686066-0.7050934c-0.9078369-0.7996216-23.2621155-19.9599457-59.9219818,0.7574768
		c-35.7019157,20.1797943-14.0846176,64.286911-13.1471634,66.1549988c1.0069427,2.0047607,0.7757111,4.4138947-0.5968704,6.1885681
		c-1.3725815,1.7735443-3.6324997,2.6096191-5.8331833,2.1380463c-0.1890869-0.0364532-20.6092224-4.1587524-36.0049095,6.0575714
		c-8.5737915,5.6885223-14.162075,14.9332275-16.6099396,27.4755402
		c-2.3817978,12.2097168-0.6754704,22.2118835,5.0734234,29.7297668
		c10.7220783,14.0196838,32.279007,15.7351379,32.49543,15.7510681c2.8351479,0.2050476,5.1155701,2.4251099,5.3900871,5.2545471
		c0.2733765,2.8294678-1.5263557,5.4447632-4.2692413,6.1908569c-0.2050323,0.0558167-21.5512314,6.1008606-26.7567863,20.9862366
		c-2.9798107,8.5225525-0.1196022,18.8539124,8.5020294,30.7070923
		c9.0419502,12.4318237,17.8412743,18.4483948,26.248764,17.9494934
		c13.0400848-0.8132935,22.2005005-17.1589661,22.291626-17.322998c1.0547791-1.9136353,3.1449738-3.1164856,5.2795944-3.0185547
		c2.1847382,0.0638123,4.1541901,1.3372803,5.0962067,3.3078918c0.9852982,2.0457458,24.8374481,50.2877197,78.1232071,50.2877197
		c53.8302307,0,79.894455-36.4434509,80.9777374-37.9971619c1.2632141-1.8065491,3.4399719-2.7588196,5.6224365-2.4375916
		C266.9241638,364.5072632,268.7432861,366.0176697,269.4426575,368.10672L269.4426575,368.10672z"/>
</g>
<g>
	<g>
		<path class="st2" d="M101.957222,334.3519287h-2.348587c-4.4877014,0-8.1257019-3.6380005-8.1257019-8.1256714v-113.56427
			c0-4.4877014,3.6380005-8.1257019,8.1257019-8.1257019h22.7534561c12.0979462,0,19.6824341,2.5299988,25.2807922,8.3686829
			c6.499588,6.6173553,9.5706024,16.3493652,9.5706024,30.1674042c0,14.013382-3.0710144,23.7440643-9.5706024,30.3614044
			c-5.5983582,5.8386841-13.1828461,8.3687134-25.2807922,8.3687134h-4.1534729
			c-4.4877014,0-8.1257019,3.6380005-8.1257019,8.1257019v36.2980652
			C110.0829163,330.7139282,106.4449158,334.3519287,101.957222,334.3519287z M118.2086258,263.3137512
			c14.9877396,0,19.6824265-4.8659973,19.6824265-20.2413788c0-15.1800385-4.6946869-20.046051-19.6824265-20.046051h-0.0000076
			c-4.4877014,0-8.1257019,3.6380005-8.1257019,8.1257019v24.0360413c0,4.4876862,3.6380005,8.1256866,8.1257019,8.1256866
			H118.2086258z"/>
	</g>
	<g>
		<path class="st2" d="M264.0942078,334.3519287h-2.3485718c-4.4877014,0-8.1257019-3.6380005-8.1257019-8.1256714v-113.56427
			c0-4.4877014,3.6380005-8.1257019,8.1257019-8.1257019h22.7534485c12.0979614,0,19.6824341,2.5299988,25.2807922,8.3686829
			c6.4996033,6.6173553,9.5706177,16.3493652,9.5706177,30.1674042c0,14.013382-3.0710144,23.7440643-9.5706177,30.3614044
			c-5.5983582,5.8386841-13.1828308,8.3687134-25.2807922,8.3687134h-4.1534729
			c-4.4877014,0-8.1257019,3.6380005-8.1257019,8.1257019v36.2980652
			C272.2199097,330.7139282,268.5819092,334.3519287,264.0942078,334.3519287z M280.3456116,263.3137512
			c14.9877625,0,19.6824341-4.8659973,19.6824341-20.2413788c0-15.1800385-4.6946716-20.046051-19.6824341-20.046051l0,0
			c-4.4877014,0-8.1257019,3.6380005-8.1257019,8.1257019v24.0360413
			C272.2199097,259.6757507,275.8579102,263.3137512,280.3456116,263.3137512L280.3456116,263.3137512z"/>
	</g>
	<g>
		<path class="st2" d="M388.7937317,237.9072266c-4.6970825,1.4832611-9.6288757-0.9647827-11.5556335-5.4980469
			c-3.099823-7.2932739-7.5841675-10.9401855-13.2990723-10.9401855c-6.86203,0-12.0979614,5.6446686-12.0979614,13.2346954
			c0,4.4766693,1.8049011,9.3426819,5.0571289,13.0393677c3.068573,3.6980133,3.068573,3.6980133,15.8889771,14.2086945
			c10.1118164,8.5626831,13.905304,12.2607117,17.877533,17.5160522c4.8759155,6.4220276,7.7632751,14.9860229,7.7632751,23.7440491
			c0,19.6567383-13.3616333,33.0867615-33.0440674,33.0867615c-17.8841553,0-29.3620911-8.9606323-34.5526123-27.5187378
			c-1.3792725-4.9313354,1.2985535-10.0878296,6.181488-11.6297913l0.1227417-0.0387573
			c4.9660034-1.5682068,10.1299744,1.2463989,11.7986145,6.1795654c3.1858826,9.4186707,8.7259827,14.1283264,16.4497681,14.1283264
			c8.1257019,0,13.7240601-6.0326843,13.7240601-14.7907104c0-8.1746826-3.793457-13.4300232-17.877533-25.3013916
			c-16.7926331-14.2086792-17.5150757-14.9860229-22.0285339-21.2140503
			c-4.3346863-6.0340118-6.6832581-13.6240234-6.6832581-21.6033936c0-18.6840363,13.0016174-31.9187317,31.4203796-31.9187317
			c14.3306885,0,24.7546692,7.740799,30.7452087,22.7700195c2.0352173,5.1060333-0.6264648,10.8839569-5.8680115,12.5391693
			L388.7937317,237.9072266z"/>
	</g>
	<g>
		<path class="st2" d="M420.722229,334.3519287L420.722229,334.3519287c-5.1362305,0-9.2999878-4.1637268-9.2999878-9.2999573
			V213.8362579c0-5.1362305,4.1637573-9.2999725,9.2999878-9.2999725l0,0c5.136261,0,9.2999878,4.1637421,9.2999878,9.2999725
			v111.2157135C430.0222168,330.1882019,425.85849,334.3519287,420.722229,334.3519287z"/>
	</g>
	<g>
		<path class="st2" d="M512.9005127,274.374176v55.5346985c0,2.4538269-1.9892273,4.4430542-4.4430847,4.4430542h-1.8508911
			c-1.9481812,0-3.6691284-1.269104-4.2447205-3.1303101v-0.0000305c-0.9916382-3.2063904-5.0176392-4.1575623-7.3996887-1.7931824
			c-4.8796387,4.8434143-10.4159851,6.8702087-17.6354675,6.8702087c-11.0155029,0-20.2236328-5.6446838-24.918335-15.181366
			c-3.9747009-8.3686829-5.2383728-16.7373962-5.2383728-34.6427612v-35.812088
			c0-20.6293945,1.4449158-28.0254059,7.0432739-36.0047607c5.2359009-7.7853546,14.4465027-12.0666962,25.4595642-12.0666962
			c13.1828613,0,22.9346619,6.0326843,28.3518066,17.3207092c2.6765747,5.6028137,3.9799194,12.3894806,4.2692261,22.2982941
			c0.072876,2.4945831-1.9494934,4.5604401-4.4451599,4.5604401h-9.7454529c-2.3869019,0-4.3280029-1.9032135-4.4327393-4.2878113
			c-0.6502686-14.8068695-4.9132385-21.0135803-14.1764526-21.0135803c-4.8759155,0-9.0293884,2.3359985-11.0155029,6.6173401
			c-2.1673584,4.2813568-2.7085571,8.1746826-2.7085571,18.6840515v39.7041016
			c0,10.7033691,0.5411987,16.348053,1.9861145,21.2140503c1.9861145,6.0326843,6.6808167,9.7306824,12.6391602,9.7306824
			c9.7518311,0,13.905304-7.5899963,13.905304-25.6907043v-0.8109436c0-2.4538574-1.9892273-4.4430847-4.4430847-4.4430847
			h-6.4615784c-2.4538574,0-4.4430847-1.9892273-4.4430847-4.4430847v-7.6572266
			c0-2.4538269,1.9892273-4.4430542,4.4430847-4.4430542h25.061554
			C510.9112854,269.9311218,512.9005127,271.9203491,512.9005127,274.374176z"/>
	</g>
	<g>
		<path class="st2" d="M587.288208,334.3519287h-1.6381226c-3.6850586,0-6.9842529-2.283844-8.2816162-5.7329407
			l-20.0733643-53.3639526c-2.0793457-5.527771-10.2754517-4.0372314-10.2754517,1.8686829v48.3800659
			c0,4.8867188-3.9614258,8.8481445-8.8481445,8.8481445l0,0c-4.8867188,0-8.8481445-3.9614258-8.8481445-8.8481445V213.3844299
			c0-4.8867035,3.9614258-8.8481445,8.8481445-8.8481445h3.8046265c3.6866455,0,6.9869385,2.2858887,8.2832031,5.7371521
			l18.5175781,49.3042603c1.953064,5.2002563,9.663147,3.8001404,9.663147-1.7547913v-44.4384766
			c0-4.8867035,3.9614258-8.8481445,8.8481445-8.8481445l0,0c4.8867188,0,8.8481445,3.961441,8.8481445,8.8481445v112.1193542
			C596.1363525,330.3905029,592.1749268,334.3519287,587.288208,334.3519287z"/>
	</g>
</g>
<g>
	<g>
		<path class="st1" d="M680.1772461,214.1647186l-2.0110474,10.8023682c-0.439209,2.359314-2.4980469,4.0701904-4.8978882,4.0701904
			h-3.0258789c-3.1280518,0-5.4822388-2.8489532-4.8927612-5.9209595l13.958313-72.7362213
			c0.9443359-4.9208832,5.2493896-8.478363,10.2600708-8.478363h1.2432861c4.9710083,0,9.2536011,3.5026855,10.2396851,8.3749237
			l14.7318726,72.7903442c0.6245117,3.0859833-1.7344971,5.9702759-4.8830566,5.9702759h-3.6433716
			c-2.387207,0-4.4389038-1.6933441-4.8916016-4.0372314l-2.0991821-10.8682861
			c-0.4526978-2.3438873-2.5043945-4.0372314-4.8916016-4.0372314h-10.2989502
			C682.675293,210.0945282,680.6165161,211.8054199,680.1772461,214.1647186z M689.0740967,164.1911469l-5.6619873,31.3568573
			c-0.2009888,1.1128693,0.6542358,2.1363373,1.7850952,2.1363373h9.8894043c1.1333008,0,1.9890747-1.0275879,1.7840576-2.1421814
			l-5.7675781-31.3543243C690.8955688,163.0597687,689.2778931,163.0624237,689.0740967,164.1911469z"/>
	</g>
	<g>
		<path class="st1" d="M732.7285767,229.0372772L732.7285767,229.0372772c-3.4990234,0-6.3355103-2.8365021-6.3355103-6.3355103
			v-1.307663c0-3.4990082,2.8364868-6.3355103,6.3355103-6.3355103l0,0c3.4990234,0,6.3355103,2.8365021,6.3355103,6.3355103
			v1.307663C739.0640869,226.2007751,736.2276001,229.0372772,732.7285767,229.0372772z"/>
	</g>
	<g>
		<path class="st1" d="M757.4191284,229.0372772h-0.000061c-3.7153931,0-6.727356-3.0119324-6.727356-6.7273407v-73.6808472
			c0-3.7154083,3.0119629-6.727356,6.727356-6.727356h0.000061c3.7153931,0,6.7272949,3.0119476,6.7272949,6.727356v73.6808472
			C764.1464233,226.0253448,761.1345215,229.0372772,757.4191284,229.0372772z"/>
	</g>
	<g>
		<path class="st1" d="M782.6312866,229.0372772L782.6312866,229.0372772c-3.4990234,0-6.3355103-2.8365021-6.3355103-6.3355103
			v-1.307663c0-3.4990082,2.8364868-6.3355103,6.3355103-6.3355103l0,0c3.4990234,0,6.3355103,2.8365021,6.3355103,6.3355103
			v1.307663C788.9667969,226.2007751,786.1303101,229.0372772,782.6312866,229.0372772z"/>
	</g>
</g>
<g>
	<path class="st3" d="M374.8557434,584.9927368c-4.0015564,0-8.0372925-0.6629028-12.1003418-2.1027222
		c-28.1100159-9.9554443-22.3360596-61.7467651-16.7511902-111.8317261
		c3.6393433-32.6343994,7.7627563-69.6246033-1.1652832-79.0903015c-0.9670715-1.0274353-2.4934082-2.1573792-5.6964722-2.013855
		c-16.9026794,0.8907471-29.5463867,33.1082458-41.7743225,64.2663879
		c-12.8293457,32.6913452-26.0961304,66.4967041-48.0699463,75.6730957
		c-8.3687592,3.4901123-17.3810883,3.2167358-26.7841187-0.8269653
		c-64.2242737-27.5906067-31.4349518-141.7620239-30.0065613-146.6076355
		c0.9101105-3.0891418,4.1519165-4.852417,7.2399292-3.947998c3.0891724,0.9089661,4.8570099,4.1507568,3.949173,7.2399292
		c-0.3200836,1.0889587-31.3347168,109.0751953,23.4215851,132.5992737
		c6.484726,2.7839355,12.2677917,3.0368042,17.6852112,0.7791748c17.4152832-7.2718506,29.7650757-38.7398376,41.7070923-69.1712646
		c14.2019653-36.1860352,27.6156616-70.3672791,52.0191345-71.6498718
		c5.9151917-0.3303223,11.0125427,1.6470947,14.7942505,5.6566162c12.6345825,13.393219,8.7594604,48.1462708,4.272644,88.3851013
		c-4.604126,41.2913208-10.3336487,92.6794434,9.0522156,99.5457153
		c34.2609863,12.1311035,74.3585815-57.7622681,86.9248047-85.7150879c1.3190613-2.936554,4.7658691-4.2532959,7.7092285-2.929718
		c2.9388123,1.3190613,4.2487488,4.7704468,2.929718,7.709259
		C462.3512268,495.1063538,421.4016113,584.9927368,374.8557434,584.9927368z"/>
</g>
<g>
	<g>
		<g>
			<path class="st4" d="M203.0280151,183.2608948c29.0458984,0,55.9793701,32.467392,45.945343,85.5729675
				c-10.0340424,53.1055908-45.945343,82.5527649-45.945343,82.5527649s-35.9113159-29.4471741-45.9453583-82.5527649
				C147.0486298,215.7282867,173.9821014,183.2608948,203.0280151,183.2608948z"/>
		</g>
		<g>
			<path class="st5" d="M203.0279694,357.2194824c-1.3110657,0-2.6232758-0.4396667-3.6974335-1.3213196
				c-1.534317-1.2575378-37.6702271-31.4201355-47.9788208-85.9805298
				c-5.6395416-29.8459473-0.6356049-56.0673676,14.0880432-73.8334656
				c9.9702911-12.0308685,23.3190613-18.6557159,37.5882111-18.6557159s27.6179199,6.6248474,37.5882111,18.6557159
				c14.7236481,17.766098,19.7275696,43.9875183,14.0880432,73.8334656
				c-10.3085938,54.5603943-46.4445038,84.7229919-47.9788361,85.9805298
				C205.6512451,356.7798157,204.339035,357.2194824,203.0279694,357.2194824z M203.0279694,189.0925446
				c-10.7334747,0-20.8928528,5.125824-28.6066437,14.4343109c-12.2882996,14.8261566-16.5188141,38.2352142-11.6082764,64.2242737
				c7.6454468,40.4655151,31.0659027,66.7484436,40.2069397,75.708374
				c9.1342163-8.9849854,32.6025085-35.3761292,40.2229004-75.708374
				c4.9105377-25.9890594,0.6800232-49.3981171-11.6082764-64.2242737
				C223.9208221,194.2183685,213.7614441,189.0925446,203.0279694,189.0925446z"/>
		</g>
	</g>
	<g>
		<g>
			<path class="st4" d="M203.0280151,351.3866272c0,0-17.1017456,8.557312-18.8635559,24.1618042
				c-1.761795,15.6044922,8.8089905,17.1145935,12.5842743,3.0202332c0,0-1.2584381,14.8494263,9.0606689,14.5977478
				c10.3190918-0.251709,4.0269623-17.617981,4.0269623-17.617981s7.2988739,12.8359375,11.0741425,5.5370789
				C224.685791,373.7866211,218.3679657,367.6767578,203.0280151,351.3866272z"/>
		</g>
		<g>
			<path class="st5" d="M205.5510101,399.0006104c-3.9149933,0-7.320816-1.4215393-9.8700562-4.1279907
				c-0.6242065-0.6629333-1.1686859-1.3782654-1.6436768-2.1254883c-2.305481,1.2825928-4.6804352,1.5718994-6.72052,1.1823425
				c-5.0119171-0.9476929-10.3621368-6.5018311-8.947403-19.0338745
				c2.0924683-18.537262,21.2357025-28.3173218,22.048996-28.7228394c2.305481-1.1572876,5.0905151-0.6606445,6.8549347,1.2165527
				l2.201828,2.335083c14.7179413,15.5984497,22.1048126,23.4284058,16.6156311,34.0400085
				c-2.3817902,4.6064148-5.9835358,5.3581848-7.9188232,5.3969116c-0.3041229,0.0045776-0.6128235-0.0022583-0.9135284-0.0318909
				c-0.3383026,1.8111267-0.9693604,3.5493469-2.0116119,5.0734253c-2.0469055,2.9957581-5.3479309,4.6975403-9.2959595,4.7932129
				C205.8175507,399.0006104,205.6831512,399.0006104,205.5510101,399.0006104z M196.7437134,372.7359009
				c0.3326111,0,0.6697693,0.0273438,1.0092163,0.0865784c2.9752502,0.521698,5.062027,3.2281189,4.8068848,6.2375488
				c-0.1799774,2.3601685,0.2813416,6.4129944,1.6186218,7.8208618c0.1685791,0.1799927,0.4351196,0.4510803,1.4887543,0.4556274
				c0.0250702-0.0022583,0.0489807-0.0022583,0.0706329-0.0022583c0.5228271-1.6243286-0.1070709-6.2261658-1.3885345-9.8096924
				c-1.0194702-2.8476868,0.3064117-6.0074463,3.0561371-7.2695618c1.6311493-0.75177,3.4445496-0.6856995,4.9606476,0.0410156
				c-2.2621918-2.80896-5.6418152-6.4790344-10.3211212-11.4499512
				c-4.3375854,3.0527344-11.1515045,9.0875244-12.0844116,17.3571777c-0.20047,1.7723999-0.1890869,3.1711731-0.0842896,4.2304993
				c0.4169006-0.8360596,0.8543091-1.940979,1.2381744-3.3739319
				C191.8069763,374.4741516,194.1489105,372.7359009,196.7437134,372.7359009z M206.0351105,387.2955322L206.0351105,387.2955322
				L206.0351105,387.2955322z"/>
		</g>
	</g>
	<g>
		<g>
			<path class="st2" d="M232.6836853,261.7675781c-0.1583252,0-0.3166504-0.0057068-0.47612-0.0193481
				c-3.2110443-0.2585754-5.6031036-3.0720825-5.3433838-6.2819977c1.8942719-23.4591675-3.0105743-33.7837067-7.4586487-38.313797
				c-4.2772064-4.3558197-8.9485474-4.1143341-9.1535797-4.1074982c-3.1552277,0.2016144-5.9766998-2.1767578-6.2341309-5.3433838
				c-0.257431-3.1688995,2.0127411-5.9550629,5.1759338-6.2717285c1.0080872-0.0990906,10.0773773-0.7529144,18.1681976,7.1841278
				c9.2150879,9.0419464,12.9592133,25.1210785,11.1275787,47.7908936
				C238.2434998,259.4552612,235.6908417,261.7675781,232.6836853,261.7675781z"/>
		</g>
	</g>
	<g>
		<g>
			<g>
				<path class="st2" d="M231.0618134,275.8404541c7.5052948,0,7.5177307-11.664093,0-11.664093
					C223.5565338,264.1763611,223.5440979,275.8404541,231.0618134,275.8404541L231.0618134,275.8404541z"/>
			</g>
		</g>
	</g>
</g>
</svg>
