<?xml version="1.0" encoding="utf-8"?>
<!-- Generator: Adobe Illustrator 28.0.0, SVG Export Plug-In . SVG Version: 6.00 Build 0)  -->
<svg version="1.1" id="Layer_1" xmlns="http://www.w3.org/2000/svg" xmlns:xlink="http://www.w3.org/1999/xlink" x="0px" y="0px"
	 viewBox="0 0 595.28 841.89" style="enable-background:new 0 0 595.28 841.89;" xml:space="preserve">
<style type="text/css">
	.st0{fill:#EED178;}
	.st1{fill:#FEE797;}
	.st2{fill:#FFD337;}
	.st3{fill:#FFCE2D;}
	.st4{fill:#FFCA23;}
	.st5{fill:#EF8124;}
	.st6{fill:#EF9923;}
	.st7{fill:#EF9229;}
	.st8{fill:#E9722A;}
	.st9{fill:#DE7626;}
	.st10{fill:#EF7F24;}
	.st11{fill:#EC7326;}
	.st12{fill:#F3A626;}
	.st13{fill:#F9D013;}
	.st14{fill:#F8CF13;}
	.st15{fill:#E36D25;}
	.st16{fill:#F8CF15;}
	.st17{fill:#E58125;}
	.st18{fill:#F7CE16;}
	.st19{fill:#E57124;}
	.st20{fill:#F68920;}
	.st21{fill:#BC6B29;}
	.st22{fill:#F7D732;}
	.st23{fill:#C67629;}
	.st24{fill:#FBE248;}
	.st25{fill:#F7E558;}
	.st26{fill:#F27022;}
	.st27{fill:#B25C27;}
	.st28{fill:#FCE057;}
	.st29{fill:#F6D53E;}
	.st30{fill:#F1E463;}
	.st31{fill:#F48521;}
	.st32{fill:#F6981E;}
	.st33{fill:#BF772A;}
	.st34{fill:#F9DA3C;}
	.st35{fill:#FAD63D;}
	.st36{fill:#B85C27;}
	.st37{fill:#FADB46;}
	.st38{fill:#F27122;}
	.st39{fill:#AB5325;}
	.st40{fill:#F7D33C;}
	.st41{fill:#FBE344;}
	.st42{fill:#F7E052;}
	.st43{fill:#F6E358;}
	.st44{fill:#F7941F;}
	.st45{fill:#F7CD18;}
	.st46{fill:#AD5326;}
	.st47{fill:#F58F20;}
	.st48{fill:#F7CF18;}
	.st49{fill:#FBE043;}
	.st50{fill:#A36226;}
</style>
<path class="st0" d="M675.75,731.18c-8.11-6.38-16.84-11.58-21.81-23.41c-2.17-5.15-4.2-10.19-4.44-16.22
	c0.64,0.01,1.28,0.01,1.92,0.02c0.94,1.51,1.88,3.02,2.82,4.53c0.86,11.6,7.33,17.53,13.34,23.92c5.49,4.37,11.42,6.76,17.79,6.76
	c64.51,0.05,129.01,0.13,193.52-0.01c13.27-0.03,24.44-11.76,27.83-28.14c3.2-2.82,2.93-7.29,3.03-11.58
	c1.59,0.03,3.18,0.05,4.77,0.08c0,2.2,0,4.4,0,6.61c-4.69,1.94-3.25,8.49-5.11,12.63c-5.74,12.76-14.57,19.5-24.33,24.81
	C815.31,731.18,745.53,731.18,675.75,731.18z"/>
<path class="st1" d="M914.53,687.14c-1.59-0.03-3.18-0.05-4.77-0.08c1.83-4.13,1.76-8.57,1.22-13.1c-0.05-0.84-0.11-1.69-0.16-2.53
	c0.28-1.69-0.16-2.96-1.23-3.87c-3.58-20.88-20.38-33.57-34.01-33.47c-61.15,0.42-122.31,0.3-183.47,0.06
	c-8.81-0.03-17.3,0.93-25.46,5.57c-0.31-0.44-0.62-0.88-0.93-1.31c5.38-6.41,11.95-8.44,18.81-8.45
	c64.44-0.11,128.88-0.14,193.33-0.01c15.32,0.03,28.88,13.46,34.33,32.91c0.64,2.27,0.24,5.3,2.33,6.67
	C914.53,675.39,914.53,681.26,914.53,687.14z"/>
<path class="st1" d="M651.43,691.58c-0.64-0.01-1.28-0.01-1.92-0.02c-5.75-16.66,3.94-46.84,16.23-53.15
	c0.31,0.44,0.62,0.87,0.92,1.3C655.86,653.95,648.42,669.99,651.43,691.58z"/>
<path class="st2" d="M651.43,691.58c-3-21.59,4.43-37.63,15.23-51.87c8.16-4.63,16.65-5.6,25.46-5.56
	c61.16,0.24,122.31,0.37,183.47-0.06c13.63-0.09,30.43,12.59,34.01,33.47c0.41,1.29,0.82,2.58,1.23,3.88
	c0.05,0.84,0.11,1.69,0.16,2.53c-23.5,1.71-46.98,3.77-70.45,6.27c-29.96,3.19-60.04,3.82-90.05,6.52
	c-22.42,2.01-44.84,4.57-67.35,5.55c-9.45,0.41-19.59-1.46-28.89,3.81C653.31,694.6,652.37,693.09,651.43,691.58z"/>
<path class="st3" d="M654.25,696.11c9.3-5.27,19.44-3.4,28.89-3.81c22.51-0.98,44.93-3.54,67.35-5.55
	c30.01-2.69,60.09-3.33,90.05-6.52c23.47-2.5,46.95-4.56,70.45-6.27c0.54,4.53,0.61,8.97-1.22,13.1c-0.1,4.29,0.17,8.76-3.04,11.58
	c-2.25-3.91-5.49-2.83-8.35-2.61c-14.05,1.07-28.09,2.97-42.11,3.99c-35.17,2.56-70.28,6.88-105.45,8.7
	c-25.4,1.32-50.67,6.24-76.16,4.85c-3.51-0.19-6.68,0.4-7.07,6.45C661.57,713.64,655.11,707.71,654.25,696.11z"/>
<path class="st4" d="M667.59,720.03c0.39-6.05,3.56-6.64,7.07-6.45c25.48,1.39,50.75-3.53,76.16-4.85
	c35.17-1.83,70.28-6.14,105.45-8.7c14.03-1.02,28.06-2.92,42.11-3.99c2.85-0.22,6.1-1.3,8.35,2.61
	c-3.39,16.39-14.56,28.11-27.83,28.14c-64.51,0.14-129.01,0.06-193.52,0.01C679.01,726.78,673.08,724.39,667.59,720.03z"/>
<path class="st3" d="M910.82,671.43c-0.41-1.29-0.82-2.59-1.23-3.88C910.65,668.47,911.09,669.74,910.82,671.43z"/>
<g>
	<path class="st5" d="M719.68,657.85c3.89,2.08,6.33,5.8,9.75,9.81c-0.02-4.34,0.59-7.54,1.67-10.63c6.12-4.15,12.67-3.07,19.24-1.6
		c0.06,1.13-0.4,1.95-1.39,2.47c-2.95,1.16-6.04,0.61-9.07,0.74c-5.08,0.21-6.23,1.13-6.24,6.26c-0.01,9.6-0.59,19.21,0.44,28.8
		c0.08,0.7,0.06,1.41-0.05,2.11c-0.24,1.01-0.61,1.93-1.69,2.3c-3.26-0.46-3-3.15-3.34-5.45c0.15-1.63,0.27-3.27-0.53-4.79
		c-2.18,2.12-2.63,6.98-7.48,4.82c-0.34-1.61,0.72-2.64,1.5-3.77c7.1-10.37,5.23-21.11-4.93-28.27c-1-0.7-2.31-1.11-2.43-2.65
		C716.58,655.56,718.16,657.81,719.68,657.85z"/>
	<path class="st6" d="M749.49,657c0.28-0.52,0.57-1.05,0.85-1.57c3.7,0.7,3.71,4.56,5.63,6.78c0.41,0.25,0.73,0.59,0.98,1
		c0.74,4.28,0.57,8.62,0.71,12.94c0.16,4.98,0.17,5,5.23,5.05c1.32-0.12,2.38,0.45,3.31,1.32c2.19,0.04,4.38,0.08,6.57,0.12
		c0.95,0.13,1.91,0.45,2.83,0.35c4.38-0.47,6.87,1.97,8.66,5.6c0.52,0.28,0.59,0.64,0.2,1.1c-0.77,0.84-1.61,0.93-2.53,0.26
		c-2.46-2.25-5.25-3.15-8.64-3.21c-5.38-0.1-10.76,0.02-16.13-0.22c-4.47-0.2-5.56-1.35-5.79-5.86c-0.14-2.8-0.03-5.61-0.05-8.42
		C751.3,667.08,751.84,661.86,749.49,657z"/>
	<path class="st7" d="M797.44,668.06c2.58-7.14,7.1-12.23,14.54-14.23c5.2-0.56,10.28-0.37,14.95,2.45
		c1.46,1.33,3.29,2.27,4.22,4.16c0.59,0.76,0.56,1.6,0.27,2.46c-1.59,0.96-2.57-0.3-3.63-1.09c-9.47-7.17-18.77-5.65-25.62,4.21
		c-0.48,0.69-0.95,1.38-1.63,1.89C799.53,668.46,798.52,668.93,797.44,668.06z"/>
	<path class="st8" d="M719.68,657.85c-1.46,0.39-2.94-0.85-4.39,0.09c-1.06,1.01-2.23,0.67-3.4,0.27c-2.27-1.37-4.64-1.08-7.17-0.91
		c-6.19,0.43-12.41,0.12-18.62,0.16c-1.79,0.01-3.6-0.13-5.3,0.62c-2.6,0.85-4.4,2.53-5.28,5.2c-0.68,1.76-0.6,3.59-0.6,5.42
		c0,10.26,0.06,20.53-0.05,30.79c-0.02,1.78,0.8,4.1-1.81,5c-0.87-1.17-1.23-2.52-1.22-3.94c0.09-13.33-0.38-26.66,0.3-39.98
		c0.47-3.12,2.84-4.57,5.15-6.08c11.74-0.48,23.47-1.68,35.21-0.04C714.99,655.36,717.71,655.79,719.68,657.85z"/>
	<path class="st9" d="M673.06,704.49c1.02-1.39,0.6-2.99,0.61-4.51c0.03-11.42,0-22.85,0.04-34.27c0-1.5-0.47-3.14,0.84-4.4
		c1.89,1.76,1.52,4.13,1.54,6.32c0.09,10.13-0.04,20.26,0.07,30.4c0.06,5.72,0.89,6.37,6.6,6.62c3.37,0.15,6.95-0.93,10.04,1.42
		c0.37,1.47-0.69,1.76-1.64,1.77c-3.99,0.01-7.97,0.42-11.96,0.21c-1.48-0.35-2.95-0.71-4.43-1.06
		C674.2,706.15,673.63,705.32,673.06,704.49z"/>
	<path class="st10" d="M831.06,663.11c0.03-0.89,0.05-1.79,0.08-2.68c1.13,1.31,2.11,2.03,3.3-0.08c1.18-2.09,2.37-4.3,4.92-5.07
		c5.49-0.72,11.01-0.19,16.51-0.29c0.77-0.02,1.28,0.4,1.49,1.16c-0.51,2.51-2.6,2.16-4.28,2.27c-3.17,0.22-6.36-0.07-9.54,0.15
		c-4.7,0.33-6.14,3.5-3.24,7.54c2.85,3.98,6.22,7.62,9.76,10.89c5.28,4.88,7.63,10.44,6.69,17.59c-0.42,3.2,0.6,6.45-0.15,9.65
		c-0.44,0.65-1.1,0.94-1.76,0.54c-4.45-2.65-6-9.1-3.12-13.37c1.02-1.52,1.88-3.22,0.7-4.6c-3.27-3.82-5.96-8.42-11.16-9.97
		c0.03,1.69,0.03,1.69,1.74,4.81c1.83,4.39,3.93,8.67,5.78,13.05c-0.18,3.66,2.39,7.73-1.54,10.84c-0.76,0.18-1.26-0.18-1.63-0.82
		c0.49-7.7-3.83-13.89-6.49-20.54c-2.33-5.83-5.05-11.53-7.79-17.2C830.73,665.76,829.94,664.5,831.06,663.11z"/>
	<path class="st11" d="M856.99,657.07c-0.47-2.22-2.24-1.65-3.65-1.67c-4.66-0.08-9.32-0.08-13.98-0.11
		c0.07-0.28,0.14-0.57,0.2-0.85c2.91-0.04,5.88,0.28,8.72-0.2c6.63-1.14,11.73,1.25,15.92,6.27c1,0.94,1.85,1.48,2.86-0.14
		c1.54-2.47,3.79-4.23,6.2-5.79c0,0,0.22,0.06,0.21,0.06c4.69-0.13,9.38-0.28,14.08-0.39c4.11-0.1,7.47,1.25,9.4,5.24
		c1.02,5.95-0.13,8.79-4.68,11.57c-0.72-0.01-1.24-0.34-1.53-1.02c-0.32-1.87,0.95-3.16,1.67-4.65c1.76-3.68,0.32-6.49-3.73-6.85
		c-3.59-0.32-7.21-0.17-10.82-0.04c-2.1,0.07-3.66,1.17-4.95,2.75c-1.15,1.41-2.25,2.86-3.58,4.12c-2.08,1.96-4.19,2.14-6.24,0.09
		C860.63,662.98,857.99,660.63,856.99,657.07z"/>
	<path class="st12" d="M797.44,668.06c0.94-0.29,1.87-0.58,2.81-0.86c1.15,1.89,0.12,3.55-0.66,5.14
		c-4.01,8.18-7.13,16.76-10.74,25.12c-0.55,1.26-0.82,2.75-2.47,3.1c-1.57-0.7-2.96-1.67-4.14-2.95c-0.53-2.55-2.24-5.19,0.58-7.46
		c0.45-0.29,0.89-0.58,1.34-0.87c2.22,3.98,2.65,0.12,3.74-0.88C791.83,681.98,793.94,674.68,797.44,668.06z"/>
	<path class="st13" d="M782.82,690.14c0.01,2.54,0.01,5.09,0.02,7.63c2.04,4.59-0.14,9.52-4.91,9.55
		c-11.56,0.08-23.18,1.28-34.69-0.74c-5.21-0.91-9.49-5.52-10.35-10.55c-1.66-10.93-0.67-21.94-0.8-32.91
		c-0.05-4.37,1.91-6.02,6.17-6.07c3.74-0.04,7.48-0.03,11.22-0.04c2.72,1.56,3.54,3.93,3.44,7.06c-0.19,5.77,0.1,11.55-0.09,17.32
		c-0.1,3.04,1.04,3.86,3.86,3.79c6.75-0.16,13.5-0.16,20.25,0.02C779.96,685.26,781.95,687.14,782.82,690.14z"/>
	<path class="st14" d="M692.84,706.12c-4.28,0.06-8.56,0.2-12.83,0.14c-3.61-0.05-5.62-1.92-5.6-5.76
		c0.05-13.06,0.1-26.13,0.15-39.19c1.37-1.78,2.84-3.42,4.97-4.28c7.29-0.86,14.61-0.31,21.92-0.33c3.78-0.01,7.66-1.29,11.36,0.55
		c0.66,0.87,1.61,0.63,2.49,0.69c11.97,5.93,14.39,15.43,11.69,25.65c-0.98,3.7-3.73,6.17-5.91,9.04c-3.11,4.91-8.32,4.78-13.11,5.5
		c-2.3,0.35-4.67,0.04-7.01,0.13c-2.46,0.1-4.15,0.84-4.68,3.63C695.91,703.8,695.19,705.74,692.84,706.12z"/>
	<path class="st6" d="M732.89,696.03c3.32,7.16,9.06,10.23,16.64,10.23c8.19,0,16.38,0.02,24.57,0.03c7.1,0.01,8.52-1.37,8.74-8.51
		c1.79-0.08,3.5-0.04,3.33,2.54c4.75,6.2,11.37,4.34,17.57,4.17c1.5-0.04,2.52-1.13,3.22-2.4c1.3-2.37,3.36-3.19,5.88-3.23
		c2.77-0.04,5.54-0.18,8.29,0.08c1.6,0.15,3.46,0.16,3.74,2.48c-1.21,2.23-3.34,1.11-5.08,1.45c-3.39,0.66-7.01-1.39-10.25,0.91
		c-1.54,3.71-4.43,5.17-8.22,5.16c-2.49,0-4.98,0.03-7.46,0.04c-5.34,0.02-6.08-0.3-9.91-4.2c-1.98,3.49-5.1,4.27-8.82,4.2
		c-9.12-0.19-18.26,0.13-27.36-0.3c-7.19-0.34-12.97-3.58-15.93-10.76C732.19,697.29,732.54,696.66,732.89,696.03z"/>
	<path class="st15" d="M692.84,706.12c1.25-1.69,2.47-3.5,2.34-5.68c-0.2-3.12,1.3-3.76,3.99-3.65c7.6,0.33,15.16,0.23,21.92-4.16
		c4.83-0.07,5.28-4.43,7.18-7.65c1.98,2.04,2.34,4.45,2.01,7.09c-0.62-0.72-0.66-2.78-2.32-0.76c-1.56,1.9-3.42,3.55-5.15,5.31
		c-5.52,3.2-11.54,3.29-17.63,3.01c-2.61-0.12-4.78-0.18-4.99,3.66c-0.15,2.72-1.96,4.45-5.14,4.98
		c-5.35,0.89-10.57,1.23-15.83-0.23C683.59,706.27,688.49,708.25,692.84,706.12z"/>
	<path class="st16" d="M824.59,701.97c-0.44-1.95-1.99-1.61-3.32-1.63c-2.34-0.03-4.69-0.01-7.03,0.01c-2.65,0.02-5.75-0.8-6.24,3.4
		c-0.04,0.34-0.5,0.65-0.8,0.94c-2.41,2.43-16.92,2.29-19.35-0.18c-1.14-1.16-1.37-2.69-1.68-4.2c4.69-11.04,9.38-22.08,14.07-33.12
		c5.35-12.36,19.52-15.16,28.94-5.73c0.59,0.59,1.25,1.1,1.88,1.65c2.32,5.15,4.67,10.28,6.96,15.44
		c2.77,6.24,5.42,12.54,8.29,18.74c1.19,2.57,0.53,4.89-0.13,7.32c-0.12,0.25-0.2,0.56-0.39,0.74c-2.9,2.73-16.86,3.23-19.78,0.72
		C824.76,704.99,824.1,703.68,824.59,701.97z"/>
	<path class="st17" d="M824.59,701.97c1.29,3.29,3.66,4.68,7.11,4.32c4.83-0.5,9.93,1.37,14.48-1.68c0.21,0.27,0.41,0.53,0.62,0.8
		c0.64,1.07-0.1,1.37-0.89,1.65c-6.14,3.08-12.7,1.8-19.11,1.79c-1,0-2.45-0.55-2.92-1.33c-3.63-6.06-9.21-3.92-14.34-3.74
		c0.41-1.04,0.88-2.68,2.01-2.31C815.9,702.89,820.3,700.81,824.59,701.97z"/>
	<path class="st5" d="M712.8,657.25c-11.09-0.07-22.19-0.14-33.28-0.22c1.27-1.26,2.87-0.74,4.35-0.82
		c7.86-0.39,15.75,0.68,23.62-0.65C709.24,655.28,711.33,655.72,712.8,657.25z"/>
	<path class="st18" d="M856.99,657.07c3.04,1.86,4.61,5.16,7.09,7.59c1.77,1.74,3.17,1.9,4.24-0.15c4.65-8.94,12.76-7.66,20.57-7.54
		c2.47,0.04,4.31,0.89,5.4,3.13c1.1,2.24,0.77,4.3-0.84,6.24c-0.88,1.06-1.52,2.33-2.27,3.5c-3.25,4.75-7.33,8.75-11.21,12.93
		c-1.73,1.87-2.71,3.77-2.59,6.36c0.17,3.79-0.15,7.58-0.36,11.37c-0.19,3.6-1.78,5.84-5.24,6.57c-4.1,0.87-8.26,0.49-12.39,0.28
		c-1.58-0.08-2.88-0.98-3.19-2.81c-1.76-5.36-0.64-10.9-0.91-16.35c-0.11-2.2-0.51-3.86-2.17-5.56c-4.75-4.88-9.2-10.06-13.73-15.15
		c-1.86-2.09-2.93-4.41-1.78-7.29c1.23-3.11,3.78-3.26,6.53-3.2C848.42,657.08,852.7,657.05,856.99,657.07z"/>
	<path class="st19" d="M856.2,704.54c5.45,3.18,11.24,1.95,16.9,1.07c2.24-0.35,3.38-2.73,3.04-4.95c-1.63-10.67,1.72-19.19,10-25.9
		c1.8-1.46,2.9-3.75,5.04-4.92c0.21,0.24,0.43,0.48,0.64,0.73c-3.77,4.32-7.46,8.71-11.34,12.92c-1.54,1.67-2.25,3.38-2.2,5.66
		c0.07,3.67-0.13,7.34-0.14,11.01c-0.02,4.13-2.22,6.63-5.85,7.8c-5.54,1.78-11.28,1.07-16.93,0.74c-2.38-0.14-3.68-2.3-4.97-4.17
		c-0.68-5.7,0.62-11.51-0.85-17.18c-3.64-0.98-4.79-4.69-7.31-6.9c-0.8-1.51-2.06-2.8-2.12-4.66c1.5-0.41,2.66-0.19,4.15,0.72
		c3.74,2.29,6.07,5.96,9.11,8.9c1.84,1.77,1.96,4.51-0.28,6.66c-2.82,2.71-2.87,5.29,0.32,7.48
		C855.34,700.89,853.19,704.15,856.2,704.54z"/>
	<path class="st20" d="M737.64,690.87c0.09-9.55,0.19-19.1,0.28-28.65c2.58-1.04,5.25-0.26,7.87-0.44c2,0.88,1.49,2.69,1.65,4.33
		c0.65,6.67-0.1,13.4,0.85,20.06c0.11,1.03,0.23,2.05,0.34,3.08c1.22,1.54,3.44,0.27,4.7,1.72c2.76,5.69,2.71,6.95-0.39,9.96
		c-3.43,0.69-6.77-0.02-10.11-0.71c-3.07-1.14-3.39-4.38-4.93-6.68C737.23,692.7,737.28,691.8,737.64,690.87z"/>
	<path class="st21" d="M742.83,700.22c3.35,0,6.7,0.01,10.06,0.01c2.62-1.73,5.56-1.49,8.47-1.49c1.25,0,2.5,0.02,3.75,0
		c2.77-0.04,5.64,0.46,8.29-0.3c3.58-1.02,1.12-5.21,3.15-7.19c0.4-0.47,0.8-0.46,1.2,0.01c0.23,10.58,0.23,10.58-10.26,10.61
		c-5.82,0.01-11.64-0.04-17.46,0C747.49,701.88,745.07,701.48,742.83,700.22z"/>
	<path class="st22" d="M777.75,691.26l-0.36-0.03l-0.36,0.06c-1.27,0.96-2.73,1.31-4.28,1.33c-5.11,0.07-10.21,0.07-15.32,0
		c-1.68-0.02-3.31-0.31-4.61-1.54c-1.39-0.63-3.76,1.06-4.19-1.84c8.45,0.28,16.9-1.05,25.34,0.04
		C775.46,689.48,777.5,688.61,777.75,691.26z"/>
	<path class="st23" d="M748.29,686.17c-0.18,0.37-0.29,0.99-0.56,1.07c-1.33,0.43-0.67-0.76-0.68-1.12
		c-0.06-6.29-0.03-12.57-0.06-18.86c-0.01-1.65,0.3-3.38-0.77-4.86c0.14-0.65,0.41-0.71,0.82-0.19c2.35,3.07,0.81,6.72,1.27,10.06
		C748.93,676.82,748.35,681.53,748.29,686.17z"/>
	<path class="st24" d="M737.64,690.87c0.09,0.89,0.17,1.78,0.26,2.66c-1.65-0.7-1.63-2.36-1.65-3.67c-0.1-8.55-0.05-17.1,0.77-25.67
		c0,6.55-0.07,13.11,0.04,19.66C737.1,686.19,736.4,688.63,737.64,690.87z"/>
	<path class="st25" d="M747.04,662.21c-0.27,0.06-0.55,0.13-0.82,0.19c-2.76-0.06-5.53-0.12-8.29-0.18
		C740.96,660.55,744,660.89,747.04,662.21z"/>
	<path class="st26" d="M721.3,670.59c0.25,1.16,0.5,2.32,0.75,3.48c1.39,9.48-3.35,16.08-12.57,17.13
		c-5.37,0.61-10.79,0.21-16.18,0.16c-2.37-0.02-3.44,0.42-3.44,3.2c0,6.8-0.15,6.8-6.83,6.6c-1.36-0.04-2.81,0.2-3.83-1.1
		c-0.21-11.53-0.03-23.05-0.1-34.57c-0.01-1.29-0.01-2.55,1.12-3.44c8.29-0.71,16.59-0.11,24.88-0.31
		C712.07,661.7,718.44,662.82,721.3,670.59z"/>
	<path class="st27" d="M679.63,700.35c0.97-0.01,1.94-0.02,2.91-0.01c6.45,0.01,6.54,0.02,6.91-6.51c0.13-2.25,1.01-2.93,3.05-2.89
		c4.44,0.07,8.88-0.04,13.32,0.04c10.71,0.19,17.17-7.46,16.22-16.91c3.04,8.3-2.9,17.3-11.95,17.79
		c-5.51,0.3-11.04,0.13-16.56,0.14c-1.75,0-3.21,0-3.29,2.54c-0.07,2.28,1.3,5.63-0.89,6.65c-2.99,1.39-6.64,1.36-9.95-0.13
		c-0.21-0.24-0.25-0.43-0.11-0.56C679.4,700.4,679.51,700.35,679.63,700.35z"/>
	<path class="st28" d="M679.63,700.35c-0.09,0.23-0.17,0.47-0.22,0.71c-0.79-0.78-0.72-1.79-0.72-2.77c0-11.01-0.01-22.03,0-33.04
		c0-1.12-0.1-2.29,0.93-3.1c0.32-0.37,0.61-0.33,0.86,0.07c-1.02,0.98-0.97,2.26-0.96,3.53
		C679.56,677.29,679.6,688.82,679.63,700.35z"/>
	<path class="st29" d="M721.3,670.59c-3.36-5.94-8.66-8.32-15.13-8.54c-0.29-0.17-0.39-0.34-0.29-0.5c0.1-0.16,0.2-0.24,0.3-0.24
		c6.5-0.55,11.75,1.53,15.2,7.44C721.77,669.42,721.91,670,721.3,670.59z"/>
	<path class="st30" d="M706.18,661.31c0,0.25,0,0.49-0.01,0.74c-8.56,0.06-17.12,0.12-25.68,0.18c-0.29-0.02-0.58-0.05-0.86-0.07
		c1.36-1.46,3.12-0.79,4.69-0.81C691.6,661.27,698.89,661.31,706.18,661.31z"/>
	<path class="st31" d="M823.86,664.57c7.99,10.7,11.91,23.45,17.26,35.48c-3.47,2.01-7.02,1.32-10.57,0.3
		c-0.9-1.51-1.81-3.02-2.71-4.53c-4.51-1.41-9.19,0.01-13.73-0.83c-1.18-2.87,1.48-7.75,5.04-9.2c0.75-0.3,1.63-0.2,2.29-0.74
		c0.72-1.57-0.59-2.74-0.8-4.12c-0.42-1.15-0.63-2.34-0.6-3.57c0.29-4,1.15-7.97-0.63-11.92c-1.08-2.39,0.21-3.41,2.6-3.23
		C823.21,662.53,823.81,663.33,823.86,664.57z"/>
	<path class="st32" d="M823.67,685.91c-5.12,0.59-7.95,4.02-10.04,8.39c-0.45,0.61-1.09,0.92-1.8,0.86
		c-3.83-0.32-7.19,0.14-8.39,4.7c-0.18,0.7-0.89,1.17-1.6,1.15c-3.26-0.08-6.6,0.97-9.74-0.72c0.21-0.85,0.41-1.7,0.62-2.56
		c-0.31-2.76,1.26-4.72,2.74-6.72c0.21-0.3,0.42-0.6,0.63-0.91c1.41-5.45,3.89-10.44,6.32-15.46c2.03-3.5,1.97-8.24,6.02-10.55
		c1.03-0.06,2.4,0.23,1.89,1.39c-1.53,3.46,0.41,4.48,3.04,5.3c0.66,0.21,1.16,0.73,1.54,1.34c0.69,3.42-1.51,6.01-2.49,8.95
		c-0.38,1.13-1.92,2.43,0.23,3.43C816.27,685.31,820.24,683.4,823.67,685.91z"/>
	<path class="st33" d="M792.1,700.29c2.07,0,4.16-0.12,6.22,0.04c2.75,0.22,4.9-0.3,5.77-3.37c0.66-2.35,2.46-2.73,4.58-2.63
		c1.65,0.08,3.31-0.02,4.97-0.04c3.58,0.02,7.17,0.01,10.75,0.08c1.3,0.03,2.88-0.45,3.46,1.44c-5.94,0.06-11.89,0.25-17.83,0.12
		c-2.7-0.06-4.64,0.53-5.32,3.39c-0.54,2.25-2.07,3.04-4.03,2.55C797.83,701.16,794.4,703.82,792.1,700.29z"/>
	<path class="st34" d="M808.49,664.64c-3.51,2.48-3.54,7-5.79,10.23c-0.23,0.36-0.46,0.36-0.7,0.01c1.3-4.65,2.39-9.4,6.72-12.36
		c4.29-2.93,8.93-2.54,13.56-1.37c1.46,0.37,2.92,1.41,1.58,3.43c-0.61-0.53-1.21-1.06-1.82-1.59
		C817.33,661.9,812.89,663.1,808.49,664.64z"/>
	<path class="st35" d="M802,674.87c0.23,0,0.46,0,0.7-0.01c-2.2,5.08-4.41,10.16-6.61,15.24C796.29,684.31,799.01,679.54,802,674.87
		z"/>
	<path class="st36" d="M830.55,700.34c3.53-0.1,7.05-0.2,10.58-0.3c0.38,0.39,0.9,0.94,0.33,1.35
		C839.77,702.58,832.36,701.79,830.55,700.34z"/>
	<path class="st37" d="M795.46,691.01c-0.91,2.24-1.83,4.48-2.74,6.72C791.55,694.62,792.92,692.57,795.46,691.01z"/>
	<path class="st38" d="M861.09,701.05c-0.21,0-0.43,0.01-0.64,0.04c-1.13-5.86-0.45-11.75-0.34-17.63
		c-3.97-6.64-10.03-11.46-14.74-17.45c-0.85-1.08-2.79-1.76-1.63-3.77c3.82-0.78,7.64-0.93,11.45,0.06c1.09,2.95,3.63,4.62,5.7,6.71
		c5.31,4.54,5.28,4.51,10.12-0.76c2.19-2.38,3.73-5.53,7.16-6.52c3.39,0.04,6.78-0.09,10.17,0.07c1.73,1.82-0.11,2.77-1.02,3.75
		c-5.12,5.48-9.99,11.19-14.91,16.86c-1.18,1.37-1.77,2.68-1.72,4.5c0.11,3.65-0.06,7.31,0.07,10.96c0.08,2.32-0.69,3.42-3.05,3.3
		C865.51,701.06,863.3,701.25,861.09,701.05z"/>
	<path class="st39" d="M861.09,701.05c1.06-0.92,2.35-0.67,3.57-0.69c5.97-0.09,6.28,0.71,5.5-6.06c-0.96-8.33,2.4-14.02,7.89-19.54
		c3.76-3.79,7.74-7.56,10.48-12.32c0.17-0.58,0.43-0.63,0.78-0.14c0.78,2.1-0.89,3.05-1.96,4.25c-4.46,5.03-8.84,10.13-13.46,14.99
		c-2.11,2.22-2.9,4.55-2.71,7.55c0.2,3.23-0.05,6.49,0.07,9.73c0.08,2.17-0.68,3.22-2.86,2.95
		C865.96,701.48,863.41,702.49,861.09,701.05z"/>
	<path class="st40" d="M877.18,662.26c-2.38,2.75-4.72,5.53-7.14,8.23c-4.34,4.82-5.62,4.59-9.14-1.48c0.14,0,0.33-0.05,0.4,0.02
		c4.71,4.89,7.24,0.7,10.13-2.43c1.48-1.6,2.82-3.41,4.82-4.45C876.6,661.79,876.91,661.85,877.18,662.26z"/>
	<path class="st41" d="M860.12,683.46c0.73,5.86,0.13,11.76,0.34,17.63C858.66,695.24,859.29,689.35,860.12,683.46z"/>
	<path class="st42" d="M855.19,662.3c-3.82-0.02-7.63-0.04-11.45-0.06c-0.13-0.34-0.26-0.68-0.39-1.01
		c3.94,0.11,7.88,0.22,11.82,0.36C855.19,661.58,855.19,662.05,855.19,662.3z"/>
	<path class="st43" d="M877.18,662.26c-0.31-0.04-0.62-0.08-0.93-0.12c4.31-1.69,8.73-0.72,13.11-0.57c0.05,0,0.13,0.22,0.12,0.34
		c-0.01,0.13-0.1,0.25-0.16,0.38c-0.27,0-0.53,0.05-0.78,0.14C884.75,662.38,880.96,662.32,877.18,662.26z"/>
	<path class="st44" d="M752.82,691.08c8.07-0.14,16.15-0.34,24.21,0.21c-0.17,9.03-0.17,9.04-8.9,9.02
		c-5.08-0.01-10.16-0.05-15.25-0.08c1.51-1.71,1.87-3.44,0.61-5.58C752.92,693.68,753.03,692.29,752.82,691.08z"/>
	<path class="st45" d="M707.8,673.39c1.99,0.89,5.19,0.64,4.74,4.06c-0.41,3.16-2.88,4.29-5.78,4.12
		c-5.54-0.33-11.16,1.08-16.62-0.8c-0.59-8.01-0.59-8.11,7.09-7.96C700.75,672.87,704.34,672.04,707.8,673.39z"/>
	<path class="st46" d="M707.8,673.39c-4.28-0.02-8.58,0.23-12.83-0.12c-3.92-0.32-5.26,1.2-4.72,4.98c0.12,0.82-0.07,1.68-0.11,2.52
		c-0.21-0.65-0.55-1.29-0.59-1.95c-0.44-6.49-0.42-6.5,5.93-6.5c4.25,0,8.5,0.04,12.75,0.07c0.09,0,0.18,0.15,0.27,0.23
		C708.26,672.87,708.03,673.13,707.8,673.39z"/>
	<path class="st47" d="M808.49,664.64c4.12-3.94,8.65-4.39,13.56-1.66c-1.1,0.2-3.27,0.07-1.7,1.93c3.47,4.13,0.65,8.39,0.79,12.57
		c-2.6-0.08-2.67-2.81-4.13-4.07c-0.62-0.86-1.75-0.52-2.5-1.06c-1.03-0.29-2.04-0.64-3.08-0.87c-3.56-0.8-4.29-2.48-2.26-5.7
		C809.9,664.6,809.02,664.82,808.49,664.64z"/>
	<path class="st48" d="M817.77,672.17c1.12,1.77,2.24,3.53,3.36,5.3c0.25,1.14,0.49,2.28,0.74,3.43c0.47,4.57,0.47,4.6-4.48,4.55
		c-2.03-0.02-4.16,0.44-6.01-0.9c-0.1-4.66,2.28-8.39,4.5-12.15C816.26,671.77,817.09,671.84,817.77,672.17z"/>
	<path class="st49" d="M811.31,684.22c1.69,0.44,3.37,0.8,5.16,0.88c3.07,0.14,5.87,0.25,5.4-4.19c0.46,1.72,1.81,3.11,1.79,5.01
		c-4.3-0.37-8.72,1.12-12.9-0.9C810.75,684.61,810.94,684.35,811.31,684.22z"/>
	<path class="st50" d="M811.31,684.22c-0.18,0.26-0.36,0.53-0.54,0.79c-1.6,0.96-1.21-0.08-0.87-0.94c1.52-3.91,3.07-7.82,4.6-11.73
		c1.07-0.44,2.07-2.39,3.28-0.17c-3.42,1.01-3.25,4.53-4.59,6.96C812.33,680.7,811.92,682.51,811.31,684.22z"/>
</g>
</svg>
