<?xml version="1.0" encoding="utf-8"?>
<!-- Generator: Adobe Illustrator 28.0.0, SVG Export Plug-In . SVG Version: 6.00 Build 0)  -->
<svg version="1.1" id="Layer_1" xmlns="http://www.w3.org/2000/svg" xmlns:xlink="http://www.w3.org/1999/xlink" x="0px" y="0px"
	 viewBox="0 0 595.28 841.89" style="enable-background:new 0 0 595.28 841.89;" xml:space="preserve">
<style type="text/css">
	.st0{fill:#EED178;}
	.st1{fill:#FEE797;}
	.st2{fill:#FFD337;}
	.st3{fill:#FFCE2D;}
	.st4{fill:#FFCA23;}
	.st5{fill:#FAE30E;}
	.st6{fill:#F9E30F;}
	.st7{fill:#E36624;}
	.st8{fill:#F4E61F;}
	.st9{fill:#1F4372;}
	.st10{fill:#80491F;}
	.st11{fill:#AB5230;}
	.st12{fill:#A14525;}
	.st13{fill:#A94A2B;}
	.st14{fill:#3183B3;}
	.st15{fill:#774436;}
	.st16{fill:#18406D;}
	.st17{fill:#1588BA;}
	.st18{fill:#3F81AE;}
	.st19{fill:#268FA9;}
	.st20{fill:#A84024;}
	.st21{fill:#328DC5;}
	.st22{fill:#357CAF;}
	.st23{fill:#154162;}
	.st24{fill:#975730;}
	.st25{fill:#3093BE;}
	.st26{fill:#2CA3D5;}
	.st27{fill:#3881B3;}
	.st28{fill:#294374;}
	.st29{fill:#3B4544;}
	.st30{fill:#398BBC;}
	.st31{fill:#4081BA;}
	.st32{fill:#184A64;}
	.st33{fill:#224369;}
	.st34{fill:#367FB2;}
	.st35{fill:#47A1DA;}
	.st36{fill:#78623D;}
	.st37{fill:#1B3C4A;}
	.st38{fill:#2A78B3;}
	.st39{fill:#2A8ABF;}
	.st40{fill:#3C7AA7;}
	.st41{fill:#9A3620;}
	.st42{fill:#3A7AB5;}
	.st43{fill:#14405A;}
	.st44{fill:#2A84AB;}
	.st45{fill:#303484;}
	.st46{fill:#923B1F;}
	.st47{fill:#3586B5;}
	.st48{fill:#43778F;}
	.st49{fill:#337FA6;}
	.st50{fill:#318AB0;}
	.st51{fill:#4D88B4;}
	.st52{fill:#977237;}
	.st53{fill:#993720;}
	.st54{fill:#3177B7;}
	.st55{fill:#258EA4;}
	.st56{fill:#2397C0;}
	.st57{fill:#214A7C;}
	.st58{fill:#2C8FB1;}
	.st59{fill:#936225;}
	.st60{fill:#327EC0;}
	.st61{fill:#2E88BE;}
	.st62{fill:#398CC4;}
	.st63{fill:#367F9C;}
	.st64{fill:#B1512B;}
	.st65{fill:#89491F;}
	.st66{fill:#24A4CF;}
	.st67{fill:#3981B3;}
	.st68{fill:#1A4877;}
	.st69{fill:#3686C1;}
	.st70{fill:#2889A4;}
	.st71{fill:#3596BD;}
	.st72{fill:#208ABC;}
	.st73{fill:#3C97BA;}
	.st74{fill:#134573;}
	.st75{fill:#3770A4;}
	.st76{fill:#1A6EAB;}
	.st77{fill:#306DAD;}
	.st78{fill:#3096C4;}
	.st79{fill:#3190BF;}
	.st80{fill:#348BBC;}
	.st81{fill:#32A6DB;}
	.st82{fill:#2E7BB3;}
	.st83{fill:#469CCC;}
	.st84{fill:#256499;}
	.st85{fill:#2199C2;}
	.st86{fill:#1F4281;}
	.st87{fill:#418FCD;}
	.st88{fill:#214081;}
	.st89{fill:#C3A94B;}
	.st90{fill:#E1D9B3;}
	.st91{fill:#E59B3D;}
	.st92{fill:#B14323;}
	.st93{fill:#9FCD51;}
	.st94{fill:#B29561;}
	.st95{fill:#FBD80A;}
	.st96{fill:#B37536;}
	.st97{fill:#E0DA21;}
	.st98{fill:#FDC26F;}
	.st99{fill:#FAD50E;}
	.st100{fill:#7E4D1E;}
	.st101{fill:#8B6425;}
	.st102{fill:#692712;}
	.st103{fill:#D79338;}
	.st104{fill:#ABD7DC;}
	.st105{fill:#F18022;}
	.st106{fill:#369DCB;}
	.st107{fill:#924621;}
	.st108{fill:#9A5828;}
	.st109{fill:#0C4860;}
	.st110{fill:#FCDD05;}
	.st111{fill:#622911;}
	.st112{fill:#748F89;}
	.st113{fill:#F47821;}
	.st114{fill:#F58720;}
	.st115{fill:#EF6524;}
	.st116{fill:#F7A21D;}
	.st117{fill:#F6921F;}
	.st118{fill:#A34124;}
	.st119{fill:#AC9A63;}
	.st120{fill:#A25437;}
	.st121{fill:#FBB218;}
	.st122{fill:#F69E1F;}
	.st123{fill:#F59020;}
	.st124{fill:#F37B22;}
	.st125{fill:#F48A20;}
	.st126{fill:#1A3F6A;}
	.st127{fill:#9A4623;}
	.st128{fill:#DB5F29;}
	.st129{fill:#EF7825;}
	.st130{fill:#931D1D;}
	.st131{fill:#A6442F;}
	.st132{fill:#9F3B25;}
	.st133{fill:#213F75;}
	.st134{fill:#F7921F;}
	.st135{fill:#F38521;}
	.st136{fill:#71351E;}
	.st137{fill:#19426E;}
	.st138{fill:#9B4C24;}
	.st139{fill:#204385;}
	.st140{fill:#1F4165;}
	.st141{fill:#804C1F;}
	.st142{fill:#EB6C24;}
	.st143{fill:#F38122;}
	.st144{fill:#944835;}
	.st145{fill:#294954;}
	.st146{fill:#FCC912;}
	.st147{fill:#FBDC07;}
	.st148{fill:#A74C24;}
	.st149{fill:#1E427F;}
	.st150{fill:#156AAB;}
	.st151{fill:#066D9A;}
	.st152{fill:#7D401C;}
	.st153{fill:#B99D37;}
	.st154{fill:#204165;}
	.st155{fill:#FBBB47;}
	.st156{fill:#0E5F9D;}
	.st157{fill:#8E3D20;}
	.st158{fill:#1B447A;}
	.st159{fill:#BB9352;}
	.st160{fill:#F8A01D;}
	.st161{fill:#F9B21A;}
	.st162{fill:#9A4F2C;}
	.st163{fill:#8D728B;}
	.st164{fill:#744022;}
	.st165{fill:#D5AF54;}
	.st166{fill:#C0B79A;}
	.st167{fill:#FBC215;}
	.st168{fill:#E2BD4F;}
	.st169{fill:#D8D928;}
	.st170{fill:#EFA457;}
	.st171{fill:#25437B;}
	.st172{fill:#453D1E;}
	.st173{fill:#393215;}
	.st174{fill:#274066;}
	.st175{fill:#F6E61C;}
	.st176{fill:#F5A32D;}
	.st177{fill:#F4E41A;}
	.st178{fill:#8B742D;}
	.st179{fill:#1F417C;}
	.st180{fill:#1F499A;}
	.st181{fill:#99722A;}
	.st182{fill:#6E451A;}
	.st183{fill:#A13F21;}
	.st184{fill:#FBC813;}
	.st185{fill:#FACA13;}
	.st186{fill:#742114;}
	.st187{fill:#F7BA1A;}
	.st188{fill:#B19C42;}
	.st189{fill:#3E391D;}
	.st190{fill:#4D4C72;}
	.st191{fill:#89431D;}
	.st192{fill:#264443;}
	.st193{fill:#844F28;}
	.st194{fill:#20417B;}
	.st195{fill:#7B5B2D;}
	.st196{fill:#204063;}
	.st197{fill:#FFCB0B;}
	.st198{fill:#7A3719;}
	.st199{fill:#DAB650;}
	.st200{fill:#F9B11A;}
	.st201{fill:#A35A26;}
	.st202{fill:#7F431C;}
	.st203{fill:#453C25;}
	.st204{fill:#D99735;}
	.st205{fill:#8E4521;}
	.st206{fill:#944A2D;}
	.st207{fill:#F5991F;}
	.st208{fill:#F17322;}
	.st209{fill:#194577;}
	.st210{fill:#A16A2A;}
	.st211{fill:#A15023;}
	.st212{fill:#F9A71C;}
	.st213{fill:#EA9B28;}
	.st214{fill:#692612;}
	.st215{fill:#CA762A;}
	.st216{fill:#FACA12;}
	.st217{fill:#FBD90B;}
	.st218{fill:#BB6D4D;}
	.st219{fill:#F7AE1C;}
	.st220{fill:#883A1C;}
	.st221{fill:#A15A27;}
	.st222{fill:#F8B31A;}
	.st223{fill:#73451B;}
	.st224{fill:#F8B519;}
	.st225{fill:#A68F4F;}
	.st226{fill:#4F8FB0;}
	.st227{fill:#1E4494;}
	.st228{fill:#363B28;}
	.st229{fill:#134068;}
	.st230{fill:#975C24;}
	.st231{fill:#A6935F;}
</style>
<path class="st0" d="M675.75,731.18c-8.11-6.38-16.84-11.58-21.81-23.41c-2.17-5.15-4.2-10.19-4.44-16.22
	c0.64,0.01,1.28,0.01,1.92,0.02c0.94,1.51,1.88,3.02,2.82,4.53c0.86,11.6,7.33,17.53,13.34,23.92c5.49,4.37,11.42,6.76,17.79,6.76
	c64.51,0.05,129.01,0.13,193.52-0.01c13.27-0.03,24.44-11.76,27.83-28.14c3.2-2.82,2.93-7.29,3.03-11.58
	c1.59,0.03,3.18,0.05,4.77,0.08c0,2.2,0,4.4,0,6.61c-4.69,1.94-3.25,8.49-5.11,12.63c-5.74,12.76-14.57,19.5-24.33,24.81
	C815.31,731.18,745.53,731.18,675.75,731.18z"/>
<path class="st1" d="M914.53,687.14c-1.59-0.03-3.18-0.05-4.77-0.08c1.83-4.13,1.76-8.57,1.22-13.1c-0.05-0.84-0.11-1.69-0.16-2.53
	c0.28-1.69-0.16-2.96-1.23-3.87c-3.58-20.88-20.38-33.57-34.01-33.47c-61.15,0.42-122.31,0.3-183.47,0.06
	c-8.81-0.03-17.3,0.93-25.46,5.57c-0.31-0.44-0.62-0.88-0.93-1.31c5.38-6.41,11.95-8.44,18.81-8.45
	c64.44-0.11,128.88-0.14,193.33-0.01c15.32,0.03,28.88,13.46,34.33,32.91c0.64,2.27,0.24,5.3,2.33,6.67
	C914.53,675.39,914.53,681.26,914.53,687.14z"/>
<path class="st1" d="M651.43,691.58c-0.64-0.01-1.28-0.01-1.92-0.02c-5.75-16.66,3.94-46.84,16.23-53.15
	c0.31,0.44,0.62,0.87,0.92,1.3C655.86,653.95,648.42,669.99,651.43,691.58z"/>
<path class="st2" d="M651.43,691.58c-3-21.59,4.43-37.63,15.23-51.87c8.16-4.63,16.65-5.6,25.46-5.56
	c61.16,0.24,122.31,0.37,183.47-0.06c13.63-0.09,30.43,12.59,34.01,33.47c0.41,1.29,0.82,2.58,1.23,3.88
	c0.05,0.84,0.11,1.69,0.16,2.53c-23.5,1.71-46.98,3.77-70.45,6.27c-29.96,3.19-60.04,3.82-90.05,6.52
	c-22.42,2.01-44.84,4.57-67.35,5.55c-9.45,0.41-19.59-1.46-28.89,3.81C653.31,694.6,652.37,693.09,651.43,691.58z"/>
<path class="st3" d="M654.25,696.11c9.3-5.27,19.44-3.4,28.89-3.81c22.51-0.98,44.93-3.54,67.35-5.55
	c30.01-2.69,60.09-3.33,90.05-6.52c23.47-2.5,46.95-4.56,70.45-6.27c0.54,4.53,0.61,8.97-1.22,13.1c-0.1,4.29,0.17,8.76-3.04,11.58
	c-2.25-3.91-5.49-2.83-8.35-2.61c-14.05,1.07-28.09,2.97-42.11,3.99c-35.17,2.56-70.28,6.88-105.45,8.7
	c-25.4,1.32-50.67,6.24-76.16,4.85c-3.51-0.19-6.68,0.4-7.07,6.45C661.57,713.64,655.11,707.71,654.25,696.11z"/>
<path class="st4" d="M667.59,720.03c0.39-6.05,3.56-6.64,7.07-6.45c25.48,1.39,50.75-3.53,76.16-4.85
	c35.17-1.83,70.28-6.14,105.45-8.7c14.03-1.02,28.06-2.92,42.11-3.99c2.85-0.22,6.1-1.3,8.35,2.61
	c-3.39,16.39-14.56,28.11-27.83,28.14c-64.51,0.14-129.01,0.06-193.52,0.01C679.01,726.78,673.08,724.39,667.59,720.03z"/>
<path class="st3" d="M910.82,671.43c-0.41-1.29-0.82-2.59-1.23-3.88C910.65,668.47,911.09,669.74,910.82,671.43z"/>
<path class="st5" d="M749.81,658.22c0.41,0.08,0.82,0.16,1.23,0.24c0.27,0.29,0.54,0.57,0.67,0.94c0.09,0.24,0.15,0.48,0.2,0.73
	c0.08,0.51,0.14,1.02-0.19,1.49c-0.37,0.42-0.82,0.77-1.26,1.13c-1.53,1.73-3.41,1.78-5.9,1.78c-3.31,0-6.8-1.08-10.07,0.4
	c-1.45,0.66-2.16-0.75-3.3-0.96c-1.75,3.09-1.89,3.14-4.82,0.79c-1.05-0.84-1.81-1.08-2.7,0.07c-0.36,0.47-0.78,1-1.63,0.64
	c-0.24-0.23-0.42-0.49-0.53-0.79c-1.01-3.85,0.97-6.29,4.92-7.89c2.54-1.03,4.97-2.24,7.74-2.82c4.74-1,9.15-0.47,13.22,1.88
	C748.64,656.31,749.56,657.02,749.81,658.22z"/>
<path class="st6" d="M810.94,655.66c0.88,0.76,1.76,1.53,2.64,2.29c1.62,1.04,2.84,2.24,2.27,4.17c-0.15,0.39-0.38,0.75-0.49,1.15
	c-0.26,0.79-0.95,1.27-1.62,1.81c-3.15,2.52-3.13,2.53-5-1.03c-0.78,1.85-1.97,2.18-3.64,0.98c-1.38-0.99-2.53,0.03-3.74,0.43
	c-2.96,0.97-6.11-0.47-6.93-3.14c-0.03-0.67,0.01-1.33,0.16-1.99c0.06-0.25,0.16-0.49,0.28-0.72c0.25-0.43,0.58-0.83,0.86-1.25
	c0.13-0.2,0.28-0.4,0.44-0.58c0.18-0.17,0.37-0.33,0.58-0.48l-0.04,0.04c0.84-0.93,1.79-1.75,3.22-1.99
	c1.33-0.23,2.59-0.68,3.89-1.01c1.06-0.22,2.14-0.18,3.21-0.22C808.53,654.27,810.07,654.36,810.94,655.66z"/>
<path class="st7" d="M837.02,703.45c-0.29,0.23-0.59,0.46-0.88,0.7c-0.9,1.41-2,2.68-3.55,3.62c-2.81,0.99-5.5,1.26-7.78-0.94
	c-0.93-1.61-1.87-3.23-1.75-5.11c-0.61-2.99,1.14-5.68,1.48-8.55c0.22-0.81,0.6-1.54,1.38-2.07c1.75-0.48,2.21,0.55,2.6,1.64
	c-0.04,1.2-0.78,2.53,1.38,3.17c0.92,0.27,0.64,1.34,0.43,2.15c1.69-0.47,3.49-0.41,4.82-1.79c2.24-2.33,2.37-2.24,3.84,0.55
	c0.25,0.49,0.47,0.98,0.64,1.49C840.49,700.68,837.49,701.59,837.02,703.45z"/>
<path class="st8" d="M830.18,653.41c0.21,0.19,0.42,0.38,0.64,0.57c1.78,1.7,1.94,4.17,3.8,5.84c0.32,0.32,0.55,0.68,0.66,1.1
	c0.01,0.28-0.07,0.55-0.24,0.79c-2.22,1.32-4.77,0.66-7.17,0.83c-0.32,0.02-0.84-0.14-0.88-0.36c-0.6-3.14-3.45-2.29-5.75-2.42
	c-0.35-0.33-0.47-0.73-0.47-1.17c0.24-1.7,0.95-3.24,2.19-4.59c0.16-0.23,0.38-0.43,0.64-0.57c0.53-0.25,1.18-0.33,1.54-0.82
	l0.29-0.02c0.79-0.51,1.76-0.15,2.61-0.4C828.97,652.32,829.86,652.5,830.18,653.41z"/>
<path class="st9" d="M825.32,706.55c2.33,1.3,4.78,1.26,7.29,0.45c0.87,0.14,1.3,0.53,1,1.32c-2.12,3.65-7.43,3.86-10.88,1.01
	c-2.02-4.07-2.34-8.19-0.42-12.36c0.84-1.44,0.73-3.42,3.09-4c0.42,3.07-2.14,5.79-1.48,8.89
	C822.36,703.88,824.33,705.11,825.32,706.55z"/>
<path class="st10" d="M747.62,656.68c-6.81-3.59-13.32-2.55-20.11,0.41c-4.04,1.76-5.78,4.04-5.31,7.75
	c-2.3-0.43-1.13-2.27-1.85-3.34c-0.09-0.6-0.11-1.19,0.07-1.78c1.06-1.79,3-2.7,4.92-3.64c1.78-0.02,2.97-1.26,4.59-1.62
	c1.25-1.22,2.94-1.37,4.67-1.4c0.4-0.11,0.81-0.23,1.21-0.34c2.94-0.64,5.79-0.67,8.4,0.92c0.35,0.06,0.71,0.12,1.06,0.18
	C746.73,654.37,747.93,655.07,747.62,656.68z"/>
<path class="st11" d="M755.04,704.16c-0.18-0.58-0.37-1.16-0.55-1.75c-1.13-1.36-0.12-3.96-0.56-4.13
	c-2.48-0.95-1.16-2.66-1.59-3.97c0-0.64,0-1.27,0-1.91c0.15-1.45-0.26-2.87-0.25-4.32c0.02-0.49,0.1-0.98,0.3-1.44
	c0.3-0.63,0.71-1.17,1.49-1.43c0.41-0.01,0.73,0.13,0.96,0.43c0.9,1.51,0.54,3.14,0.55,4.73c0.15,0.89,0.02,1.82,0.4,2.68
	c0.53,2.88,0.41,5.87,1.89,8.59c0.44,0.77,1.11,1.47,1.05,2.4c-0.16,0.44-0.5,0.74-0.99,0.92
	C756.65,705.17,755.8,704.79,755.04,704.16z"/>
<path class="st12" d="M848,682.04c0.34,1.61-1.52,2.68-1.42,4.24c-1.92,1.58-1.83,3.9-2.91,5.79c-0.57,0.34-0.75,0.82-0.66,1.39
	c-0.26,0.49-0.61,0.92-1.14,1.24c-0.6,0.25-1.19,0.47-1.75-0.06c-0.54-0.83-0.25-1.65,0.04-2.47c0.24-0.82,0.66-1.59,1.05-2.37
	c1.43-2.69,2.47-5.51,3.78-8.25c1.01-1.65,1.09-3.67,2.79-5.03c0.75-0.21,1.29,0.07,1.74,0.56
	C849.83,678.91,848.93,680.48,848,682.04z"/>
<path class="st13" d="M725,706.49c-0.69-0.32-1.38-0.63-2.06-0.95c-1.02-1.55-1.54-3.27-2.33-4.9c-1.12-1.1-1.12-2.4-0.97-3.74
	c0.1-0.45,0.33-0.85,0.64-1.23c0.44-0.48,0.85-0.98,1.61-1.11c0.37,0.03,0.66,0.18,0.86,0.44c0.84,1.64,0.5,3.46,1.13,5.13
	c1.2,3.67,1.63,3.88,7.16,3.49c0.33,0.08,0.62,0.21,0.88,0.4c0.4,1.04-0.37,1.66-1.1,2.29C728.93,707.57,726.96,706.86,725,706.49z"
	/>
<path class="st14" d="M823.21,697.05c-1.79,4.05-1.37,8.16-0.49,12.29c-2.18-1.03-1.31-3.23-2.45-4.7c-1.38,1.21-1.83,3.17-4.04,3.7
	c-0.55-0.08-0.65-0.42-0.64-0.82c0.27-0.83,0.32-1.71,0.57-2.55c1.23-1.21,2.85-2.21,3.04-4.01c0.92-1.45,0.89-3.27,2.41-4.48
	C822.41,696.15,822.88,696.46,823.21,697.05z"/>
<path class="st15" d="M800.79,695.02c-0.2,0.15-0.4,0.3-0.6,0.46c-2.18-2.68-2.1-3.47,0.61-5.8c2.52-0.65,5.03-1.53,7.67-0.37
	c1.3,1.55,1.02,3.21,0.47,4.89c-0.16,0.27-0.39,0.49-0.69,0.65c-1.49,0-1.29-1.01-1.4-1.79c-0.16-1.12-0.65-0.09-0.98-0.12
	C804.14,693.57,801.62,692.77,800.79,695.02z"/>
<path class="st16" d="M738.73,697.75c-0.04,0.47-0.08,0.93-0.12,1.4c-0.11,0.36-0.36,0.61-0.76,0.77c-1.05,0.32-2.01,0.24-2.86-0.42
	c-1.23-1.76-0.64-3.65-0.54-5.5c0.16-0.47,0.44-0.87,0.92-1.15c1.15,0.5,2.5-1.51,3.55,0.21
	C739.21,694.64,738.88,696.19,738.73,697.75z"/>
<path class="st17" d="M768.7,661.4c2.58,1.27,1.23,3.49,1.56,5.22c0.9,4.73,0.83,9.52-0.04,14.28c-1.86-1.32-0.63-3.39-1.62-4.93
	c-0.21-4.73-0.28-9.46-0.33-14.19C768.41,661.66,768.55,661.53,768.7,661.4z"/>
<path class="st18" d="M840.4,655.57c2.68-2.48,4.69-5.81,9.62-5.37c1.64,0.15,2.88,0.49,2.68,2.2c-0.18,0.5-0.64,0.61-1.17,0.64
	c-3.98-1.16-6.43,1.22-9.18,2.92C841.62,656.11,840.95,656.06,840.4,655.57z"/>
<path class="st19" d="M737.95,699.55c0.22-0.13,0.44-0.27,0.66-0.4c0.78,3.44-1.18,7.74-4.7,10.29c-1.65,1.46-3.48,1.52-5.45,0.54
	c-0.25-0.54-1.29-0.44-1.3-1.18c1-0.97,2.52-0.65,3.72-1.1c4.91,0.17,4.54-3.46,5.78-5.92
	C736.98,700.98,737.19,700.15,737.95,699.55z"/>
<path class="st20" d="M800.88,690.17c-2.01,1.6-1.06,3.48-0.7,5.3c-0.1,1.28,0.13,2.6-0.56,3.82c-0.08,0.53-0.35,0.97-0.86,1.3
	c-0.66,0.42-1.38,0.62-2.21,0.45c-0.31-0.11-0.56-0.28-0.74-0.52c-0.26-1.05,0.43-1.94,0.63-2.91c0.78-2.16,1.34-4.36,1.71-6.6
	C798.83,690.17,799.5,689.32,800.88,690.17z"/>
<path class="st21" d="M810.94,655.66c-1.35-0.27-2.7-0.55-4.05-0.82c-1.05-0.36-2.14-0.13-3.21-0.16c-0.75,0.17-1.46,0.54-2.29,0.42
	c-0.58-0.34-0.83-0.83-0.87-1.41c2.6-1.69,8.75-1.43,10.8,0.46C811.99,654.77,812.02,655.33,810.94,655.66z"/>
<path class="st22" d="M815.24,661.84c0.69-1.68-2.2-2.26-1.65-3.9c2.58-1.96,1.86,1.23,3.2,1.42c1.06-0.32,0.45-2.34,2.39-2
	c0.16,2.24,1.48,4.74-1.82,6.24C816.13,663.48,815.35,662.95,815.24,661.84z"/>
<path class="st23" d="M761.07,708.92c-0.46-0.24-0.92-0.49-1.38-0.73c-0.17-0.24-0.22-0.5-0.17-0.78c0.88-1.43,3.07-1.27,4.13-2.49
	c0.69-0.21,1.36-0.15,2.01,0.09c1.16,0.72,2.52,0.56,3.84,0.67c1.15,0.09,2.56-0.07,2.79,1.41c-1.04,1.24-2.6,1.11-4.1,1.15
	C765.78,708.2,763.39,708.27,761.07,708.92z"/>
<path class="st24" d="M849.34,677.23c-0.41-0.2-0.83-0.4-1.24-0.61c-0.77-0.63-0.37-1.36-0.25-2.06c0.96-2.32,1.41-4.78,2.58-7.05
	c0.21-0.43,0.52-0.78,1.02-0.99c2.47,1.57,0.66,3.51,0.61,5.29c-0.31,0.79-0.62,1.59-0.93,2.38
	C850.67,675.27,851.31,676.82,849.34,677.23z"/>
<path class="st25" d="M769.52,676.05c1.14,1.53,0.19,3.27,0.69,4.86c0.75,1.62-0.04,3.24-0.01,4.86c0.03,1.58-0.16,3.08,2.68,2.05
	c0.98-0.36,2.23-0.18,3.35-0.24c0.08,2.05-2.5,1.34-3.37,2.4c-1.12,0.33-2.23,0.73-3.36,0.03c-1.82-1.86-0.85-4.08-1.07-6.14
	c-0.11-1.06-0.03-2.13-0.03-3.19C768.65,679.11,767.8,677.35,769.52,676.05z"/>
<path class="st26" d="M718.98,694.74c0-7.8,0.01-15.59,0.01-23.39c0.46-0.14,0.81-0.03,1.06,0.33c1,2.99,0.28,6.06,0.51,9.09
	c-0.01,3.06,0,6.11,0,9.17C720.13,691.57,721.61,693.65,718.98,694.74z"/>
<path class="st27" d="M751.12,659.68c-0.03-0.41-0.05-0.81-0.08-1.22c1.2-0.45,1.69,0.54,2.44,0.93c1.38-0.91,0.17-3.39,2.91-3.38
	c0.76,0.61,0.57,1.34,0.37,2.08c-0.09,0.59-0.25,1.16-0.58,1.69c-1.2,1.04-0.97,3.37-3.7,3.05c-0.69-0.32-0.92-0.84-0.87-1.49
	c-0.19-0.35-0.38-0.71-0.57-1.06c0.12-0.12,0.18-0.25,0.16-0.38C751.19,659.75,751.16,659.68,751.12,659.68z"/>
<path class="st28" d="M772.28,707.17c-1.2-1.11-2.78-0.55-4.19-0.69c-1.06-0.11-2.39,0.32-2.78-1.07c1.31-1.4,3.15-0.87,4.82-0.98
	c2.43,0.61,5.13-0.99,7.44,0.66c0.52,1.47-1.67,1.09-1.92,2.04c-1.03-0.01-2.06-0.02-3.1-0.03L772.28,707.17z"/>
<path class="st29" d="M763.24,705.44c0.04,2.14-2.88,0.98-3.54,2.33c-3.12,0.66-3.3-1.91-4.7-3.15c0.04-0.15,0.05-0.31,0.04-0.46
	c0.95,0.13,1.89,0.27,2.84,0.4C759.7,704.66,761.73,703.88,763.24,705.44z"/>
<path class="st30" d="M751.06,687.66c-0.11-1.65-0.92-1.43-1.86-0.47c-2.45,2.51-5.62,4.07-9.17,5.14
	c-0.75-0.26-1.08-0.67-0.64-1.35c3.43-1.64,6.85-3.27,9.6-5.76c0.77-0.69,1.85-1.18,2.99-0.33c0.62,0.89,0.44,1.78,0,2.67
	C751.72,687.86,751.41,687.89,751.06,687.66z"/>
<path class="st31" d="M853.02,653.56c2.21-0.2,2.37,1.18,2.4,2.46c0.07,2.73,0,5.46-0.02,8.19c-0.82,0.97,0.51,2.74-1.62,3.23
	c-1.03-0.03-1.31-0.67-1.52-1.37c0.01-0.26,0.07-0.52,0.19-0.77c0.66-0.73,0.75-1.6,0.81-2.48c0.04-0.4,0.12-0.78,0.23-1.16
	c0.46-1.74,0.5-3.48-0.05-5.21c-0.12-0.26-0.21-0.53-0.28-0.8C853.03,654.95,852.62,654.28,853.02,653.56z"/>
<path class="st32" d="M807.58,705.82c-0.43-1.03-0.86-2.07-1.29-3.1c-0.25-0.7-0.75-1.35-0.57-2.14c0.1-0.3,0.28-0.54,0.55-0.74
	c0.49-0.21,0.99-0.23,1.51-0.08c1.85,1.01,2.61,2.55,2.86,4.35c-0.48,0.91-0.97,1.82-2.25,2.1
	C808.05,706.18,807.77,706.06,807.58,705.82z"/>
<path class="st33" d="M785.79,702.38c-0.65,0.02-1.11,0.3-1.48,0.73c-0.83,0.31-1.66,0.55-2.56,0.21c-0.67-0.35-1.03-0.85-1.04-1.53
	c0.46-1.49,1.54-2.46,3.28-2.89c2.56,0.09,3.22,1.35,2.77,3.3C786.49,702.52,786.17,702.58,785.79,702.38z"/>
<path class="st34" d="M849.34,677.23c1.26-0.72,0.14-2.48,1.79-3.03c0.96,2.3-0.77,6.63-3.14,7.84
	C847.69,680.28,848.6,678.77,849.34,677.23z"/>
<path class="st35" d="M744.21,653.65c-2.68-1.12-5.73,0.28-8.4-0.92C738.26,650.81,742.67,651.29,744.21,653.65z"/>
<path class="st36" d="M795.11,659.66c0.08,0.76,0.16,1.52,0.24,2.29c-0.81,1.34-0.56,3.12-2.32,4.06c-0.59,0.31-1.2,0.54-1.91,0.3
	c-0.82-0.64-0.6-1.37-0.26-2.11c0.6-1.01,1.28-1.98,1.95-2.95C793.48,660.6,793.68,659.48,795.11,659.66z"/>
<path class="st37" d="M817.19,663.37c1.55-0.14,1-1.03,1.06-1.86c0.11-1.39,0.59-2.76,0.92-4.14c0.02-0.2,0.04-0.4,0.06-0.6
	c0.29-0.19,0.59-0.19,0.91-0.03c1.03,2.53,0.3,5.07,0.05,7.61c-0.64,0.77-1.45,1.32-2.62,1.33
	C816.37,665.03,816.33,664.26,817.19,663.37z"/>
<path class="st14" d="M781.82,703.11c0.83-0.17,1.66-0.36,2.49,0.01c-2.42,2.08-5.55,3.04-8.66,4.03c-0.46-1.35,1.34-1.14,1.77-1.87
	C778.02,703.26,780.08,703.42,781.82,703.11z"/>
<path class="st38" d="M718.98,694.74c1.16-1.46,0.25-3.13,0.64-4.67c0.45-0.16,0.8-0.06,1.07,0.28c1.06,2.14,0.4,4.22-0.33,6.29
	c-0.28,1.45-0.08,2.84,0.55,4.2l0.01-0.04c-2.41-0.15-1.65-1.87-1.89-2.99C718.8,696.83,718.98,695.78,718.98,694.74z"/>
<path class="st39" d="M752.91,694.22c-0.18,2.83,1.88,5.35,1.58,8.2c-2.59-0.47-0.67-2.71-2.06-3.89c-0.85-0.73-0.48-2.51-0.65-3.82
	C752.02,694.3,752.32,694.01,752.91,694.22z"/>
<path class="st40" d="M747.62,656.68c-0.78-0.95-1.56-1.91-2.35-2.86c3.83-0.07,5.46,1.51,4.55,4.4
	C749.08,657.71,748.35,657.2,747.62,656.68z"/>
<path class="st41" d="M785.89,683.18c0.21-0.06,0.41-0.11,0.62-0.17c0.43-0.37,0.31-0.77,0.1-1.17c-0.07-0.16-0.14-0.32-0.22-0.48
	c-0.21-0.6,0.19-0.82,0.77-0.94c0.38,0,0.71,0.12,0.99,0.34c0.23,0.26,0.39,0.54,0.5,0.85c0.22,1.29,0.26,2.58-0.11,3.87
	c-0.6,0.96-0.4,2.51-2.42,2.45C784.53,686.4,784.83,684.81,785.89,683.18z"/>
<path class="st42" d="M800.53,653.69c0.59,0.23,0.87,0.66,0.98,1.18c-0.18,0.7-0.91,0.92-1.49,1.28c-1.51-0.46-1.82,1.56-3.29,1.18
	C796.16,654.71,798.42,654.26,800.53,653.69z"/>
<path class="st43" d="M725,706.49c1.61-1.36,3.78,0.7,5.39-0.64c1.56,0.07,1.3,0.91,1.02,1.77c-1.33,0.96-2.98,0.45-4.47,0.71
	C725.61,708.25,725.42,707.28,725,706.49z"/>
<path class="st44" d="M807.58,705.82c0.22,0.04,0.45,0.07,0.67,0.1c2.49,0.67,5.26,0.42,7.55,1.72c0.15,0.23,0.29,0.46,0.44,0.7
	C811.52,709.46,809.13,708.77,807.58,705.82z"/>
<path class="st45" d="M800.79,695.02c-0.19-4,3.16-2.48,5.48-2.57c0.39,0.32,0.44,0.7,0.27,1.13c-0.4,0.52-1,0.65-1.68,0.59
	C803.35,693.94,802.13,694.68,800.79,695.02z"/>
<path class="st46" d="M834.16,660.36c-2.01-1.78-3.26-3.86-3.34-6.38c0.17-0.14,0.37-0.22,0.61-0.24c1.78,1.14,2.63,2.81,3.47,4.49
	C835.1,659.05,835.07,659.82,834.16,660.36z"/>
<path class="st47" d="M787.14,674.74c0.35-1.83-1.09-4.38,2.64-4.86c0.28,0.4,0.35,0.84,0.32,1.3c-0.17,1.3-0.5,2.59-0.89,3.84
	c-0.36,1.17-1.17,1.7-2.01,0.16C787.18,675.03,787.16,674.89,787.14,674.74z"/>
<path class="st48" d="M843.67,692.06c-0.21-2.36,0.12-4.53,2.91-5.78C845.58,688.19,846.6,690.86,843.67,692.06z"/>
<path class="st49" d="M772.82,689.42c0.27-1.8,2.85-0.45,3.42-1.84c2.32-0.74,4.62-0.94,6.88,0.14c-0.31,0.4-0.77,0.6-1.29,0.72
	c-1.52,0.14-3.11,0.06-4.38,1.03C775.9,689.85,774.34,690.8,772.82,689.42z"/>
<path class="st50" d="M837.02,703.45c-1.37-1.35,0.51-2.22,1.07-2.65c1.01-0.79,0.96-1.57,1.05-2.46c0.28-0.35,0.67-0.41,1.12-0.34
	c0.45,0.16,0.6,0.49,0.66,0.87C839.98,700.62,839.29,702.54,837.02,703.45z"/>
<path class="st51" d="M765.42,655.74c3.98,0.65,3.05,3.4,3.28,5.66c0,0,0.05-0.03,0.05-0.03c-0.2,0.21-0.45,0.27-0.75,0.18
	c-0.7-0.45-1.03-1.17-1.66-1.66c-0.72-0.68-0.7-1.57-0.93-2.39c-0.12-0.35-0.2-0.71-0.23-1.07
	C765.17,656.18,765.25,655.95,765.42,655.74z"/>
<path class="st52" d="M852.72,665.5c0.31,0.55,0.61,1.1,0.92,1.66c0.15,0.25,0.14,0.49-0.06,0.72c-0.2,1.4,0.04,2.93-1.52,3.94
	c-0.98-1.65,0.55-3.52-0.64-5.15C850.78,665.4,851.31,665.09,852.72,665.5z"/>
<path class="st53" d="M789.26,670.75c-0.2-0.45,0.21-0.64,0.51-0.87c0.03-1.3,0.56-2.48,1.35-3.57c0.61-0.24,1.22-0.48,1.83-0.72
	c1.03,1.98-0.29,3.52-1.29,5.13c-0.25,0.23-0.56,0.38-0.92,0.46C790.17,671.23,789.68,671.09,789.26,670.75z"/>
<path class="st54" d="M758.43,654.61c-0.47-2.31,1.56-1.87,3.03-2c1.89-0.17,3.14,0.34,2.94,2.23c-0.22,0.14-0.46,0.21-0.73,0.2
	c-0.39-0.03-0.76-0.13-1.13-0.24c-0.47-0.13-0.95-0.23-1.45-0.22c-0.51,0.03-1,0.16-1.5,0.24
	C759.17,654.86,758.78,654.8,758.43,654.61z"/>
<path class="st55" d="M798.46,700.07c0.16-0.52,0.61-0.72,1.18-0.78c0.57,3.17-1.39,5.36-3.88,7.33c-0.49-0.14-0.7-0.45-0.73-0.87
	c0.34-1.13,1.4-1.93,1.84-3.02C797.25,701.78,798.3,701.12,798.46,700.07z"/>
<path class="st56" d="M840.4,655.57c0.67-0.04,1.34-0.09,2.01-0.13c0.66,0.81,0.02,1.41-0.44,2.04c-0.34,0.38-0.66,0.77-0.92,1.2
	c-0.27,0.44-0.59,0.84-1.07,1.13c-0.26,0.12-0.54,0.18-0.84,0.19c-0.29-0.05-0.55-0.15-0.79-0.31
	C837.43,657.75,839.45,656.85,840.4,655.57z"/>
<path class="st57" d="M785.79,702.38c0.22,0,0.44-0.01,0.65-0.04c1.78-0.64,2.38,0.29,2.76,1.52c0.04,1.09-0.5,1.86-1.73,2.23
	c-0.38,0.07-0.73,0.01-1.04-0.19C785.5,704.83,785.01,703.69,785.79,702.38z"/>
<path class="st58" d="M725.34,656.09c-0.96,1.62-3,2.29-4.31,3.61c-0.44,0.28-0.85,0.28-1.21-0.11
	C720.6,657.19,722.7,656.32,725.34,656.09z"/>
<path class="st59" d="M853.02,653.56c0.45,0.59,1.21,1.07,0.94,1.92c-0.39,0.72,0.34,1.96-1.34,2.07c-2.12-0.99-2.01-2.69-1.87-4.39
	c0.13-0.3,0.35-0.53,0.66-0.71c0.43-0.02,0.86-0.03,1.3-0.05C852.81,652.79,852.91,653.18,853.02,653.56z"/>
<path class="st60" d="M719.49,671.41c-0.17-0.02-0.33-0.04-0.5-0.05c-0.19-3.25-0.24-6.49,0.4-9.71c1.93,1.24,0.65,3.23,1.53,4.72
	c0.25,0.82,0.24,1.65,0.07,2.48C720.58,669.74,720.55,670.8,719.49,671.41z"/>
<path class="st61" d="M840.92,698.87c-0.18-0.21-0.36-0.42-0.53-0.64c-1.74-1.85,0.61-2.73,1.29-4c0.11-0.68,0.67-0.8,1.33-0.78
	C843.68,695.65,841.72,697.1,840.92,698.87z"/>
<path class="st62" d="M806.15,700.14c0.04,0.86,0.09,1.71,0.13,2.57c-1.88-2.06-2.18-4.36-1.43-6.82
	C807.57,696.8,806.37,698.58,806.15,700.14z"/>
<path class="st63" d="M833.61,708.33c-0.33-0.44-0.67-0.88-1-1.32c1.11-1.01,1.73-2.47,3.53-2.86
	C837.1,706.34,834.53,706.97,833.61,708.33z"/>
<path class="st64" d="M755.84,657.82c0.24-0.59,0.84-1.1,0.55-1.81c0.69-0.36,1.38-0.72,2.06-1.08c0.41-0.34,0.89-0.27,1.38-0.16
	c0.23,0.21,0.36,0.46,0.4,0.74c-0.48,1.36-1.29,2.51-2.85,3.17C756.64,658.7,756.23,658.27,755.84,657.82z"/>
<path class="st65" d="M823.62,653.84c-0.76,1.54-1.51,3.08-2.27,4.62c-0.23,0.21-0.5,0.25-0.8,0.14c-0.56-0.97,0.28-2.05-0.32-3.02
	c0.04-0.27,0.18-0.49,0.41-0.67c0.68-0.26,0.54-1.43,1.72-1.15C822.81,653.48,823.23,653.51,823.62,653.84z"/>
<path class="st66" d="M787.05,680.67c-0.22,0.23-0.44,0.45-0.66,0.68c-1.39-2.34-0.34-4.48,0.75-6.62c0,0,0.06,0.21,0.06,0.21
	C788.06,676.87,789,678.8,787.05,680.67z"/>
<path class="st67" d="M795.11,659.66c-0.59,0.59-1.17,1.18-1.76,1.77c-0.46-0.07-0.74-0.29-0.84-0.68c1.09-1.44,1.17-3.81,4.25-3.46
	c-0.05,0.24-0.1,0.49-0.15,0.73c-0.22,0.26-0.39,0.55-0.63,0.8c-0.24,0.25-0.38,0.56-0.67,0.77L795.11,659.66z"/>
<path class="st68" d="M761.07,708.92c2.16-1.27,4.6-1.36,7.1-1.22c0.3,0.37,0.29,0.73,0,1.1
	C765.8,708.83,763.44,708.88,761.07,708.92z"/>
<path class="st69" d="M834.16,660.36c0-0.86,0-1.71,0-2.57c-0.05-0.49,0.22-0.68,0.77-0.59c1.35,0.93,1.37,2.24,1.42,3.55
	c-0.11,0.1-0.21,0.19-0.32,0.29c-0.47,0.17-0.9,0.1-1.29-0.18C834.56,660.7,834.36,660.53,834.16,660.36z"/>
<path class="st70" d="M830.18,653.41c-0.74-0.2-1.68,0.04-2.16-0.73c-0.21-0.37-0.76-0.38-1-0.72c1.13-1.61,2.55-0.79,3.66-0.13
	C831.51,652.32,831.59,653.16,830.18,653.41z"/>
<path class="st71" d="M834.94,657.2c-0.26,0.2-0.51,0.4-0.77,0.59c-1.08-1.27-2.17-2.53-2.74-4.06
	C833.89,653.93,834.36,655.61,834.94,657.2z"/>
<path class="st72" d="M720.16,666.69c-1.22-1.57-0.28-3.38-0.76-5.04c-0.12-0.73-0.1-1.43,0.43-2.06c0.4,0.03,0.81,0.07,1.21,0.11
	c-0.02,0.54-0.04,1.07-0.05,1.61c-0.11,1.4-0.06,2.81,0.03,4.21C720.91,666.01,720.67,666.42,720.16,666.69z"/>
<path class="st73" d="M720.92,700.82c0,0-0.01,0.04-0.01,0.04c0.72,1.55,2.19,2.86,2.04,4.69
	C720.94,704.39,719.95,702.91,720.92,700.82z"/>
<path class="st74" d="M806.15,700.14c-1.23-1.24,0.48-3.13-1.29-4.25c0-0.58,0-1.15-0.01-1.73c0.26-0.47,0.74-0.6,1.29-0.62
	c1.56,2.04,1.53,4.14,0.37,6.29C806.37,699.93,806.25,700.03,806.15,700.14z"/>
<path class="st75" d="M795.18,706.04c0.19,0.19,0.39,0.39,0.58,0.58c-0.76,0.96-1.72,1.61-3.16,1.56c-0.77-0.72-2.52,0.51-2.87-1.05
	c0.28-0.39,0.72-0.59,1.2-0.72C792.36,706.4,793.68,705.41,795.18,706.04z"/>
<path class="st76" d="M785.89,683.18c0.17,1.56-0.8,3.22,0.59,4.67c0.17,0.27,0.16,0.53-0.04,0.79c-0.54,0.39-1.08,0.71-1.68,0.07
	c-0.41-1.08,0.46-2.24-0.26-3.31C784.86,684.61,783.31,682.95,785.89,683.18z"/>
<path class="st77" d="M792.52,660.75c0.28,0.23,0.56,0.45,0.84,0.68c-0.14,1.38-1.33,2.07-2.49,2.77
	C791.37,663.03,790.69,661.45,792.52,660.75z"/>
<path class="st78" d="M784.51,685.39c1.19,1.02,0.37,2.29,0.59,3.42c-0.98,0.98-2.1,0.93-3.3,0.35c-0.46-0.45-0.56-0.9-0.01-1.36
	c0.44-0.03,0.89-0.06,1.33-0.09C785.22,687.66,784,686.15,784.51,685.39z"/>
<path class="st79" d="M734.6,653.07c-1.5,0.6-2.98,1.26-4.67,1.4C730.44,652.52,731.55,652.19,734.6,653.07z"/>
<path class="st80" d="M755,704.62c2.11,0.45,1.97,3.38,4.7,3.15c-0.02,0.14-0.02,0.28,0,0.42
	C756.27,708.79,755.49,706.85,755,704.62z"/>
<path class="st81" d="M739.31,691.47c0.24,0.28,0.48,0.57,0.73,0.85c-1.63,1.6,0.35,3.83-1.31,5.42c-0.88-1.56,0.35-3.18-0.17-4.76
	C738.45,692.36,737.49,691.41,739.31,691.47z"/>
<path class="st82" d="M768.17,708.79c0-0.37,0-0.73,0-1.1c1.37-0.17,2.74-0.35,4.11-0.52c0,0,0.28-0.06,0.28-0.06
	C771.91,709.25,769.84,708.65,768.17,708.79z"/>
<path class="st83" d="M752.91,694.22c-0.38,0.16-0.76,0.32-1.13,0.48c-0.08-1.48-0.16-2.95-0.24-4.43
	c-0.19-0.45-0.39-1.01,0.19-1.25c0.71-0.3,0.86,0.24,0.92,0.72c0.13,0.92-0.2,1.88,0.27,2.78
	C752.91,693.09,752.91,693.65,752.91,694.22z"/>
<path class="st84" d="M752.91,692.52c-0.85-0.77-0.53-1.72-0.57-2.62c-0.01-0.16,0.1-0.7-0.45-0.36c-0.21,0.13-0.25,0.48-0.36,0.73
	c-1.09-0.75-0.51-1.71-0.47-2.61c0.24,0.03,0.47,0.06,0.71,0.09c0.42-0.16,0.83-0.26,1.15,0.15
	C752.92,689.44,752.92,690.98,752.91,692.52z"/>
<path class="st85" d="M789.8,707.18c0.68,0.85,2.15,0.05,2.79,0.99c-2.7,0.54-4.71-0.3-6.17-2.27c0.28-0.09,0.56-0.19,0.84-0.28
	c0.55,0.07,1.07,0.2,1.55,0.45C789.27,706.37,789.71,706.66,789.8,707.18z"/>
<path class="st86" d="M726.95,708.33c1.22-1.05,2.77-0.56,4.2-0.66c0.21,0.14,0.29,0.29,0.24,0.45c-0.05,0.16-0.1,0.25-0.16,0.25
	c-1.21,1.1-2.71,0.24-4.05,0.44C727.06,708.65,726.99,708.5,726.95,708.33z"/>
<path class="st87" d="M836.36,660.75c0.49,0.04,0.99,0.09,1.48,0.13c0.32,0.38,0.33,0.8,0.19,1.23c-0.39,0.66-0.73,1.37-1.87,1.05
	c-0.36-0.34-0.51-0.75-0.51-1.21c0.06-0.45,0.31-0.83,0.68-1.15L836.36,660.75z"/>
<path class="st88" d="M837.45,661.97c0.13-0.36,0.26-0.72,0.39-1.08c0.18-0.39,0.35-0.78,0.52-1.17c0.27,0,0.54,0.01,0.81,0.01
	c0.48,0.45,0.6,0.97,0.47,1.56c-0.2,0.58-0.61,0.98-1.35,1.04C837.96,662.29,837.68,662.17,837.45,661.97z"/>
<path class="st89" d="M823.62,653.84c-0.42-0.03-0.84-0.05-1.26-0.08c0.65-0.89,1.5-1.43,2.8-1.19c-0.18,0.68-0.77,1.01-1.46,1.25
	L823.62,653.84z"/>
<path class="st90" d="M827.03,651.96c0.45,0.12,1.02,0.11,1,0.72c-0.87-0.03-1.73-0.05-2.6-0.08
	C825.49,651.51,826.49,652.17,827.03,651.96z"/>
<path class="st91" d="M763.96,654.77c0.15,0.01,0.29,0.03,0.44,0.06c0.34,0.3,0.68,0.61,1.03,0.91c0.02,0.17,0.06,0.33,0.13,0.49
	c-0.17,0.04-0.33,0.07-0.5,0.11c-0.78-0.11-1.22-0.5-1.31-1.18C763.81,655.04,763.88,654.9,763.96,654.77z"/>
<path class="st92" d="M823.7,653.82c0.49-0.42,0.97-0.84,1.46-1.25c0,0-0.03,0.05-0.03,0.05
	C825.76,653.98,824.62,653.81,823.7,653.82z"/>
<path class="st93" d="M759.79,654.85c-0.45,0.03-0.89,0.05-1.34,0.08c0-0.11-0.01-0.22-0.03-0.32c0.44-0.1,0.88-0.2,1.32-0.3
	c0.08,0.09,0.17,0.17,0.25,0.26C759.93,654.66,759.86,654.75,759.79,654.85z"/>
<path class="st94" d="M786.6,681.84c0.55,0.43,0.72,0.83-0.1,1.17C786.54,682.62,786.57,682.23,786.6,681.84z"/>
<path class="st95" d="M722.44,665.48c0.93-0.79,0.1-2.56,1.96-2.78c1.84-0.22,2.47,0.98,3.12,2.17c0.27,0.5,0.83,1.07,1.58,0.87
	c1.03-0.27,0.56-1.14,0.69-1.76c0.13-0.62-0.3-1.5,0.77-1.7c0.44-0.08,1.28,0.2,1.46,0.52c1.87,3.2,2.88,1.56,3.77-0.87
	c1.91,2.19,4.05,2.34,6.49,1.47c0.58-0.21,1.54-0.35,1.95-0.09c2.7,1.69,4.33,0.18,6.01-1.33c1.32,0.85,0.81,2.41,1.83,3.38
	c0.38,1.57,0.61,3.04-2.24,2.55c-0.43-0.07-0.01-0.24-0.31-0.04c-4.01,2.79-7.64,0.62-11.35-0.57c-2.29-0.16-4.41,0.24-6.26,1.44
	c-0.75,0.49-1.82,1.17-2.4,0.72c-2.19-1.72-5.34-1.4-7.57-2.89C721.86,666.13,721.95,665.74,722.44,665.48z"/>
<path class="st96" d="M722.44,665.48c-0.02,0.4-0.04,0.79-0.05,1.19c0.91,1.63,1.63,3.25-0.3,4.75c-2.5-0.95-0.6-2.86-1.24-4.21
	c-0.25-0.56-0.18-1.19-0.47-1.75c0.07-1.4-0.76-2.9,0.6-4.16c1.41,0.93-0.05,2.58,1.21,3.54
	C722.28,665.06,722.36,665.27,722.44,665.48z"/>
<path class="st97" d="M751.56,665.47c-2.27-0.65-0.87-2.32-1.32-3.48c0.45-0.22,0.91-0.43,1.37-0.65c0.69,0.22,0.53,0.78,0.67,1.22
	c0.59,0.43,0.72,0.98,0.58,1.6C752.65,664.76,752.29,665.24,751.56,665.47z"/>
<path class="st98" d="M751.12,659.68c0.72,0.27,0.36,0.44-0.08,0.59C751.07,660.08,751.1,659.88,751.12,659.68z"/>
<path class="st99" d="M791.22,670.69c0.58-1.7,1.16-3.4,1.74-5.09c1.05-1.1,1.08-2.68,2.39-3.65c0.39,2.47,3.08,3.39,5.79,2.3
	c1.07-0.43,2.39-0.4,3.16-1.37c0.99,0.67,1.22,2.06,2.78,2.22c1.05-0.73,0.12-1.94,1.05-2.72c2.57,0.39,2.02,2.4,2.75,3.96
	c0.34-1.96,3.62-1.61,3.61-3.76c2.97,1.07,2.29,3.57,2.96,5.54c-0.07,1.18-0.55,2.26-1.21,3.27c-1.55,2.37-2.39,2.37-4.13,0.1
	c-0.83-1.09-1.71-1.84-2.94-0.21c-0.61,0.81-1.71,0.82-2.76,0.64c-0.48-0.13-0.88-0.36-1.18-0.7c-0.17-0.23-0.31-0.48-0.41-0.74
	c-1.06-2.19-1.98,0.46-2.98,0.07c-0.53,0.07-1.07-0.28-1.62,0.05c-3.14,1.88-3.64,1.71-4.3-1.44c-0.73,0.81-0.98,1.97-2.11,2.4
	C792.75,671.96,791.44,672.38,791.22,670.69z"/>
<path class="st100" d="M816.6,668.26c-0.34-1.99-0.58-4.01-2.1-5.68c-0.01-0.43,0.31-0.63,0.74-0.73c0.65,0.51,1.3,1.02,1.96,1.53
	c-0.16,0.78-0.15,1.53,0.6,2.13c2.44,1,0.94,3.71,2.9,4.92c0.17,0.26,0.24,0.54,0.24,0.83c-0.09,0.45-0.32,0.85-0.64,1.21
	c-0.75,0.73-1.54,1.34-2.74,0.62C815.85,671.68,817.12,669.84,816.6,668.26z"/>
<path class="st101" d="M800.01,656.15c0.5-0.43,0.99-0.85,1.49-1.28c0.7,0.04,1.15-0.77,1.94-0.42c0.5,0.1,0.54,0.28,0.12,0.53
	C802.47,655.58,801.39,656.21,800.01,656.15z"/>
<path class="st102" d="M803.55,654.98c0.01-0.18-0.03-0.36-0.12-0.53c1.16,0.04,2.43-0.59,3.46,0.38
	C805.78,654.89,804.67,654.93,803.55,654.98z"/>
<path class="st103" d="M795.32,659.6c0.05-0.45-0.03-0.94,0.55-1.21c0.28-0.12,0.56-0.15,0.86-0.08
	C796.74,659.13,796.05,659.38,795.32,659.6z"/>
<path class="st104" d="M796.73,658.32c-0.29,0.03-0.57,0.05-0.86,0.08c0.25-0.12,0.5-0.25,0.74-0.37
	C796.7,658.1,796.74,658.2,796.73,658.32z"/>
<path class="st105" d="M840.9,692.38c-0.26,0.79-0.52,1.57-0.78,2.36c-0.01,1.1-0.4,1.98-1.78,2.3c-0.83-0.38-0.51-1.23-1.35-2.48
	c-0.78,3.7-4.03,3.9-6.79,4.73c-0.55,0.16-1.15,0.23-1.6-0.16c-0.49-0.42-0.42-0.95,0.16-1.22c0.91-0.42,1.68-0.77,0.66-1.69
	c-0.45-0.41-0.74-0.34-2.3,0.55c-0.87-1.51,0.67-2.55,0.99-3.82c-0.49-1.61,0.04-2.88,1.72-3.76c1.27-0.26,2.44,0.03,3.52,0.58
	c0.81,0.41,0.9-0.14,1.13-0.54c0.16-0.23,0.39-0.39,0.68-0.49C837.35,689.62,840.23,689.71,840.9,692.38z"/>
<path class="st106" d="M823.21,697.05c-0.37-0.16-0.74-0.32-1.11-0.48c-1.47-1.26-0.47-2.74-0.52-4.12
	c0.05-1.85,0.39-3.72-0.31-5.54c-0.24-0.76-0.56-1.52,0.04-2.26c1.66-0.7,2.45,0.12,3.04,1.29c0.62,1.22,0.93,2.54,1.68,3.71
	c0.32,0.58,0.48,1.16,0.19,1.79c0.05,0.65-0.4,1.09-0.85,1.54C824.26,694.17,823.89,695.67,823.21,697.05z"/>
<path class="st107" d="M826.24,691.44c-0.31-0.39-0.61-0.78-0.92-1.17c0.38-1.09,1.99-0.9,2.56-1.8c1.14-0.99-0.82-2.51,0.78-3.42
	c1.82-0.29,3.05,0.23,3.45,1.87c-0.05,1.2-0.84,1.97-1.98,2.54c-0.97,1.03-1.61,2.21-2.02,3.48
	C827.1,692.79,827.63,691.24,826.24,691.44z"/>
<path class="st108" d="M838.33,697.04c0.69-0.71,0.75-1.78,1.79-2.3c0.51-0.17,1.03-0.34,1.55-0.51c0.59,1.58-2.05,2.39-1.29,4
	c-0.42,0.03-0.83,0.07-1.25,0.1C838.53,698.06,838.43,697.55,838.33,697.04z"/>
<path class="st109" d="M825.32,706.55c-3.2-1.95-3.45-2.79-1.4-4.69C823.61,703.6,825.19,704.92,825.32,706.55z"/>
<path class="st110" d="M821.45,659.64c1.87-2.01,4.03-0.18,6.05-0.31c0.14-0.01,0.43,0.41,0.47,0.65c0.34,1.96,0.36,2.06,2.91,1.34
	c1.39-0.39,2.61,1.46,3.93,0.07c0.29,0.11,0.51,0.29,0.65,0.53c0.14,0.39,0.15,0.79,0.16,1.19c0.03,0.28,0.03,0.55,0.03,0.83
	c-0.06,1.02,0.05,2.1-1.19,2.75c-4.07,1.28-8.26,1.13-12.47,0.8c-0.84-0.59-1.17-1.42-1.43-2.28
	C820.83,663.37,819.65,661.33,821.45,659.64z"/>
<path class="st111" d="M821.45,659.64c-0.03,1.91-0.06,3.82-0.09,5.73c0.3,0.39,0.19,0.66-0.32,0.81c-1.66-2.52-1.03-5.1-0.29-7.69
	c0.2-0.02,0.4-0.03,0.6-0.03C821.38,658.86,821.42,659.25,821.45,659.64z"/>
<path class="st112" d="M835.07,661.93c-0.06-0.18-0.14-0.36-0.25-0.53c0.08-0.19,0.06-0.37-0.06-0.54c0.53-0.02,1.05-0.04,1.58-0.05
	c-0.03,0.39-0.06,0.79-0.09,1.18c-0.16,0.18-0.36,0.28-0.62,0.3C835.37,662.25,835.19,662.13,835.07,661.93z"/>
<path class="st113" d="M757.06,702.46c-1.77-2.95-1.97-6.15-2.05-9.36c-0.14-1.61,1.17-1.08,2.02-0.92
	c0.98,0.19,1.89,0.75,2.92,0.65c5.5-0.55,10.96,0.12,16.42,0.42c2.97,0.16,4.59-0.71,5.1-3.19c2.05-0.86,3,0.47,4.1,1.5
	c1.91,2.88,0.41,5.07-1.94,7.09c-1.41,0.85-2.6,2.07-4.58,1.91c-1.11-0.16-2.27-0.47-3.31,0.11c-3.39,1.91-7.45,0.39-10.98,1.62
	c-0.86,0.3-1.7-0.4-2.53-0.69C760.3,700.91,758.47,700.84,757.06,702.46z"/>
<path class="st114" d="M781.71,690.17c0,0.48-0.01,0.97,0,1.45c0.05,1.79,0.42,2.57-3.02,2.51c-6.29-0.1-12.6-1.49-18.89-0.39
	c-1.31,0.23-2.08,0.14-2.85-0.8c-0.58-0.7-1.36-0.53-1.94,0.15c-0.74-0.75-0.57-1.62-0.46-2.49c3.24-3.02,7.58-3.17,11.81-0.4
	c1.26,1.2,2.79,0.46,4.08,0.22c2.52-0.47,5.06-0.72,7.6-1.02C779.37,689.25,780.73,689.05,781.71,690.17z"/>
<path class="st115" d="M757.06,702.46c0.08-0.86,0.16-1.71,0.26-2.82c2.23,1.35,5.17-0.15,7.01,2c0.41,0.48,1.42-0.2,1.92-0.78
	c0.51-0.6,1.53-1.11,2.03-0.7c2.7,2.25,4.92,0.01,7.32-0.43c1.23-0.22,2.43-0.64,3.41,0.44c0.02,0.8-0.59,1.3-1.3,1.56
	c-5.85,2.19-11.88,3.63-18.36,2.82c-0.35-0.04-0.56-0.3-0.79-0.52C758.06,703.51,757.56,702.98,757.06,702.46z"/>
<path class="st116" d="M754.29,685.44c-0.16-0.07-0.31-0.15-0.45-0.24c-1.62-1.13-1-2.65-0.98-4.06c0.08-0.29,0.22-0.56,0.42-0.81
	c2.45-0.46,5.04-0.38,7.3-1.58c0.82-0.44,1.94-0.18,2.45,0.45c0.94,1.15,2.59,1.46,3.57,2.51c0.46,1.26,0.54,2.5-0.28,3.69
	c-0.57,0.53-1.35,0.81-2.12,0.7C760.92,685.65,757.58,685.79,754.29,685.44z"/>
<path class="st117" d="M754.29,685.44c3.87-2.13,7.75,0.2,11.63-0.04c1.53,1.76,1.54,3.51-0.01,5.27
	c-3.77-2.87-7.56-1.26-11.36-0.05C754.46,688.88,754.37,687.16,754.29,685.44z"/>
<path class="st118" d="M758.56,704.04c7.29,0.58,14.03-1.04,20.44-3.87c1.53-0.36,2.76-1.17,4-1.97c0.64,0.18,0.94,0.54,0.74,1.12
	c-0.91,0.81-1.81,1.62-2.72,2.43c-2.97,2.31-6.87,2.55-10.48,3.46c-1.74,0.07-3.49,0.14-5.24,0.2c-0.69,0.01-1.38,0.01-2.07,0.02
	c-1.78-0.35-3.79,0.37-5.36-0.87C758.1,704.39,758.33,704.21,758.56,704.04z"/>
<path class="st119" d="M752.93,687.9c-0.38-0.05-0.77-0.1-1.15-0.15c-0.04-1-0.08-2.01-0.12-3.01c-0.39-0.36-0.55-0.79-0.53-1.27
	c0.44-2.28,0.21-4.58,0.14-6.88c0.07-0.34,0.27-0.6,0.61-0.79c0.63-0.14,1.17-0.05,1.58,0.42c1.03,1.55,0.25,3.06-0.09,4.59
	c-0.14,1.92,0.3,3.86-0.25,5.77C753.04,687.03,752.99,687.46,752.93,687.9z"/>
<path class="st120" d="M753.1,686.59c-0.02-1.95-0.05-3.9-0.07-5.86c0.21-0.29,0.45-0.33,0.74-0.07c0.02,1.51,0.05,3.02,0.07,4.54
	C753.59,685.66,753.35,686.13,753.1,686.59z"/>
<path class="st121" d="M848.55,674.85c-0.15,0.59-0.3,1.18-0.44,1.77c-0.79,1.75-1.57,3.5-2.36,5.25c-0.96,0.81-1.68,2.28-3.41,0.75
	c-0.67-0.59-1.19,0.08-1.72,0.38c-0.64,0.37-1.43,0.46-1.8-0.11c-1.72-2.6-4.29-1.5-6.57-1.08c-1.89,0.35-3.72,0.65-5.63,0.22
	c-1.85-1.71-2.05-4.06-3.17-6.05c-0.15-0.62-0.09-1.21,0.3-1.76c1.33-1.01,3.02-1.42,4.65-1.42c2.64-0.01,5.06-0.71,7.57-1.17
	c0.51,0.04,0.95,0.23,1.35,0.49c1.87,1.36,4.2,1.17,6.37,1.22C845.57,673.41,847.18,673.73,848.55,674.85z"/>
<path class="st122" d="M826.95,681.86c3.26-1.06,6.76-1.07,10.13-1.62c1.8-0.29,1.9,1.34,2.31,2.8c1.36-1.31,2.43-4.3,4.13-0.56
	c0.41,0.89,1.31-0.77,2.23-0.59c-1.21,2.77-2.22,5.62-3.94,8.21c-1.92-0.25-1.92-0.25-2.58-2.68c-1.6,0.13-3.14,0.41-4.27,1.52l0,0
	c-2.19,0.86-2.12-1.32-3.3-1.81c-0.57-1.47-1.94-1.76-3.51-1.76c-0.13-0.07-0.26-0.15-0.4-0.22
	C827.15,684.1,825.99,683.17,826.95,681.86z"/>
<path class="st123" d="M834.96,688.92c0.04-1.15-0.15-2.79,1.93-2.18c2.1,0.62,2-0.9,2.78-1.65c1.97,1.37-0.85,4.09,2.13,5
	c-0.3,0.76-0.61,1.53-0.91,2.29C839.44,690.57,836.25,690.94,834.96,688.92z"/>
<path class="st124" d="M723.09,700.56c-0.96-1.84-0.73-3.81-0.89-5.74c-0.35-1.89,0.62-3.47,2.78-3.02c3.05,0.65,6.2,0.25,9.16,1.12
	c0.85,3.09,0.38,6.02-1.47,8.78C728.29,704.55,725.8,704.26,723.09,700.56z"/>
<path class="st125" d="M733.78,692.99c-2.61,0.08-5.07,1.44-7.87-0.4c-2-1.31-2.78,1.04-3.71,2.23c-0.18-0.03-0.36-0.06-0.54-0.1
	c-1.23-1.11-0.6-2.45-0.63-3.7c0.64-1.43,2.01-2.34,3.38-3.15c4.26-2.5,7.27-1.82,9.93,2.07c0.17,0.29,0.28,0.59,0.34,0.91
	C734.75,691.68,734.71,692.47,733.78,692.99z"/>
<path class="st126" d="M731.22,708.36c-0.02-0.23-0.05-0.46-0.07-0.69c0-0.68,0.09-1.39-0.75-1.81c0.5-0.56,1-1.11,1.5-1.67
	c-0.1-1.62,1.57-2.02,2.64-2.83c2.75-1.14,2.75-1.14,2.78,0.5C736.62,706.39,735.39,707.7,731.22,708.36z"/>
<path class="st127" d="M734.53,701.83c0.12,1.61-2.18,1.22-2.64,2.35c-0.32-0.04-0.63-0.09-0.95-0.13
	c-0.65-1.01,0.25-1.62,0.83-2.31c1.56-2.76,2.08-5.71,2-8.75c0.1-0.75,0.21-1.49,0.31-2.24c2.19,0.42,0.67,1.92,1.13,2.84
	c0.01,1.96,0.02,3.91,0.03,5.87C736.31,700.54,735.03,701.1,734.53,701.83z"/>
<path class="st128" d="M731.77,701.74c-0.28,0.77-0.55,1.54-0.83,2.31c-4.89,1.46-6.68,0.66-7.86-3.49
	C725.67,702.63,728.46,703.62,731.77,701.74z"/>
<path class="st129" d="M720.35,696.66c-0.08-2.18-0.15-4.35-0.23-6.53c-0.49-2.9-0.11-5.82-0.21-8.74c-0.02-0.4,0.2-0.66,0.64-0.79
	c0.41,0.13,0.72,0.36,0.94,0.69c1.19,4.92-0.25,9.76-0.56,14.64C720.75,696.17,720.55,696.41,720.35,696.66z"/>
<path class="st130" d="M720.94,695.93c-0.05-5.08-0.1-10.17-0.15-15.25c0.2-0.04,0.4-0.08,0.6-0.12c0.38,0.16,0.67,0.41,0.85,0.74
	c0.32,3.13,1.2,6.28-0.49,9.33c-0.04,1.37-0.07,2.73-0.11,4.1C721.42,695.12,721.18,695.53,720.94,695.93z"/>
<path class="st131" d="M810.42,704.12c-0.92-1.38-1.83-2.75-2.75-4.13c-1.07-1.74-1.61-3.48,0.12-5.18
	c0.18-0.04,0.36-0.06,0.54-0.06c0.14,0.07,0.28,0.13,0.42,0.2c1.06,0.88,1.02,2.09,1.31,3.2c1.15,4.35,3.32,5.2,7.78,3.06
	c0.4-0.19,0.81-0.32,1.27-0.36c0.33,0.03,0.62,0.14,0.87,0.33c0.16,2.2-1.58,3.15-3.54,3.97
	C813.52,706.67,812.43,706.48,810.42,704.12z"/>
<path class="st132" d="M819.97,701.17c-0.21,0.01-0.43,0.02-0.64,0.03c-1.36-1.31-0.42-2.79-0.45-4.2
	c-0.47-3.22,1.42-6.38,0.32-9.61c-0.15-0.48-0.22-0.97-0.22-1.47c-0.07-1.18-0.22-2.36,0.35-3.49c0.44-0.69,1.06-1,1.97-0.71
	c0.68,0.49,0.84,1.14,0.8,1.85c-0.07,0.53-0.4,0.95-0.73,1.38c0.22,0.55,0.45,1.11,0.67,1.66c0.78,1.89-0.72,3.92,0.48,5.79
	c0.59,1.45-0.99,2.73-0.42,4.18C821.05,697.99,821.36,699.87,819.97,701.17z"/>
<path class="st133" d="M810.42,704.12c1.79,1.26,3.8,1.58,6.02,1.02c0.96,1.05,0.64,1.86-0.63,2.5c-2.71,0.05-5.52,0.44-7.55-1.72
	C809.16,705.48,808.88,704,810.42,704.12z"/>
<path class="st134" d="M819.88,685.99c0.04,0.39,0.08,0.77,0.12,1.16c0.47,3.29,0.01,3.84-3.63,3.86c-2.82,0.01-5.63-0.19-8.15-1.48
	c-2.45,0.21-4.9,0.43-7.35,0.64c-1.06-0.13-1.7,0.35-2.15,1.09c-0.45,0.56-0.73,1.28-1.69,1.38c-0.33-0.01-0.64-0.1-0.93-0.23
	c-1.84-1.02-3.85-1.35-6.02-1.12c-1.1,0.12-2.22,0.17-3.17-0.5c-0.76-0.74-0.84-1.6-0.56-2.51c0.05-0.14,0.09-0.29,0.11-0.44
	c1.28-0.51,0.32-1.87,1.27-2.5c1.94-0.89,3.94-1.04,6.19-1.02c6.9,0.07,13.81,0.97,20.72,0.13
	C816.62,684.22,818.55,684.47,819.88,685.99z"/>
<path class="st135" d="M808.23,689.53c2.87-0.79,5.48,0.73,8.34,0.66c2.76-0.07,3.7-0.85,3.44-3.04c1.68,3.33-0.7,6.63-0.11,9.95
	c-2.74-0.59-5.13-2.04-8.09-2.24c-1.05-0.07-2.15-0.13-3.22-0.19c0,0-0.26,0.09-0.26,0.09
	C808.29,693.01,808.26,691.27,808.23,689.53z"/>
<path class="st136" d="M807.78,694.81c-0.93,1.71-0.04,3.45-0.12,5.18c-0.39-0.05-0.77-0.1-1.16-0.15c-0.12-2.1-0.24-4.2-0.37-6.3
	c0.04-0.37,0.08-0.73,0.13-1.1c0.28-0.53-0.84-1.41,0.37-1.62c0.79-0.14,0.97,0.59,1.01,1.18
	C807.69,692.94,807.74,693.88,807.78,694.81z"/>
<path class="st137" d="M751.8,683.64c-0.05,0.37-0.1,0.73-0.14,1.1c-1.34-0.38-1.74,0.65-2.37,1.23c-2.78,2.58-6.01,4.53-9.98,5.5
	c-0.93,0.26-0.56,1-0.75,1.52c-0.86-0.76-1.68,0.79-2.54,0.03c-1.53-3.21-1.15-4.22,2.14-5.78c2.13-1.01,4.58-1.58,6.21-3.29
	c1.21-0.5,2.32-1.06,2.86-2.22c0.47-1,1.25-1.78,2.55-2.08c0.37-0.06,0.74-0.05,1.1,0.02C752.87,680.71,751.78,682.27,751.8,683.64z
	"/>
<path class="st138" d="M744.97,684.34c-0.98,1.34-2.23,2.44-4.09,2.74c-3.91,0.64-5.69,2.49-4.86,5.94
	c-0.27,0.19-0.53,0.38-0.8,0.57c-1.15-0.72-0.17-2.07-1.13-2.84c-0.09-0.23-0.19-0.45-0.28-0.68c-1.34-1.97,0.03-2.93,1.93-3.51
	c2.37-0.73,4.66-1.54,6.58-2.97c0.31-0.16,0.64-0.24,1.01-0.25C744.07,683.43,744.67,683.7,744.97,684.34z"/>
<path class="st139" d="M734.53,701.83c-0.71-1,0.95-1.47,0.71-2.37c0.9,0.03,1.8,0.06,2.7,0.09c-0.03,0.8,0.21,1.66-0.63,2.3
	C736.41,700.26,735.45,702.47,734.53,701.83z"/>
<path class="st140" d="M768.01,661.25c0.24,0.04,0.49,0.08,0.73,0.12c1.01,4.86,0.56,9.78,0.77,14.67c-0.07,1.58-0.14,3.15-0.2,4.73
	c-0.67,0.3-1.25,0.25-1.72-0.3c-1.16-3.79-0.29-7.65-0.54-11.47c-0.07-1.15-0.02-2.31-0.02-3.46
	C767.21,664.09,766.59,662.5,768.01,661.25z"/>
<path class="st141" d="M841.16,657.37c0.42-0.64,0.84-1.28,1.26-1.92c2.38-2.37,4.77-4.7,8.99-2.99c-0.1,0.12-0.19,0.25-0.28,0.38
	c-5.17,0.9-6.71,4.69-8.74,8.09c-0.47,0.6-0.94,1.2-1.91,1.23c-0.52-0.15-0.84-0.47-1.02-0.9c-0.02-0.57-0.23-1.15,0.25-1.67
	c0.26-0.33,0.52-0.66,0.77-1C840.78,658.21,840.65,657.66,841.16,657.37z"/>
<path class="st142" d="M797.21,698.14c-0.42,0.82-0.84,1.64-1.26,2.47c0.16,1.51-0.9,2.32-2.32,2.91c-4.5,0.39-6.43-0.98-6.97-4.94
	c0.2-0.34-0.12,0.07,0.09-0.27c1.89-3.03,1.89-3.03,4.81-0.71c1.33-1.09,2.21-2.41,2.88-3.87c0.37-0.81,0.55-2.11,2.26-1.29l0,0.01
	C798.71,694.23,796.53,696.28,797.21,698.14z"/>
<path class="st143" d="M797.21,698.14c-1.04-1.84-0.24-3.81-0.5-5.7c0.67-0.39,1.35-0.79,2.02-1.18
	C799.24,693.72,797.78,695.86,797.21,698.14z"/>
<path class="st144" d="M793.97,702.89c0.66-0.76,1.32-1.52,1.97-2.28c0.31,0.03,0.61,0.06,0.92,0.09c0.69,0.71,0.56,1.46,0.13,2.22
	c-0.97,1.27-2.08,2.26-4.06,1.46C791.82,703.14,793.76,703.46,793.97,702.89z"/>
<path class="st145" d="M796.66,702.87c0.07-0.72,0.14-1.44,0.21-2.16c0.53-0.21,1.06-0.42,1.6-0.63c0.5,1.16-0.22,2.03-0.94,2.9
	C797.18,703.22,796.9,703.18,796.66,702.87z"/>
<path class="st146" d="M848.55,674.85c-3.4-0.47-6.76-1.12-10.26-0.81c-0.89,0.08-1.19-0.78-1.28-1.49
	c-1.09-2.04,0.36-3.85,0.7-5.76c0.34-0.71,0.85-1.29,1.61-1.7c1.78-0.24,1.66-2.72,3.34-2.5c2.06,0.26,1.03,2.28,1.71,3.4
	c0.7,1.14,1.87,0.72,2.6,0.21c2.79-1.93,3.6-0.46,4.16,1.63C850.27,670.17,849.41,672.51,848.55,674.85z"/>
<path class="st147" d="M851.12,667.83c-1.21-1.21-1.75-1.3-3.86-0.59c-3.36,1.12-4.03,0.73-4.13-2.45
	c-0.02-0.55-0.08-1.11-0.13-1.71c-1.97,0.06-0.38,3.69-3.46,2.34c-0.81-1.36-0.45-2.45,1.01-3.3c0.35-0.46,0.69-0.92,1.04-1.38
	c3.79-2.29,8.03-0.9,12.07-1.1c0.49,0.65,0.43,1.33,0.15,2.02c-1.27,1.09-0.06,2.7-1.11,3.84c0,0,0.01-0.01,0.01-0.01
	c-1.03-0.1-1.27,0.45-1.3,1.17C851.33,667.06,851.23,667.44,851.12,667.83z"/>
<path class="st148" d="M786.36,688.29c0.62,0.72,0.85,1.53,0.83,2.41c1.82,1.97,0.92,4.14,0.61,6.25c-0.08,0.38-0.23,0.73-0.59,1.01
	c-0.45,0.35-0.58,1.21-1.48,0.84c-0.87-0.36-0.79-0.99-0.53-1.73c0.6-1.74,1.96-3.54-0.16-5.23c-1.11-0.56-1.72-1.86-3.34-1.67
	c-4.48-0.48-8.81,0.04-13.05,1.38c-1.08,0.34-2.7,1.35-2.75-0.89c0-1.76,0.01-3.51,0.01-5.27c0.02-1.36,0.05-2.73,0.07-4.09
	c-0.16-0.59,0.18-0.73,0.78-0.67c0.66,0.48,0.92,1.16,1.2,1.82c0.1,0.26,0.17,0.53,0.22,0.8c0.46,2.12-0.57,4.36,0.7,6.42
	c0.27,0.07,0.54,0.13,0.81,0.17c1.03-0.14,2.07-0.29,3.1-0.43c1.67,0.48,3.07-0.71,4.68-0.57c1.42-0.7,2.85-0.7,4.29-0.02
	c1.11-0.01,2.21-0.01,3.32-0.02C785.52,688.64,785.94,688.47,786.36,688.29z"/>
<path class="st149" d="M769.71,689.85c-0.05,0.09-0.11,0.18-0.17,0.27c-1.72,0.6-1.83-0.36-1.84-1.4c-0.01-1.8,0-3.59,0-5.39
	c0.1-0.86-0.64-1.82,0.44-2.55c0.39,0,0.78,0,1.17,0C769.73,683.79,768.71,686.85,769.71,689.85z"/>
<path class="st150" d="M719.49,671.41c0.21-0.8-0.18-1.71,0.64-2.39c1.58,3.88,1.73,7.79,0.21,11.71l-0.21-0.05
	c-0.15,0.3-0.31,0.32-0.48,0.02C719.6,677.6,719.54,674.51,719.49,671.41z"/>
<path class="st151" d="M719.65,680.7c0.16,0,0.32-0.01,0.48-0.02c0,3.15,0,6.3,0,9.45c-0.17-0.02-0.34-0.03-0.51-0.05
	C719.63,686.95,719.64,683.83,719.65,680.7z"/>
<path class="st152" d="M755.84,657.82c0.44,0.21,0.89,0.42,1.33,0.63c1.34,2.16-0.91,4.1-0.52,6.2c-0.02,0.3-0.08,0.6-0.17,0.89
	c-0.61,1.06-0.24,2.37-1.13,3.37c-1.71,0.54-1.89-0.81-2.58-1.54c-0.23-0.76,0.05-1.46,0.36-2.15c0.99-1.8,1.49-3.77,2.55-5.55
	C755.73,659.05,755.79,658.43,755.84,657.82z"/>
<path class="st153" d="M755.68,659.66c-0.59,1.96,0.01,4.22-1.96,5.85c-0.87-0.06-1.31-0.54-1.58-1.19c0.05-0.59,0.1-1.18,0.15-1.77
	c1.53,0.24,2.02-0.57,2.08-1.64C754.41,660.13,754.59,659.58,755.68,659.66z"/>
<path class="st154" d="M770.54,705.21c3.28-1.62,6.74-2.86,10.48-3.46c0.27,0.45,0.53,0.9,0.8,1.35c-0.81,1.7-3.41,0.73-4.4,2.17
	C775.13,704.61,772.82,706.02,770.54,705.21z"/>
<path class="st155" d="M853.32,661.81c0.02-0.73,0.04-1.46,0.05-2.19c-0.69-0.64-1.55-1.24-0.67-2.23c1.08-0.32,0.45-1.46,1.25-1.91
	c0.07,0.25,0.14,0.51,0.21,0.76c0.4,1.92,0.4,3.85,0,5.77c-0.07,0.42-0.13,0.83-0.2,1.25C852.95,663.04,852.9,662.5,853.32,661.81z"
	/>
<path class="st156" d="M854.16,662.01c0-1.92,0-3.85,0-5.77C855.05,658.16,855.02,660.09,854.16,662.01z"/>
<path class="st157" d="M785.04,691.85c0.29-0.4,0.58-0.81,1.26-1.75c0.05,2.83,0.82,5.1-0.55,7.3c-0.3,0.49-0.42,0.94,0.34,1.02
	c0.28,0.03,0.64-0.45,0.97-0.7c0.2,0.08,0.29,0.18,0.28,0.31c-0.01,0.14-0.04,0.22-0.09,0.22c0.97,4.26,1.8,4.84,6.72,4.64
	c-0.4,0.45-0.81,0.9-1.21,1.35c-0.12,0.07-0.25,0.15-0.37,0.22c-1.03,0.29-2.07-0.14-3.1,0.01c-0.3-0.04-0.55-0.17-0.73-0.38
	c-0.18-1.06-0.96-1.57-2.12-1.75c-0.6-1.21,0.14-3.29-2.7-3.02c-0.25-0.37-0.49-0.75-0.74-1.12
	C784.95,696.38,786.47,694.46,785.04,691.85z"/>
<path class="st158" d="M820.55,670.73c-1.4-0.06-2.1-0.77-1.94-1.89c0.17-1.22-0.54-2.23-0.81-3.34c0.34-0.78,1.03-1.17,1.96-1.3
	c0.85,0.93,0.56,2.25,1.5,3.16C821.59,668.57,821.85,669.77,820.55,670.73z"/>
<path class="st159" d="M820.5,667.25c-1.17-0.85-0.35-2.06-0.74-3.05c-0.72-2.54,0.4-5.04,0.16-7.57c0.26-0.45,0.51-0.91,0.77-1.36
	c1.72,1.05-0.28,2.16,0.07,3.23c0.03,2.52-0.64,5.08,0.46,7.56C821.68,666.77,821.19,667.05,820.5,667.25z"/>
<path class="st160" d="M819.88,685.99c-2.61-0.72-5.13-0.7-7.91-0.3c-3.1,0.45-6.41,0.11-9.58-0.18c-3.8-0.35-7.63,0.3-11.43-0.54
	c-1.55-0.34-2.29,0.99-2.93,2.58c-0.13-1.08-0.2-1.64-0.28-2.21c0.1-1.34,0.21-2.68,0.32-4.02c0.57-0.12,1.28,0.36,1.61,0.11
	c3.05-2.31,6.75-1.43,10.23-1.61c1.32-0.19,2.62-0.55,3.97-0.54c0.99-0.01,1.96-0.4,2.97-0.17c2.32,1.11,5.55-0.31,7.51,2.06
	c0.39,0.47,1.44-0.23,2.09-0.6c1.01-0.56,2.02-0.99,3.04-0.03c0.62,0.61-0.02,1.37,0.34,2.02
	C819.85,683.7,819.86,684.85,819.88,685.99z"/>
<path class="st161" d="M800.37,680.63c-2.24,0.03-4.49,0.05-6.73,0.09c-0.88,0.02-1.84-0.1-2.28,0.84c-1.38,2.92-2.33,1.23-3.3-0.23
	c-0.02-0.2-0.04-0.39-0.06-0.59c0.19-2.03-0.4-4.25,1.94-5.76c2.4-0.43,4.68-1.26,7.12-1.5c1.43-0.14,2.91-0.19,4.09,0.79
	C802.28,676.52,801.25,678.57,800.37,680.63z"/>
<path class="st162" d="M789.9,675.45c-1.46,1.55,0.07,3.88-1.9,5.3c-0.32-0.02-0.63-0.05-0.95-0.07c0.05-1.91,0.1-3.82,0.15-5.72
	c0.46-0.17,0.74,1.13,1.07,0.24c0.53-1.43,0.68-2.96,1-4.44c0.46,0.03,0.92,0.06,1.38,0.09
	C791.77,672.54,791.34,674.05,789.9,675.45z"/>
<path class="st163" d="M781.78,688.83c-1.43,0.01-2.86,0.01-4.28,0.02c0.91-1.93,2.83-0.77,4.29-1.04
	C781.79,688.15,781.79,688.49,781.78,688.83z"/>
<path class="st164" d="M766.12,657.28c1.14,0.52-0.2,1.49,0.52,2.09c0.89,1.07,0.82,2.33,1,3.55c-0.15,0.32-0.42,0.49-0.81,0.54
	c-0.37,0.01-0.72-0.08-1.03-0.25c-1.9-1.78-1.59-3.98-1.61-6.12c0.12-0.3,0.37-0.51,0.72-0.61
	C765.48,656.56,765.71,657.02,766.12,657.28z"/>
<path class="st165" d="M767.21,663.17c-0.19-1.26-0.38-2.53-0.57-3.79c1.46,0.09,1.39,1,1.37,1.88c-0.01,1.43-0.03,2.86-0.04,4.29
	c-0.38,0.13-0.69,0.06-0.94-0.21C766.51,664.58,766.61,663.86,767.21,663.17z"/>
<path class="st166" d="M766.12,657.28c-0.3-0.18-0.61-0.36-0.91-0.53c-0.19-0.15-0.25-0.3-0.2-0.46c0.05-0.16,0.11-0.24,0.17-0.24
	c0.13,0.06,0.25,0.12,0.37,0.18C765.74,656.59,765.93,656.93,766.12,657.28z"/>
<path class="st167" d="M789.9,675.45c0.25-1.54,0.49-3.07,0.74-4.61c0.19-0.06,0.38-0.11,0.58-0.15c3.62,1.87,2.83-1.56,4.04-2.54
	c0.39-0.32,0.1-1.3,1.09-1.15c0.75,0.11,1,0.73,0.92,1.38c-0.13,1.03-1.49,2.56,0.69,2.81c2.39,0.27,0.88-2,1.87-2.83
	c1.31,0.07,0.73,1.93,2.26,1.79c1.09-0.26,1.07,0.39,1.12,0.99c-0.81,1.04-1.4,2.21-2.42,3.13
	C796.99,673.5,793.66,675.92,789.9,675.45z"/>
<path class="st168" d="M762.65,654.35c0.49,0.01,1.06-0.14,1.31,0.42c0,0-0.03,0.25-0.03,0.25c-0.33,0.29-0.73,0.31-1.16,0.19
	c-0.25-0.14-0.38-0.33-0.39-0.59C762.47,654.54,762.56,654.44,762.65,654.35z"/>
<path class="st169" d="M761.19,653.87c0.6-0.09,1.21-0.24,1.45,0.48c0,0-0.1,0.01-0.1,0.01c-0.36,0.34-0.78,0.35-1.23,0.19
	c-0.17-0.13-0.25-0.27-0.23-0.43C761.11,653.96,761.14,653.87,761.19,653.87z"/>
<path class="st170" d="M761.19,653.87c0.02,0.12,0.05,0.24,0.07,0.36c-0.38,0.44-0.86,0.49-1.41,0.27c0,0-0.1-0.19-0.11-0.19
	C760.04,653.69,760.6,653.75,761.19,653.87z"/>
<path class="st171" d="M796.66,702.87c0.29,0.04,0.57,0.07,0.86,0.11c-0.29,1.3-1.29,2.19-2.34,3.07c-1.3,0.35-2.4,1.26-3.91,1
	c-0.47-0.81,0.45-1.33,0.58-2.02c0.19-0.34,0.48-0.6,0.85-0.8c0,0,0.06,0.01,0.06,0.01C794.6,704.9,795.19,702.96,796.66,702.87z"/>
<path class="st172" d="M839.7,659.59c0.04,0.6,0.08,1.21,0.12,1.81c-0.22,0.16-0.45,0.16-0.67,0.01c0.01-0.56,0.01-1.12,0.02-1.69
	C839.35,659.66,839.52,659.62,839.7,659.59z"/>
<path class="st173" d="M841.16,657.37c-0.23,0.41-0.45,0.82-0.68,1.22C840.41,658.06,840.23,657.49,841.16,657.37z"/>
<path class="st174" d="M788.56,704.09c0.21,0.03,0.41,0.02,0.61-0.03c1.11-0.08,1.23,0.6,1.35,1.28c-0.15,0.99-0.65,1.58-1.95,1.26
	c-0.44-0.33-0.87-0.66-1.31-0.99C787.93,705.26,788.68,704.94,788.56,704.09z"/>
<path class="st175" d="M852.7,657.39c0.22,0.74,0.44,1.49,0.67,2.23c-1.83,1.24-3.76,1.34-5.96,0.68c-1.01-0.3-2.36-1.12-3.13,0.84
	c-0.58,1.47-1.63-0.82-2.68-0.38c0.79-2.05,2.02-3.9,3.46-5.66c1.49-1.82,3.36-2.87,6.07-2.26
	C851.04,654.51,852.08,655.89,852.7,657.39z"/>
<path class="st176" d="M720.34,680.73c-0.07-3.9-0.14-7.81-0.21-11.71c0.01-0.78,0.02-1.56,0.02-2.33c0.07-0.41,0.15-0.81,0.22-1.22
	c0.2,0.43,0.4,0.85,0.61,1.28c0.27,3.64,1.18,7.25,0.93,10.93c-0.07,1.06,0.04,2.15-0.91,3.01c0,0-0.21-0.02-0.21-0.02
	C720.64,680.69,720.49,680.71,720.34,680.73z"/>
<path class="st177" d="M764.51,656.92c1.3,1.91,0.35,4.26,1.64,6.17c-0.1,0.11-0.2,0.21-0.31,0.32c-2.12,0.78-3.46-0.79-5.32-1.33
	c0.4,3.45-2.85,2.22-4.71,2.81c-0.23-2.25,0.77-4.31,1.37-6.44c0.96-0.93,1.34-2.27,2.74-2.89c0.71-0.63,1.56-0.65,2.46-0.39
	C763.44,655.43,764.35,655.84,764.51,656.92z"/>
<path class="st178" d="M762.61,655.45c-0.9,0.03-1.8,0.07-2.69,0.1c-0.04-0.24-0.08-0.47-0.12-0.71c0.02-0.12,0.04-0.23,0.06-0.35
	c0.47-0.09,0.94-0.18,1.41-0.27c0.43,0.04,0.86,0.09,1.29,0.13c0.09,0.15,0.15,0.31,0.18,0.48c0.18,0.17,0.23,0.31,0.13,0.44
	C762.77,655.39,762.69,655.45,762.61,655.45z"/>
<path class="st179" d="M788.57,706.62c0.86-0.19,1.32-0.69,1.46-1.42c0.85-0.62,1.7-0.48,2.53,0.02c0.18,0.93-0.82,1.24-1.3,1.82
	c-0.49,0.05-0.98,0.09-1.47,0.14C789.39,706.99,788.98,706.8,788.57,706.62z"/>
<path class="st180" d="M836.43,663.14c0.34-0.39,0.68-0.78,1.01-1.17c0,0,0.32,0.05,0.32,0.05c0.74,0.91,0.81,1.76-0.34,2.48
	c-0.6,0.12-1.06-0.04-1.34-0.53C836.03,663.64,836.14,663.36,836.43,663.14z"/>
<path class="st181" d="M836.43,663.14c-0.07,0.22-0.14,0.45-0.21,0.67c-0.48,0.28-0.93,0.27-1.34-0.11
	c0.07-0.17,0.11-0.35,0.14-0.54c0.29-0.31,0.25-0.77,0.6-1.06c0.19-0.1,0.4-0.14,0.62-0.11
	C836.31,662.37,836.37,662.76,836.43,663.14z"/>
<path class="st182" d="M836.97,664.41c1.24-0.56,0.48-1.61,0.81-2.39c0.56-0.03,1.15-0.02,1.38-0.61c0.22-0.01,0.45-0.01,0.67-0.01
	c0.24,0.24,0.49,0.48,0.73,0.72c-0.34,1.1-0.67,2.2-1.01,3.3c-0.35,0.5-0.7,1-1.05,1.5c-0.75-0.05-1.37-0.29-1.81-0.83
	C836.4,665.49,836.36,664.91,836.97,664.41z"/>
<path class="st183" d="M762.61,655.45c0.04-0.2,0.08-0.41,0.12-0.61c0.4,0.06,0.8,0.12,1.2,0.18c0.2,0.54,0.62,0.88,1.25,1.03
	c0.01,0.23,0.02,0.46,0.03,0.69c-0.24,0.06-0.47,0.11-0.7,0.17C763.87,656.43,763.24,655.94,762.61,655.45z"/>
<path class="st184" d="M752.14,664.32c0.53,0.4,1.06,0.79,1.58,1.19c-0.22,0.59-0.44,1.18-0.66,1.77c0.52,1,0.28,2.05,0.25,3.08
	c-0.07,0.91-0.21,1.79-1.02,2.47c-2.52,1.62-5.77,1.27-8.6,2.3c-1.86,0.68-3.35-1.4-3.84-3.24c0.42-2.39-0.93-3.85-3.38-4.73
	c0.17-0.87,0.78-0.87,1.53-0.57c1.49-0.01,3.05,0.13,4.08,1.07c2.14,1.96,3.87,1.18,5.71-0.29c0.76-0.6,1.11-1.56,2.82-0.29
	c1.45,1.07,0.58-1.01,0.95-1.6C751.76,665.09,751.95,664.71,752.14,664.32z"/>
<path class="st185" d="M738,666.59c-0.46,0.16-0.91,0.33-1.37,0.49c0.03,0.39-0.04,0.75-0.29,1.08c-0.51,0.58-1.31,0.48-2,0.64
	c-0.71,0.42-0.87,1.11-1.23,1.71c-2.91,4.95-5.98,5.59-11.78,2.45c-0.03-0.55-0.27-1.14,0.34-1.59c1.15-1.47,0.19-3.17,0.7-4.71
	c0.61,0.24,1.25,0.67,1.91,0.26c1.76-1.1,2.82-0.46,3.78,0.93c1.02,1.46,2.01,1.38,3.46,0.13
	C733.24,666.51,735.62,666.31,738,666.59z"/>
<path class="st186" d="M721.68,671.38c0.01,0.57,0.03,1.14,0.04,1.71c0.65,0.69,0.93,1.48,0.9,2.36c-0.11,1.34,0.06,2.69-0.14,4.03
	c-0.16,0.51-0.42,0.96-0.98,1.23c-0.17,0-0.33-0.01-0.5-0.02c-0.01-4.65-0.02-9.3-0.03-13.94
	C722.13,668.19,721.23,669.86,721.68,671.38z"/>
<path class="st187" d="M816.6,668.26c0.45,1.61,0.9,3.22,1.36,4.83c0.32,0.35,0.6,0.72,0.71,1.17c0.19,2.26-1.53,3.99-2.4,5.93
	c-0.58,1.3-2.3,0.89-2.3-0.26c0-3.53-2.8-3.27-5.46-3.4c-0.33-0.02-0.64-0.16-0.94-0.31c-0.98-0.89-0.92-2.2-1.76-3.14
	c-0.2-0.62-0.21-1.21,0.34-1.72c2.83,0.38,3.06-1.26,2.98-3.65c1.76,1.98,5.22,1.95,3.91,5.7
	C815.26,671.57,816.22,670.06,816.6,668.26z"/>
<path class="st188" d="M802.83,671.42c0.04-0.55-0.11-1.02-0.74-1.28c0.65-0.8,0.88-2.16,2.32-2.04c1.09,0.09,1.44,1.07,1.25,2.03
	c-1.53,0.87-0.89,2.43-1.56,3.58c-0.42,0.59-0.94,0.81-1.64,0.31C801.55,673.05,801.33,672.14,802.83,671.42z"/>
<path class="st189" d="M806.14,671.36c0.07,0.52,0.13,1.03,0.2,1.55c0.92,1.66,0.57,3.37-0.01,5c-0.44,1.24-1.3,1.55-2.15,0.14
	c-0.63-2.1,0.12-4.17,0.15-6.26c0.01-0.59,0.38-1.1,1.23-1.09C805.76,670.92,805.95,671.14,806.14,671.36z"/>
<path class="st190" d="M805.57,670.7c-1.46,2.46,0.07,5.15-0.82,7.66c-0.36,0.15-0.65,0.09-0.89-0.18
	c-1.04-1.28-0.25-2.76-0.61-4.12c0.81-1.3-1.42-3.98,2.4-3.93C805.62,670.32,805.6,670.51,805.57,670.7z"/>
<path class="st191" d="M820.5,667.25c0.24-0.4,0.48-0.8,0.72-1.2c0.05-0.23,0.1-0.45,0.14-0.68c0.95,0.41,0.48,1.25,0.75,1.86
	c1.66,2.13,2.51,4.43,2,7.01c0.02,0.52,0.04,1.03,0.06,1.55c0.3,0.83-0.27,1.04-1.05,1.11c-0.33-0.06-0.6-0.22-0.78-0.47
	c0.01-1.87-1.69-3.33-1.72-5.19c-0.01-0.18-0.03-0.35-0.08-0.52C820.53,669.57,820.51,668.41,820.5,667.25z"/>
<path class="st192" d="M820.63,671.24c1.64,1.34,2.89,2.8,2.04,4.9c-0.46,0.29-0.97,0.39-1.54,0.31c-0.36-0.08-0.67-0.24-0.92-0.48
	c-1.11-1.25-0.93-2.61-0.45-3.99C820.05,671.74,820.34,671.49,820.63,671.24z"/>
<path class="st193" d="M819.76,671.99c0.26,1.35,0.51,2.69,0.77,4.04c0.4,0.73,0.56,1.38-0.68,1.6c-3.03-0.11-0.88-2.42-1.94-3.36
	c0.02-0.39,0.03-0.79,0.05-1.18C818.91,673.15,819.2,672.41,819.76,671.99z"/>
<path class="st123" d="M831.66,687.11c0.82-0.31,1.71-0.71,1.91,0.53c0.12,0.74,0.48,1.21,1.39,1.28c-0.11,1.02,0.26,2.07-0.57,3.41
	c-0.69-2-2.6-2.28-4.27-2.87C830.08,688.41,831.26,687.95,831.66,687.11z"/>
<path class="st194" d="M821.38,684.95c0.02-0.44,0.03-0.87,0.05-1.31c0.39-0.39,0.72-0.83,1.29-1.06c1.05-0.43,2.08-0.54,3.09,0.09
	c0.37,0.29,0.57,0.63,0.5,1.07c-0.6,0.99-0.2,1.76,0.63,2.52c0.81,0.75,1.64,1.54,1.57,2.69c-0.42,1.57-2.05,0.98-3.17,1.32
	c-0.9-0.93-1.14-2.04-1.42-3.19C823.64,686,823.37,684.64,821.38,684.95z"/>
<path class="st195" d="M822.53,692.39c-2.27-1.8-0.41-3.85-0.48-5.79C823.27,688.47,822.47,690.46,822.53,692.39z"/>
<path class="st196" d="M828.49,688.95c-1.03-0.98-1.95-2.08-3.12-2.93c-1.72-1.25-0.79-1.81,0.61-2.37c1.37-0.02,1.46,1.16,2.2,1.73
	c0,0-0.03-0.03-0.03-0.03C829.43,686.47,829.91,687.64,828.49,688.95z"/>
<path class="st197" d="M824.12,674.25c-0.87-2.29-1.92-4.55-2-7.01c4.17-1.06,8.59-0.09,12.75-1.19c1.61,0.43,1.62,1.63,1.77,2.75
	c-0.05,1.05,0.79,2.2-0.46,3.12c-1.13,1.08-2.76,1.46-4.24,1.48C829.28,673.44,826.75,674.13,824.12,674.25z"/>
<path class="st198" d="M835.73,668.99c-0.29-0.98-0.58-1.96-0.87-2.94c0.52-0.78-0.86-1.57,0.02-2.35c0.45,0.04,0.89,0.07,1.34,0.11
	c0.25,0.2,0.49,0.4,0.74,0.6c0.02,0.55,0.03,1.1,0.05,1.64C837.9,667.45,837.85,668.55,835.73,668.99z"/>
<path class="st199" d="M835.63,662.1c-0.2,0.35-0.4,0.71-0.6,1.06c0.02-0.41,0.03-0.82,0.05-1.23
	C835.28,661.94,835.46,662,835.63,662.1z"/>
<path class="st200" d="M766.55,680.6c-0.19,0.24-0.38,0.47-0.56,0.71c-1.15-0.09-2.7,0.76-2.99-1.2c-0.11-0.69-1.63-1.39-2.12-0.8
	c-1.27,1.55-3.6,0.7-4.62,1.57c-2.06,1.75-1.67-0.33-2.32-0.79c-1.14-1.82,0.35-3.82-0.53-5.66c0.01-0.97-0.08-1.95,0.49-2.84
	c0.19-0.26,0.46-0.44,0.81-0.52c2.25,2.58,5.91,1.15,8.7,2.23c1.36,0.52,1.47-0.42,1.56-1.22c0.15-1.44-0.18-2.93,0.32-4.33
	c0.38-1.08,1.03-1.95,2-0.25c0.14,3.48,0.05,6.95,0.05,10.42C767.34,678.85,767.62,679.88,766.55,680.6z"/>
<path class="st201" d="M754.39,674.25c-0.15,1.95-0.3,3.9-0.45,5.85c-0.06,0.19-0.12,0.38-0.17,0.57c-0.25,0.02-0.49,0.05-0.74,0.07
	c-0.06-1.56-0.11-3.13-0.17-4.69C752.37,674.82,752.18,673.79,754.39,674.25z"/>
<path class="st202" d="M751.78,672.58c0.2-0.79,0.4-1.57,0.6-2.36c1.06-0.14,1.16,0.52,1.29,1.15c0.11,1.77-0.71,3.27-1.89,4.66
	c0.01,0.22,0.01,0.44,0.02,0.67c-0.14,1.2,0.03,2.5-1.53,3.19c-0.22,0.1-0.45,0.21-0.67,0.31c-0.75-0.23-1.08-0.71-1.15-1.36
	C748.97,676.53,750.28,674.52,751.78,672.58z"/>
<path class="st203" d="M750.26,679.89c0.51-1.07,1.02-2.13,1.53-3.2c0.99,2.31,0.79,4.63,0.01,6.94
	C750.96,682.49,752.95,680.49,750.26,679.89z"/>
<path class="st204" d="M751.78,676.03c0.45-1.54,0.89-3.09,1.34-4.63c0.41-0.42,0.84-0.34,1.27-0.03c0,0.96,0,1.91,0,2.87
	c-1.44,0.02-1.21,1.08-1.53,1.8C752.5,676.04,752.14,676.04,751.78,676.03z"/>
<path class="st205" d="M828.18,685.38c-1.1-0.23-1.63-1-2.2-1.73c-0.16-0.22-0.33-0.43-0.49-0.65c-0.65-0.61-1.37-1.17-1.59-2.03
	c-0.11-1.25-1.18-2.15-1.63-3.28c-0.05-0.44,0.05-0.82,0.52-1.07c0.64-0.05,1.13-0.3,1.39-0.83c0.92,2.02,1.85,4.04,2.77,6.06
	C827.17,683.08,828.45,684.03,828.18,685.38z"/>
<path class="st206" d="M835.73,668.99c0.84-0.84,1.41-1.78,1.28-2.93c0.63,0.12,1.19,0.33,1.48,0.87c-0.5,1.87-0.99,3.75-1.49,5.62
	c-0.27-0.21-0.55-0.41-0.82-0.62C836.04,670.95,835.88,669.97,835.73,668.99z"/>
<path class="st207" d="M721.51,680.71c0.08-0.38,0.16-0.76,0.24-1.14c2.15,0.52,1.06,2.25,1.84,3.56c1.68-1.03,3.46-0.69,5.34-0.3
	c3.22,0.66,6.35-0.55,9.56-0.7c1.96-0.09,3.56-0.18,4.46,1.6c-1.15,2.44-3.89,2.81-6.33,3.33c-2.04,0.44-2.92,1.27-2.8,3
	c-1.87-0.2-1.01-2.5-3.02-2.77c-2.49-0.32-4.55,0.51-6.35,1.64c-0.87,0.55-1.71,1.2-2.67,1.68
	C721.68,687.32,721.59,684.02,721.51,680.71z"/>
<path class="st208" d="M808.58,694.66c1.02-1.14,1.71-2.64,3.62-0.42c0.59,0.68,3,0.22,4.58,0.82c1.3,0.49,2.25,1.16,3.1,2.03
	c-0.19,1.37-0.38,2.74-0.57,4.11c-0.2,0.08-0.43,0.13-0.59,0.25c-4.62,3.42-8.3,2.37-9.57-2.79
	C808.84,697.35,808.77,696,808.58,694.66z"/>
<path class="st209" d="M822.71,677.73c1.05,0.78,2.37,1.44,1.91,2.95c-0.82,0.67-1.11,1.66-1.91,2.34c-0.28,0.44-0.74,0.6-1.29,0.63
	c-0.08-0.6-0.15-1.19-0.23-1.79c-0.47-0.48-0.74-1.02-0.77-1.65c-0.02-0.62,0.1-1.21,0.46-1.75
	C821.33,677.91,821.95,677.69,822.71,677.73z"/>
<path class="st210" d="M821.21,680.15c-0.01,0.57-0.01,1.14-0.02,1.7c-0.61,0.02-1.09,0.21-1.36,0.71
	c-0.24-0.63-0.48-1.26-0.72-1.89c-0.17-0.93,0.1-1.63,1.29-1.87C821.16,679.04,820.82,679.76,821.21,680.15z"/>
<path class="st143" d="M787.26,698.25c-0.07-0.17-0.14-0.35-0.19-0.53c0.04-2.34,0.09-4.68,0.13-7.02c2.39,0.07,4.77-0.89,7.19,0
	c1.02,0.38,2.19,0.52,2.32,1.74c-2.21,1.17-1.47,3.92-3.75,5.12c-0.71,0.37-0.1,1.96-1.71,1.72c-1.29-0.19-1.26-1.2-1.44-2.06
	c-0.06-0.26-0.3-0.49-0.54-0.86C788.1,696.64,788.79,698.4,787.26,698.25z"/>
<path class="st211" d="M748.89,678.92c0.24,0.43,0.47,0.85,0.71,1.28c-0.45,0.54-1.24,0.69-1.36,1.67
	c-0.17,1.39-1.12,2.68-3.27,2.46c-0.5-0.16-0.99-0.33-1.49-0.49c-0.67-1.64,1.42-1.9,1.98-2.93
	C746.55,680.19,747.18,678.87,748.89,678.92z"/>
<path class="st212" d="M746.07,681.28c-0.34,1.24-2.09,1.44-2.59,2.56c-0.17-0.08-0.35-0.12-0.54-0.11
	c-1.77-0.69-3.55-2.2-5.27,0.06c-3.15-2.1-6.49,1.78-9.81-0.31c-2.01-1.27-3.76-0.01-4.98,1.85c-1.22-2.15,0.15-4.14-1.14-5.77
	c0-1.37,0-2.73,0-4.1c2.21,3.08,5.01,4.06,9.09,2.41c1.12-0.45,2.24-0.65,2.92-1.61c0.64-0.55,1.37-0.79,2.27-0.51
	c1.44,1.98,3.18,3.35,6.26,3.08C744.14,678.68,745.46,679.72,746.07,681.28z"/>
<path class="st213" d="M767.45,665.49c0.18,0,0.35,0.02,0.52,0.06c0.06,5.08,0.11,10.15,0.17,15.23c-0.07,0.75-0.14,1.51-0.21,2.26
	c-0.15-0.01-0.3-0.03-0.45-0.04c-0.07-0.2-0.13-0.39-0.2-0.59C766.96,676.76,766.64,671.12,767.45,665.49z"/>
<path class="st214" d="M767.45,665.49c-0.06,5.64-0.11,11.28-0.17,16.92c-0.24-0.6-0.49-1.2-0.73-1.8c0-4.64,0.01-9.28,0.02-13.92
	c-1.13-1.19-0.97-2.36,0.08-3.51c0.19,0.01,0.38,0.01,0.57,0C767.29,663.94,767.37,664.71,767.45,665.49z"/>
<path class="st215" d="M767.48,682.99c0.15,0.03,0.3,0.05,0.45,0.04c0.03,1.82,0.09,3.63,0.07,5.45c-0.01,0.95,0.07,1.75,1.54,1.64
	c-1.69,1.03-2.16,0.26-2.15-1.11C767.4,687,767.45,685,767.48,682.99z"/>
<path class="st216" d="M766.65,663.17c-0.03,1.17-0.05,2.34-0.08,3.51c-1.14,1.93-0.24,4.01-0.62,5.99
	c-0.26,1.38-0.06,3.74-2.85,1.33c-1.58-1.36-4.33-0.62-5.11-0.23c-3.11,1.54-2-0.57-2.34-1.54c-0.12-0.34-0.47-0.63-0.71-0.94
	c-0.65-0.74-0.72-1.49-0.04-2.24c0.25-1.23,0.5-2.47,0.75-3.7c4.68,2.19,7.8,1.53,10.25-2.19c0,0,0.25-0.08,0.25-0.08
	C766.31,663.11,766.48,663.13,766.65,663.17z"/>
<path class="st217" d="M765.9,663.17c0.05,3.44-2.5,5.02-7.17,4.19c-1.21-0.22-3.7,0.49-3.08-2c-0.05-0.18,0-0.34,0.16-0.47
	c1.9-0.15,0.92-1.74,1.67-2.47c1.52-0.3,0.56,1.59,1.77,1.54c0.13-0.07,0.22-0.11,0.3-0.17c1.35-0.99-1.8-2.36,0.25-3.15
	c1.72-0.66,1.65,1.72,3.35,1.75C763.95,662.4,764.83,663.22,765.9,663.17z"/>
<path class="st218" d="M754.89,669.05c0.01,0.75,0.03,1.5,0.04,2.24c-0.19,0-0.37,0.02-0.54,0.08c-0.42,0.01-0.85,0.02-1.27,0.03
	c-0.13-0.45-0.1-0.97-0.74-1.18c-0.16-1.05-0.17-2.07,0.68-2.94C754.68,667.1,754.27,668.46,754.89,669.05z"/>
<path class="st144" d="M792.57,705.22c-0.85-0.01-1.69-0.02-2.53-0.02c-0.01-0.53-0.23-0.94-0.86-1.13c1.24-1.07,2.35,0.1,3.53,0.16
	C792.65,704.56,792.61,704.89,792.57,705.22z"/>
<path class="st219" d="M820.5,678.9c-0.46,0.59-0.92,1.18-1.39,1.77c-0.86-0.43-1.4,0-2.08,0.43c-1.47,0.92-3.05,2.51-4.37-0.25
	c-0.4-0.84-1.47-0.72-2.39-0.39c-1.29,0.46-2.43,0.31-3.3-0.71c-0.32-1.33-0.74-2.67,0.77-3.72c1.94-0.79,3.95,0.21,5.95-0.15
	c0.75-0.14,1.4,0.5,1.08,1.4c-0.36,1.01-0.62,2.05,0.7,3.79c-0.18-3.01,2.35-4.46,2.41-6.8c1.15,0.84-0.32,3.36,2.64,3.04
	C821.14,677.85,821.2,678.38,820.5,678.9z"/>
<path class="st220" d="M802.83,671.42c-1.04,0.86,0.14,1.61,0.16,2.42c-0.08,1.39,0,2.78-0.05,4.16c0.1,0.82,1.69,0.98,1.24,2.04
	c-1.27,0.2-2.54,0.39-3.81,0.59c-0.72-2.17,0.82-4.22,0.42-6.37C800.81,672.96,800.48,671.49,802.83,671.42z"/>
<path class="st221" d="M804.18,680.04c-0.02-1.06-1.82-0.44-1.88-1.46c0.56-0.8,1.32-0.64,2.12-0.33c0.1,0.06,0.21,0.1,0.33,0.11
	c1.88-1.53,0.94-3.66,1.59-5.45c1.89,0.57,0.99,2.06,1.41,3.12c-0.36,1.22,0.53,2.64-0.77,3.72
	C806.05,679.84,805.11,679.94,804.18,680.04z"/>
<path class="st222" d="M746.07,681.28c-1.57-0.51-2.47-2.14-4.63-1.77c-3.17,0.54-5.46-0.25-5.51-3.48
	c-0.37-0.83,0.46-1.16,0.93-1.64c1.39-0.72,1.93-2.36,3.78-2.58c1.8,3.45,2.76,3.67,5.86,1.32c0.91-0.69,1.57-1.69,2.73,0
	c0.66,0.96,1.48-0.98,2.55-0.54c-0.16,2.38-1.68,4.31-2.89,6.34C748.03,679.78,747.32,680.77,746.07,681.28z"/>
<path class="st223" d="M740.64,671.81c-1.07,1.05-1.74,2.41-3.33,3.04c-0.24,0.23-0.5,0.26-0.79,0.09c-0.4-1.79,2.11-2.51,2.09-4.16
	c0.42-1.42-1.03-1.52-1.94-2c-0.38-0.2-0.45-0.67-0.92-0.8c0.02-0.5,0.45-0.71,0.89-0.9C740.71,667.19,740.98,667.5,740.64,671.81z"
	/>
<path class="st224" d="M733.96,676.48c0.54,1.88-0.52,2.55-2.51,2.25c-1-0.15-1.91-0.51-2.9-0.01c-0.97,0.49-1.17,2.47-2.66,1.58
	c-1.61-0.96-3.88-1.78-3.68-4.08c0.02-0.24-0.3-0.49-0.47-0.74c0-0.8-0.01-1.59-0.01-2.39c2.34,0.51,4.94-0.25,7.12,1.17
	c1,0.65,1.47-0.12,1.56-0.84c0.27-1.98,2.74-3.14,2.64-5.26c0-0.09,1-0.21,1.53-0.32c1.01,1.19,1.07,2.53,0.81,3.92
	C734.61,673.26,735.25,675.09,733.96,676.48z"/>
<path class="st225" d="M734.52,671.89c0.02-1.35,0.04-2.7,0.06-4.06c0.39,0.05,0.78,0.1,1.16,0.15c0.29,0.15,0.58,0.29,0.88,0.43
	c0.24,0.2,0.31,0.44,0.25,0.72c-0.51,0.99-0.68,2.05-0.87,3.11c-0.15,0.43-0.41,0.8-0.9,1
	C734.11,673.04,734.14,672.52,734.52,671.89z"/>
<path class="st226" d="M804.42,678.25c-0.71,0.11-1.41,0.22-2.12,0.33c-1.01-1.71-0.28-3.23,0.68-4.73c0,0,0.05,0.19,0.05,0.19
	s0.22,0.02,0.22,0.02C805.29,675.12,803.85,676.89,804.42,678.25z"/>
<path class="st227" d="M822.71,677.73c-0.26,0.44-0.72,0.58-1.26,0.59c-0.78-0.72-0.62-1.49-0.12-2.26c0.45,0.03,0.9,0.06,1.34,0.09
	c-0.01,0.17,0.03,0.33,0.13,0.48C822.76,676.99,822.74,677.36,822.71,677.73z"/>
<path class="st228" d="M821.32,676.06c0.04,0.75,0.08,1.51,0.12,2.26c-0.08,0.61-0.15,1.22-0.23,1.83
	c-0.24-0.42-0.47-0.83-0.71-1.25c0.01-0.53,0.03-1.07,0.04-1.6c0.08-0.42-0.63-0.84-0.02-1.27
	C820.79,676.04,821.06,676.05,821.32,676.06z"/>
<path class="st229" d="M822.71,683.01c-0.1-1.22-0.15-2.41,1.91-2.34c0.29,0.78,0.58,1.55,0.87,2.33
	C824.56,682.59,823.64,683.01,822.71,683.01z"/>
<path class="st230" d="M734.52,671.89c0.24,0.39,0.47,0.78,0.71,1.17c0.88,0.34,0.88,1.14,1.25,1.75c0.27,0.01,0.55,0.03,0.82,0.04
	c-0.46,0.39-0.92,0.78-1.37,1.18c-0.66,0.15-1.32,0.3-1.97,0.45C734.21,674.96,733.18,673.32,734.52,671.89z"/>
<path class="st231" d="M736.49,674.81c-1.59,0.04-1.13-1.01-1.25-1.75c0.02-0.4,0.03-0.79,0.05-1.19c0.74-0.36,1.65-0.26,2.37-0.67
	c0.56-0.14,1.01-1.06,1.72-0.19C739.63,672.97,737.41,673.52,736.49,674.81z"/>
</svg>
