<?xml version="1.0" encoding="utf-8"?>
<!-- Generator: Adobe Illustrator 28.0.0, SVG Export Plug-In . SVG Version: 6.00 Build 0)  -->
<svg version="1.1" id="Layer_1" xmlns="http://www.w3.org/2000/svg" xmlns:xlink="http://www.w3.org/1999/xlink" x="0px" y="0px"
	 viewBox="0 0 595.28 841.89" style="enable-background:new 0 0 595.28 841.89;" xml:space="preserve">
<style type="text/css">
	.st0{fill:#E6E7E8;}
</style>
<path class="st0" d="M774.2,583.2c3.1-0.85,5.9,0.08,7.15,3.62c1.15,3.26-0.08,5.87-3.33,7.17c-3.57,1.42-6.37-0.09-7.56-3.39
	C769.35,587.54,770.46,584.75,774.2,583.2z"/>
<path class="st0" d="M845.29,778.26c3.11-0.88,5.87,0.1,7.12,3.62c1.16,3.27-0.14,5.87-3.35,7.16c-3.57,1.44-6.38-0.11-7.55-3.41
	C840.43,782.59,841.49,779.78,845.29,778.26z"/>
<path class="st0" d="M836.46,753.85c3.36-0.76,6.09,0.33,7.15,3.91c0.97,3.3-0.41,5.8-3.71,6.99c-3.43,1.24-6.07-0.27-7.2-3.31
	C831.5,758.18,832.64,755.3,836.46,753.85z"/>
<path class="st0" d="M813.47,691.59c-3.78,1.17-6.4-0.37-7.47-3.38c-1.17-3.29,0.05-6.25,3.73-7.4c3.35-1.05,5.94,0.21,7.11,3.45
	C818.11,687.79,816.55,690.27,813.47,691.59z"/>
<path class="st0" d="M801.04,656.3c2.99-0.73,5.68,0.19,6.88,3.46c1.27,3.46,0.01,6.19-3.54,7.45c-3.65,1.29-6.3-0.38-7.34-3.75
	C796.06,660.3,797.36,657.65,801.04,656.3z"/>
<path class="st0" d="M799.1,635.18c0.9,3.54,0.06,6.25-3.49,7.63c-3.4,1.32-6.03-0.15-7.27-3.16c-1.25-3.01-0.37-5.93,2.94-7.36
	C794.71,630.81,797.29,632.04,799.1,635.18z"/>
<path class="st0" d="M790.28,610.78c0.79,3.78-0.12,6.46-3.72,7.72c-3.45,1.21-6.06-0.37-7.19-3.39c-1.13-3.03-0.16-5.95,3.21-7.29
	C786.1,606.41,788.56,607.9,790.28,610.78z"/>
<path class="st0" d="M765.37,558.79c3.22-0.75,5.9,0.22,7.05,3.51c1.22,3.47-0.07,6.18-3.62,7.43c-3.41,1.2-6.07-0.33-7.19-3.38
	C760.39,563.02,761.72,560.21,765.37,558.79z"/>
<path class="st0" d="M827.58,729.48c3.33-0.79,6.04,0.31,7.13,3.88c1.02,3.31-0.37,5.79-3.66,7c-3.42,1.26-6.06-0.22-7.22-3.26
	C822.58,733.81,823.77,730.97,827.58,729.48z"/>
<path class="st0" d="M818.9,705.05c3.12-0.74,5.86,0.32,6.95,3.91c1,3.3-0.37,5.85-3.67,7.01c-3.64,1.28-6.33-0.37-7.38-3.72
	C813.8,709.11,815.07,706.42,818.9,705.05z"/>
</svg>
