<?xml version="1.0" encoding="utf-8"?>
<!-- Generator: Adobe Illustrator 28.0.0, SVG Export Plug-In . SVG Version: 6.00 Build 0)  -->
<svg version="1.1" id="Layer_1" xmlns="http://www.w3.org/2000/svg" xmlns:xlink="http://www.w3.org/1999/xlink" x="0px" y="0px"
	 viewBox="0 0 595.28 841.89" style="enable-background:new 0 0 595.28 841.89;" xml:space="preserve">
<style type="text/css">
	.st0{fill:#E6E7E8;}
</style>
<path class="st0" d="M883.47,614.97c1.76,2.7,1.73,5.64-1.27,7.91c-2.75,2.09-5.62,1.72-7.84-0.98c-2.44-2.96-1.86-6.1,0.92-8.24
	C877.85,611.68,880.85,611.89,883.47,614.97z"/>
<path class="st0" d="M719.42,742.22c1.79,2.69,1.7,5.62-1.27,7.88c-2.76,2.11-5.63,1.66-7.84-1c-2.46-2.96-1.84-6.11,0.95-8.23
	C713.81,738.91,716.82,739.07,719.42,742.22z"/>
<path class="st0" d="M739.97,726.36c1.75,2.97,1.54,5.9-1.54,8c-2.84,1.93-5.65,1.38-7.79-1.4c-2.22-2.89-1.6-5.87,0.95-7.86
	C734.34,722.95,737.43,723.17,739.97,726.36z"/>
<path class="st0" d="M792.24,685.46c-2.26-3.24-1.6-6.21,0.94-8.14c2.77-2.11,5.97-1.86,8.19,1.29c2.02,2.87,1.61,5.72-1.12,7.82
	C797.27,688.72,794.43,687.99,792.24,685.46z"/>
<path class="st0" d="M822.05,662.85c1.61,2.62,1.56,5.46-1.2,7.6c-2.91,2.26-5.89,1.9-8.17-1.1c-2.34-3.08-1.56-6.11,1.33-8.13
	C816.72,659.33,819.64,659.75,822.05,662.85z"/>
<path class="st0" d="M841.57,654.56c-3.1,1.94-5.93,1.97-8.33-0.99c-2.29-2.83-1.69-5.79,0.78-7.89c2.49-2.11,5.53-2.16,7.9,0.55
	C844.39,649.05,844.01,651.88,841.57,654.56z"/>
<path class="st0" d="M862.11,638.7c-3.36,1.91-6.19,1.86-8.49-1.19c-2.2-2.92-1.49-5.88,1.03-7.88c2.54-2,5.62-1.97,7.92,0.83
	C865,633.4,864.33,636.19,862.11,638.7z"/>
<path class="st0" d="M904.02,599.11c1.7,2.84,1.59,5.68-1.19,7.79c-2.93,2.22-5.9,1.82-8.18-1.18c-2.18-2.88-1.54-5.89,1.03-7.88
	C898.47,595.67,901.55,596.07,904.02,599.11z"/>
<path class="st0" d="M760.47,710.46c1.77,2.93,1.55,5.85-1.52,7.98c-2.85,1.98-5.63,1.42-7.78-1.34c-2.25-2.88-1.64-5.84,0.9-7.87
	C754.81,707.03,757.88,707.29,760.47,710.46z"/>
<path class="st0" d="M781.08,694.74c1.66,2.75,1.49,5.68-1.6,7.81c-2.84,1.96-5.69,1.43-7.8-1.35c-2.33-3.08-1.58-6.14,1.29-8.17
	C775.66,691.13,778.6,691.52,781.08,694.74z"/>
</svg>
