<?xml version="1.0" encoding="utf-8"?>
<!-- Generator: Adobe Illustrator 28.0.0, SVG Export Plug-In . SVG Version: 6.00 Build 0)  -->
<svg version="1.1" id="Layer_1" xmlns="http://www.w3.org/2000/svg" xmlns:xlink="http://www.w3.org/1999/xlink" x="0px" y="0px"
	 viewBox="0 0 595.28 841.89" style="enable-background:new 0 0 595.28 841.89;" xml:space="preserve">
<style type="text/css">
	.st0{fill:#EAD0C1;}
	.st1{fill:#E3C7B8;}
	.st2{fill:#C89D87;}
	.st3{fill:#D5AF99;}
	.st4{fill:#C0937E;}
	.st5{fill:#CFA791;}
	.st6{fill:#B48772;}
	.st7{fill:#815F58;}
	.st8{fill:#DFC0AF;}
	.st9{fill:#D9B7A5;}
	.st10{fill:#A37563;}
	.st11{fill:#E7CBBB;}
	.st12{fill:#DDBCAA;}
	.st13{fill:#EEDACF;}
</style>
<path class="st0" d="M801.69,720.62c-1.28,0.26-2.56,0.49-3.83,0.79c-2.52,0.6-4.1-0.14-4.65-2.85c-0.29-1.44-0.99-2.79-1.33-4.22
	c-2.13-9.02-7.74-14.94-16.08-18.58c-2.09-0.91-3.96-2.31-5.99-3.37c-4.81-2.52-5.48-6.83-4.49-11.42c0.95-4.39,4.42-6.28,8.67-6.81
	c7.21-0.9,9.58-3.78,9.94-11.21c0.55-11.52-1.57-22.94-1.04-34.45c2.23,1.17,3.67,4.19,6.92,2.97c0.35,1.98-0.87,4.24,1.05,5.95
	c0.01,0.64,0.01,1.28,0.02,1.92c0.1,2.69-0.92,5.84,2.86,7.02c0.01,0.65,0.02,1.31,0.03,1.96c0,0.99,0,1.98,0,2.97
	c0,0.33,0,0.66-0.01,0.99c-1.13,0.81-0.76,1.64,0,2.44c2.04,2.13,4.04,4.26,6.84,5.5c4.01,1.78,4.58,5.31,3.95,9.1
	c-0.55,3.35-3.42,3.3-6.01,3.87c-4.07,0.89-9.33,1.04-10.16,6.2c-1.17,7.23-1.86,14.79,4.19,20.72c1.34,1.31,2.46,2.65,2.19,4.68
	c-0.9-0.7-1.8-1.4-2.69-2.11c-0.54-0.43-1.25-0.77-1.71-0.22c-0.33,0.4-0.43,1.3-0.2,1.78c1.74,3.69,3.46,7.4,5.44,10.96
	c1.18,2.13,2.46,2.01,3.13-0.51c2.77-0.01,1.28,3.16,2.94,3.97C801.69,719.32,801.69,719.97,801.69,720.62z M777.93,679.05
	c-1.85-0.19-3.54,0.28-5.2,1.1c-5.21,2.55-5.46,4.38-1.42,8.64c3.7,3.89,9.28,4.65,13.13,8.27c0.98,0.92,2.7,0.58,2.27-1.01
	c-1.48-5.46-3.24-10.85-5.17-16.17C781.06,678.54,779.19,679.16,777.93,679.05z"/>
<path class="st1" d="M793.77,652.29c0-0.33,0-0.66,0.01-0.99c0.66,0,1.32,0,1.98,0c0.33,0.58,0.66,0.57,0.99,0l0,0
	c1.36,0.56,2.23,2.12,3.95,1.97c8.67,3.47,14.27,11.33,13.27,18.93c-0.68,5.17-1.32,10.39-2.59,15.43
	c-1.22,4.83-0.12,8.06,4.05,10.87c4.91,3.31,5.51,6.81,3.02,12.37c-1.33,2.97-2.63,5.95-3.95,8.92c-4.18,1.66-8.53,0.58-12.8,0.83
	c0-0.65-0.01-1.3-0.01-1.95c1.55-0.91,3.12-2.62,4.66-2.59c5.12,0.1,6.06-3.8,7.55-7.15c1.55-3.48,0.58-5.93-3.26-7.3
	c-3.25-1.16-6.51-0.75-9.77-0.77c-5.01-0.02-7.62-3.29-8.81-7.3c-1.28-4.32,1.2-7.62,5.04-9.69c1.58-0.85,3.33-1.38,5-2.06
	c4.56-1.86,7.85-4.44,7.6-10.18c-0.27-6.14-1.39-11.62-7.68-14.17C798.89,656.21,796.3,654.36,793.77,652.29z"/>
<path class="st2" d="M831.49,638.24c3.2-0.11,4.49,2.16,5.64,4.57c1.35,2.84,2.76,4.88,6.01,1.76c1.59-1.52,3.86-1.54,6.02-1.17
	c1.51,4.02,0.42,7.33-2.7,10.12c-0.98,0.87-1.93,1.81-2.71,2.86c-7.14,9.53-8.15,20.96-9.01,32.16c-0.24,3.07-0.7,7.34,1.99,10.34
	c4.18,4.66,4.23,9.63,1.44,14.98c-0.83,1.58-1.28,3.35-1.91,5.04c-2.01,0.1-4.02,0.19-6.03,0.28c-0.02-2.23,0.87-4.16,1.93-6.04
	c1.46-2.59,1.91-5.5,0.7-8.08c-5.48-11.69-4.11-23.54-1.16-35.45c2.03-8.2,5.04-16.27,1.63-24.86
	C832.5,642.69,830.88,640.74,831.49,638.24z"/>
<path class="st3" d="M803.73,637.41c1.79-2.5,4.36-2.05,6.88-1.83c0.8,4.3,3.15,7.68,6.28,10.59c1.22,1.14,2.27,1.4,2.58-0.75
	c2.81-2.21,2.77-7.4,7.71-7.37c1.72,2.13,2.6,4.5,2.21,7.29c-0.55,4.03-0.87,8.11-1.61,12.11c-2.57,13.9-4.84,27.92-1.11,41.81
	c1.98,7.4,2.6,13.97-2.22,20.3c-0.99,0.04-1.99,0.07-2.98,0.11c1.17-4.22,4.67-8.08,2-12.9c0-0.66,0-1.31,0-1.97
	c1.71-1.75,0.69-3.58,0.31-5.5c-1.85-9.46-2.84-18.86-1.68-28.65c0.81-6.8,0.22-14.21-6.01-19.28c-2.79-2.27-4.36-5.26-5.28-8.65
	C809.82,639.1,807.65,637.1,803.73,637.41z"/>
<path class="st4" d="M836.25,718.9c0.63-1.69,1.08-3.46,1.91-5.04c2.8-5.34,2.75-10.32-1.44-14.98c-2.69-3-2.23-7.26-1.99-10.34
	c0.86-11.2,1.87-22.63,9.01-32.16c0.78-1.05,1.74-1.99,2.71-2.86c3.13-2.8,4.21-6.1,2.7-10.12c1.91-0.26,3.53,0.26,4.8,1.76
	c0.03,2.04,0.07,4.07,0.1,6.11c-1.44,0.12-1.68,1.11-2.02,2.33c-0.87,3.16-2.72,5.88-4.43,8.65c-6.61,10.75-8.54,21.98-3.86,34.07
	c1.49,3.84,2.09,7.94,1.08,12.08c-0.84,3.44-1.73,6.87-2.6,10.3C840.23,718.76,838.24,718.83,836.25,718.9z"/>
<path class="st5" d="M824.45,719.57c4.82-6.33,4.2-12.9,2.22-20.3c-3.72-13.89-1.46-27.91,1.11-41.81c0.74-4,1.05-8.08,1.61-12.11
	c0.38-2.79-0.49-5.16-2.21-7.29c0.99-0.8,2.1-0.72,3.25-0.5c0.35,0.27,0.69,0.54,1.04,0.81c0,0,0.04-0.13,0.04-0.13
	c-0.61,2.5,1,4.45,1.82,6.52c3.4,8.6,0.39,16.66-1.63,24.86c-2.94,11.91-4.32,23.75,1.16,35.45c1.21,2.58,0.77,5.48-0.7,8.08
	c-1.06,1.87-1.95,3.81-1.93,6.04C828.33,719.88,826.39,719.71,824.45,719.57z"/>
<path class="st6" d="M842.23,718.69c0.87-3.43,1.76-6.86,2.6-10.3c1.01-4.14,0.41-8.24-1.08-12.08
	c-4.68-12.08-2.75-23.32,3.86-34.07c1.7-2.77,3.55-5.49,4.43-8.65c0.34-1.22,0.57-2.21,2.02-2.33c-0.31,4.77-1.29,9.41-2.93,13.9
	c-2.85,7.81-6.45,15.51-3.1,24.14c0.28,0.72,0.1,1.63,0.11,2.46c0.17,8.99-0.3,17.94-1.94,26.8
	C844.88,718.61,843.55,718.65,842.23,718.69z"/>
<path class="st7" d="M856.15,648.06c2.79,5.75,2.12,11.93,1.66,17.9c-1.28,16.53-3.65,32.98-3.08,49.63
	c0.17,4.81-3.35,2.61-5.54,2.92c0.32-3.59,0.37-7.23,1.01-10.76c1.16-6.36,0.5-12.81,1.23-19.18
	C852.98,675.07,855.24,661.65,856.15,648.06z"/>
<path class="st8" d="M814.5,719.8c1.32-2.98,2.62-5.96,3.95-8.92c2.49-5.55,1.89-9.06-3.02-12.37c-4.17-2.81-5.28-6.04-4.05-10.87
	c1.28-5.04,1.91-10.26,2.59-15.43c1-7.6-4.6-15.47-13.27-18.93c1.65-3.45,3.97-3.94,6.87-1.5c1.23,1.03,2.13,2.53,4.01,2.5
	c0,0.33,0,0.66,0,0.99c1.26,3.18,2.6,6.3,5.93,7.93c0,0.66,0,1.32,0,1.98c-1.14,3.77-2.53,7.56,0.99,10.9c0,0.66,0,1.32,0,1.98
	c-1.05,0.18-1.89,0.63-1.9,1.83c-0.02,3.91-0.9,8.12,0.27,11.65c1.28,3.88,1.78,8.54,5.59,11.3c0,0.66,0,1.32,0,1.98
	c-1.01,0.66-1.01,1.32,0,1.98c-0.21,4.89-4.05,8.37-4.98,12.99C816.48,719.78,815.49,719.79,814.5,719.8z"/>
<path class="st9" d="M822.45,704.8c0-0.66,0-1.32,0-1.98c0.86-2.87-1.25-5-2.15-7.29c-2.24-5.74-0.34-11.77-1.81-17.48
	c0-0.66,0-1.32,0-1.98c0.14-3.68,0.62-7.38-0.99-10.9c0-0.66,0-1.32,0-1.98c-0.3-3.9-1.88-6.84-5.93-7.93c0-0.33,0-0.66,0-0.99
	c-1.52-8.81-3.66-10.54-9.86-7.93c-0.22-2.03,0.18-3.97,0.85-5.87c0.97-0.49,1.09-1.36,1.03-2.31c-0.03-0.26,0.01-0.51,0.13-0.75
	c3.92-0.31,6.1,1.69,7.09,5.32c0.92,3.39,2.49,6.38,5.28,8.65c6.23,5.07,6.82,12.48,6.01,19.28c-1.16,9.79-0.18,19.19,1.68,28.65
	c0.37,1.91,1.4,3.75-0.31,5.5C823.13,704.8,822.79,704.8,822.45,704.8z"/>
<path class="st10" d="M856.15,648.06c-0.91,13.58-3.16,27.01-4.72,40.52c-0.73,6.36-0.07,12.81-1.23,19.18
	c-0.64,3.53-0.7,7.17-1.01,10.76c-0.99,0.02-1.99,0.03-2.98,0.05c1.63-8.86,2.11-17.81,1.94-26.8c-0.02-0.82,0.17-1.73-0.11-2.46
	c-3.35-8.63,0.24-16.33,3.1-24.14c1.64-4.49,2.62-9.12,2.93-13.9c-0.03-2.04-0.07-4.07-0.1-6.11
	C855.12,645.8,856.09,646.58,856.15,648.06z"/>
<path class="st3" d="M793.78,648.32c-0.01-0.65-0.02-1.31-0.03-1.96c-1.29-2.2,0.38-5.62-2.86-7.02c-0.01-0.64-0.01-1.28-0.02-1.92
	c1.23-2.55,2.2-5.07-0.97-7.01c-0.01-0.96-0.01-1.93-0.02-2.89c1.74-2.21,0.9-4.73,0.69-7.1c-0.46-5.19-1.11-10.37-1.69-15.55
	c1.42-0.09,2.9-0.56,4.13,0.62c-0.7,0.51-1.19,1.17-1.05,2.06c1.19,7.54,1.64,15.13,2,22.75c0.14,3.02-0.65,6.86,2.64,9.2
	c0.02,0.62,0.04,1.24,0.06,1.87c-1.42,1.52-0.19,1.78,0.98,2.07c0.13,1.28,0.81,1.96,2.13,1.94c0.31,0.65,0.62,1.3,0.93,1.94
	c0.3,3.15-1.82,3.06-3.95,2.97C795.76,649.64,794.77,648.98,793.78,648.32z"/>
<path class="st11" d="M789.88,627.53c0.01,0.96,0.01,1.93,0.02,2.89c-0.03,0.36-0.06,0.71-0.08,1.07c-3.25,1.22-4.69-1.81-6.92-2.97
	c-0.75-5.65-1.26-11.27-0.07-16.96c0.48-2.29,0.69-4.53,3.07-5.7c0.82,4.27,1.35,8.62,2.56,12.78
	C789.32,621.59,787.56,624.88,789.88,627.53z"/>
<path class="st10" d="M794.84,607.18c3.67,4.38,3.15,9.83,3.63,14.95c0.44,4.73,0.3,9.52,0.41,14.28c-0.72,0.03-1.44,0.06-2.16,0.08
	C796.1,626.72,795.47,616.95,794.84,607.18z"/>
<path class="st2" d="M794.84,607.18c0.63,9.77,1.25,19.54,1.88,29.31c-0.04,1.01-0.08,2.02-0.12,3.02c-3.29-2.34-2.5-6.18-2.64-9.2
	c-0.36-7.63-0.81-15.21-2-22.75c-0.14-0.89,0.35-1.55,1.05-2.06C793.88,605.77,794.68,606.12,794.84,607.18z"/>
<path class="st12" d="M796.75,650.3c2.13,0.09,4.25,0.18,3.95-2.97c0.34-0.33,0.68-0.66,1.01-0.99c6.2-2.61,8.34-0.88,9.86,7.93
	c-1.87,0.02-2.78-1.48-4.01-2.5c-2.91-2.43-5.23-1.95-6.87,1.5c-1.72,0.15-2.59-1.41-3.95-1.97
	C796.74,650.97,796.75,650.63,796.75,650.3z"/>
<path class="st8" d="M789.88,627.53c-2.32-2.64-0.56-5.94-1.42-8.89c-1.21-4.16-1.74-8.51-2.56-12.78c0.9-0.62,1.79-1.27,2.98-0.98
	c0.58,5.18,1.23,10.36,1.69,15.55C790.78,622.8,791.62,625.31,789.88,627.53z"/>
<path class="st5" d="M819.46,645.43c-0.31,2.15-1.36,1.89-2.58,0.75c-3.13-2.91-5.48-6.29-6.28-10.59c5.33-0.67,5.5,4.51,7.92,7.12
	C819.12,643.35,819.16,644.51,819.46,645.43z"/>
<path class="st9" d="M817.47,719.77c0.92-4.61,4.77-8.1,4.98-12.99c0.34,0,0.67,0,1.01,0c2.67,4.82-0.83,8.67-2,12.9
	C820.13,719.71,818.8,719.74,817.47,719.77z"/>
<path class="st4" d="M796.6,639.51c0.04-1.01,0.08-2.02,0.12-3.02c0.72-0.03,1.44-0.05,2.16-0.08c1.27,2.9,0.7,5.97,0.89,8.98
	c-1.31,0.02-1.99-0.65-2.13-1.94c0.06-0.87-0.13-1.63-0.99-2.07C796.64,640.75,796.62,640.13,796.6,639.51z"/>
<path class="st3" d="M803.59,638.16c0.06,0.95-0.06,1.82-1.03,2.31C802.61,639.57,802.76,638.72,803.59,638.16z"/>
<path class="st2" d="M831.46,638.37c-0.35-0.27-0.69-0.54-1.04-0.81C830.76,637.83,831.11,638.1,831.46,638.37z"/>
<path class="st11" d="M793.77,652.29c2.52,2.07,5.12,3.92,8.23,5.18c6.29,2.55,7.42,8.04,7.68,14.17c0.25,5.74-3.03,8.32-7.6,10.18
	c-1.67,0.68-3.42,1.21-5,2.06c-3.84,2.07-6.32,5.37-5.04,9.69c1.19,4.01,3.8,7.28,8.81,7.3c3.26,0.02,6.52-0.39,9.77,0.77
	c3.84,1.37,4.81,3.82,3.26,7.3c-1.49,3.35-2.43,7.25-7.55,7.15c-1.53-0.03-3.1,1.68-4.66,2.59c-1.67-0.81-0.18-3.98-2.94-3.97
	c-0.01-0.99-0.01-1.98-0.02-2.96c-0.25-2.35,1.01-5.45-2.96-5.95c-0.33-0.33-0.66-0.66-0.99-1c0.27-2.03-0.85-3.37-2.19-4.68
	c-6.05-5.93-5.36-13.49-4.19-20.72c0.84-5.16,6.09-5.32,10.16-6.2c2.59-0.56,5.46-0.52,6.01-3.87c0.62-3.79,0.05-7.32-3.95-9.1
	c-2.8-1.24-4.8-3.37-6.84-5.5C793.02,653.93,792.64,653.1,793.77,652.29z"/>
<path class="st13" d="M777.93,679.05c1.26,0.11,3.13-0.5,3.61,0.83c1.93,5.32,3.68,10.71,5.17,16.17c0.43,1.59-1.29,1.92-2.27,1.01
	c-3.85-3.62-9.43-4.39-13.13-8.27c-4.05-4.25-3.8-6.09,1.42-8.64C774.39,679.33,776.07,678.86,777.93,679.05z"/>
<path class="st13" d="M798.72,711.74c0.01,0.99,0.01,1.98,0.02,2.96c-0.67,2.52-1.95,2.64-3.13,0.51c-1.97-3.57-3.7-7.27-5.44-10.96
	c-0.22-0.48-0.12-1.38,0.2-1.78c0.45-0.56,1.16-0.22,1.71,0.22c0.89,0.71,1.79,1.41,2.69,2.11c0.33,0.33,0.66,0.66,0.99,1
	C795.78,708.25,796.43,710.4,798.72,711.74z"/>
<path class="st8" d="M790.89,639.34c3.24,1.4,1.58,4.82,2.86,7.02C789.97,645.18,790.98,642.03,790.89,639.34z"/>
<path class="st8" d="M789.82,631.48c0.03-0.36,0.05-0.71,0.08-1.07c3.17,1.94,2.2,4.46,0.97,7.01
	C788.95,635.72,790.17,633.46,789.82,631.48z"/>
<path class="st8" d="M796.75,650.3c0,0.34,0,0.67,0,1.01c0,0,0,0,0,0c-0.33,0-0.66,0-0.99,0c-0.66,0-1.32,0-1.98,0
	c0-0.99,0-1.98,0-2.97C794.77,648.98,795.76,649.64,796.75,650.3z"/>
<path class="st12" d="M795.76,651.3c0.33,0,0.66,0,0.99,0C796.42,651.87,796.09,651.87,795.76,651.3z"/>
<path class="st12" d="M823.46,706.78c-0.34,0-0.67,0-1.01,0c-1.01-0.66-1.01-1.32,0-1.98c0.34,0,0.67,0,1.01,0
	C823.46,705.46,823.46,706.12,823.46,706.78z"/>
<path class="st12" d="M818.49,678.04c1.47,5.72-0.43,11.74,1.81,17.48c0.9,2.3,3.01,4.42,2.15,7.29c-3.81-2.77-4.31-7.42-5.59-11.3
	c-1.16-3.53-0.28-7.74-0.27-11.65C816.6,678.68,817.45,678.23,818.49,678.04z"/>
<path class="st12" d="M817.51,665.17c1.61,3.52,1.12,7.22,0.99,10.9C814.98,672.72,816.36,668.93,817.51,665.17z"/>
<path class="st12" d="M811.58,655.26c4.05,1.09,5.63,4.03,5.93,7.93C814.18,661.56,812.84,658.44,811.58,655.26z"/>
<path class="st2" d="M796.66,641.38c0.86,0.44,1.04,1.19,0.99,2.07C796.47,643.16,795.24,642.9,796.66,641.38z"/>
<path class="st0" d="M798.72,711.74c-2.29-1.33-2.94-3.49-2.96-5.95C799.73,706.29,798.47,709.39,798.72,711.74z"/>
</svg>
